<svg id="Layer_1" data-name="Layer 1" xmlns="http://www.w3.org/2000/svg" viewBox="0 0 415.03 426.14"><title>breath</title><g id="Layer_1-2" data-name="Layer_1"><g id="_2201731488784" data-name=" 2201731488784"><path d="M115,12.1C95.58,22.33,79.36,40.32,74.07,61.83c-7.76,30.33,5.64,64.9-9.17,92.76-13.05,24.34-43.74,34.57-57.14,58.55-8.11,14.46-8.82,31.74-6.7,48,7.76,53.25,46.2,98.05,92.76,123.79,46.55,25.4,99.81,34.57,152.36,39.51,22.22,2.11,45.15,3.52,66.67-2.12,21.86-5.64,42-19,56.43-37,6.35-8.11,11.64-17.28,13.4-27.87,3.53-18-4.59-36.32-7.05-54.66-7.06-53.26,34.56-101.23,39.15-154.49a123.27,123.27,0,0,0-5.3-45.5c-4.58-13.75-12-26.8-22.92-36C366.46,49.13,339.3,47,313.9,43.14c-28.21-4.23-47.26-16.58-72.65-28.57C205.62-2,151-6.24,115,12.1Z" transform="translate(-0.04 -0.12)" style="fill:#d7dbfa;fill-rule:evenodd"/><path d="M270.87,426.17c9.88-18.69,6.35-45.14-1.76-66.66-20.1-53.61-58.9-81.12-96.29-92.41C130.5,254.41,73.36,253,40.91,298.85a57.44,57.44,0,0,0-10.58,31c16.58,22.58,39.15,41.27,63.49,55,46.55,25.4,99.81,34.57,152.36,39.51C254.65,425.47,262.76,425.82,270.87,426.17Z" transform="translate(-0.04 -0.12)" style="fill:#fefefe;fill-rule:evenodd"/><path d="M267.7,426.17c8.82-15.52,8.46-39.5-1.41-65.95-22.57-60.67-68.78-82.54-94.17-90.3-20.81-6.34-91.35-22.57-128.74,30.69a55.71,55.71,0,0,0-10.23,33.15c-1.76-2.47-3.88-4.93-5.64-7.4a63.26,63.26,0,0,1,10.93-28.92c26.46-37.39,67.37-42.68,98.41-40.21a203.58,203.58,0,0,1,37,7c26.45,8.11,74.42,31,98.05,94.17,9.88,26.45,10.58,51.14,2.12,67.72Z" transform="translate(-0.04 -0.12)" style="fill:#4756df;fill-rule:evenodd"/><path d="M153.07,245.24a173.41,173.41,0,0,1-26.45-85.71c-11.29-15.17-19.05-34.21-18.34-52.91.7-19,13.4-38.09,32.09-40.91,8.47-1.41,16.58.71,25,0,12-.7,23.27-7,33.5-13,10.58-6.35,20.81-13,32.8-15.52,12-2.11,25.75,1.06,32.45,11.29,3.18,4.58,4.59,10.23,7.41,14.81,4.23,6,10.58,10.23,17.28,13.4,6.7,3.53,13.4,6.71,18.69,12,4.94,5.29,8.12,13.4,4.94,20.45-3.52,8.12-14.81,13-13.75,22.22,1.06,7.06,9.87,11.29,10.58,18.34.35,6-4.94,10.58-9.88,14.11-25,18.34-50.43,36.68-75.83,55-10.23,7.41-20.81,15.17-32.45,20.11C179.17,243.82,165.06,248.76,153.07,245.24Z" transform="translate(-0.04 -0.12)" style="fill:#4756df;stroke:#4756df;stroke-width:0.6123530268669128px;fill-rule:evenodd"/><path d="M154.48,243.12c11.29,2.82,24.34-1.76,35.63-6.7,11.63-4.59,22.22-12.35,32.09-19.75l75.83-55c4.59-3.18,9.17-7.06,8.82-11.64-.35-3.18-2.47-5.65-4.59-8.12-2.46-3.17-5.29-6.34-5.64-10.58-1.06-6.35,3.53-10.93,7.41-15.16,2.47-2.47,5.29-5.29,6.35-8.11,2.82-6-.36-13.41-4.59-17.64-4.23-4.58-10.23-7.41-15.87-10.23l-2.12-1.41c-7.05-3.53-14.1-7.76-18.34-14.46a69,69,0,0,1-3.52-7.41,36.09,36.09,0,0,0-3.53-7.4c-6.35-9.53-19.75-12-30.33-9.88s-20.46,8.11-30,13.76l-1.77,1.05c-10.58,6.71-22.22,12.7-34.91,13.76a61.83,61.83,0,0,1-11.29-.35,55.69,55.69,0,0,0-13.4.35c-18,2.47-29.63,21.51-30,38.44-.71,16.93,6,35.63,17.63,51.5l.71.35v.71A173,173,0,0,0,154.48,243.12Zm7.76,5.64a30.35,30.35,0,0,1-9.87-1.41l-1.06-.35-.35-.71a176.3,176.3,0,0,1-26.81-86.06c-12.34-16.57-19.05-36-18.34-53.61.71-19,13.76-40.2,34.21-43.38a66.55,66.55,0,0,1,14.46,0c3.88,0,7.06.35,10.58,0,11.64-.7,22.58-6.7,32.8-12.69l1.77-1.42c9.87-6,20.1-12,31.74-14.46,12-2.11,27.16.71,34.92,12.35a40.16,40.16,0,0,1,3.88,7.76,43,43,0,0,0,3.53,7c3.88,6,10.22,9.88,16.22,12.7L292,75.59c6,3.17,12.34,6.35,17.28,11.28,5.29,5.65,9.17,14.82,5.64,22.93-1.76,3.88-4.58,6.7-7.41,9.52-3.52,3.88-6.7,7.41-6.34,11.64.35,2.82,2.46,5.29,4.58,7.76,2.82,3.17,5.64,6.35,6,10.93.35,6.71-5.29,12-10.94,15.88l-75.83,55c-10.23,7.76-20.81,15.52-33.15,20.45C182.7,244.88,172.12,248.76,162.24,248.76Z" transform="translate(-0.04 -0.12)" style="fill:#4756df;fill-rule:evenodd"/><path d="M270.87,163.76c1.77,20.81,2.47,42.68.71,63.84-1.06,14.11-6.7,29.27-18,38.09-14.46,11.64-33.15,8.11-50.08,6.7-1.77,0-13.4,47.27-14.46,52.56-12.35,5.29-27.51,3.88-38.8-3.18-11.29-6.7-19.4-19-20.46-32.09,7.41-15.88,22.93-45.15,24.69-64.55-8.11,0-16.93-4.58-22.22-10.93a14.87,14.87,0,0,1-3.17-15.52c2.82-8.11,10.93-9.52,17.63-7.76,4.24,1.06,8.47,3.53,12.35,5.64-.35-23.28,2.47-29.27,12.34-50.43,2.82-6.35,1.77-14.11.36-21.52a8.76,8.76,0,0,1,7.75-9.87c17.64-1.41,36.69-3.53,54-4.94,10.58-.71,22.92-.71,30.68,6.7,3.53,3.53,3.88,20.1,4.59,25.39A217.76,217.76,0,0,1,270.87,163.76Z" transform="translate(-0.04 -0.12)" style="fill:#fefefe;fill-rule:evenodd"/><path d="M132.26,290a40.45,40.45,0,0,0,19.05,30c10.93,6.35,24.69,7.4,35.62,3.17l.35-1.41c12.7-51.85,13.76-51.85,16.23-51.85,2.47.36,4.58.36,6.7.71,14.46,1.41,30,2.82,41.62-6.7,9.87-7.76,16.22-21.16,17.63-36.33,1.41-18.69,1.06-39.5-.7-63.84-.71-7-1.41-14.46-2.47-21.51,0-1.41-.35-3.18-.35-5.29-.36-5.29-1.06-16.58-3.53-18.7-6.7-6.7-18-6.7-28.92-6-9.88.7-20.81,1.76-31,2.82-7.76.7-15.17,1.76-22.57,2.12a7.36,7.36,0,0,0-4.59,2.46c-.7,1.42-1.41,2.83-1.06,4.59,1.41,7.41,2.47,15.87-.7,22.92-9.88,20.81-12.35,26.46-12,49.38v4.59L158,198.68c-3.88-2.12-7.76-4.59-12-5.64-5.65-1.41-12.35-.36-14.82,6.34A13.68,13.68,0,0,0,134,212.43c5.29,6.35,13.05,10.23,20.1,10.23h3.17l-.35,2.82c-1.41,17.29-13.75,42-21.87,58.55C134,286.15,133,288.26,132.26,290Zm40.56,40.56a49.27,49.27,0,0,1-24-6.7,45.27,45.27,0,0,1-21.52-34.21V289l.36-.35c1.06-2.12,2.11-4.23,3.17-6.7,7.41-15.52,18.69-38.1,21.16-54.32a34.12,34.12,0,0,1-21.51-12A17.46,17.46,0,0,1,126.62,198c3.53-9.87,13.4-11.28,20.46-9.52,3.52.71,6.7,2.47,9.52,3.88,0-20.46,3.53-27.86,12.7-47.26,2.47-5.64,1.41-13,.35-20.11a9.48,9.48,0,0,1,2.12-8.46,10.26,10.26,0,0,1,7.4-3.88c7.41-.71,15.17-1.41,22.57-2.12,10.59-1,21.52-2.11,31.39-2.82,11.64-1.06,24.34-1.06,32.81,7.06,3.17,3.17,4.23,11.64,4.93,21.86a18.38,18.38,0,0,0,.36,4.94c.7,7.41,1.76,14.82,2.11,21.87h0a399.36,399.36,0,0,1,.71,64.54c-1.06,16.58-8.11,31-19.05,39.86-13.4,10.58-30.33,8.82-45.5,7.76-1.41-.35-3.17-.35-4.58-.71-1.41,3.18-4.59,13.76-13,48.32l-1.06,3.53-1.06.35A38.32,38.32,0,0,1,172.82,330.59Z" transform="translate(-0.04 -0.12)" style="fill:#4756df;fill-rule:evenodd"/><path d="M155.54,213.14a3.19,3.19,0,0,1-2.47-1.06,21.52,21.52,0,0,0-12.34-10.58,2.32,2.32,0,0,1-1.77-2.82,2.53,2.53,0,0,1,3.18-1.76,28.87,28.87,0,0,1,15.52,12.69,3.2,3.2,0,0,1-1.06,3.53Z" transform="translate(-0.04 -0.12)" style="fill:#4756df;fill-rule:evenodd"/><path d="M209.5,176.81c-6.34,0-12.34-3.88-14.46-9.17-.35-1.41,0-2.82,1.41-3.17a2.61,2.61,0,0,1,3.18,1.41c1.41,3.88,6,6.7,10.58,6.35,4.23-.36,8.46-3.88,9.17-7.76a2.52,2.52,0,0,1,3.17-1.77,2.26,2.26,0,0,1,1.77,2.83,15.12,15.12,0,0,1-13.76,11.28Z" transform="translate(-0.04 -0.12)" style="fill:#4756df;fill-rule:evenodd"/><path d="M253.59,174.7a15.12,15.12,0,0,1-13.75-9.17,2.64,2.64,0,0,1,1.41-3.18c1.41-.35,2.82,0,3.17,1.41,1.41,3.88,5.64,6.7,9.52,6.35a10.15,10.15,0,0,0,8.82-7.76c0-1.41,1.41-2.12,2.82-2.12,1.06.36,2.12,1.77,1.77,2.83a14.21,14.21,0,0,1-12.7,11.64Z" transform="translate(-0.04 -0.12)" style="fill:#4756df;fill-rule:evenodd"/><path d="M192.57,143.66h-1a2.36,2.36,0,0,1-2.12-2.47,2.41,2.41,0,0,1,2.47-2.47h0a28.91,28.91,0,0,0,23.28-10.93,2,2,0,0,1,3.17-.36,2.31,2.31,0,0,1,.71,3.18A34,34,0,0,1,192.57,143.66Z" transform="translate(-0.04 -0.12)" style="fill:#4756df;fill-rule:evenodd"/><path d="M257.12,138.37A32.83,32.83,0,0,1,237,131a2.24,2.24,0,0,1-.35-3.17,2.72,2.72,0,0,1,3.53-.36,26.09,26.09,0,0,0,20.1,5.65,3.06,3.06,0,0,1,2.82,2.11c0,1.41-.7,2.82-2.11,2.82A14.19,14.19,0,0,1,257.12,138.37Z" transform="translate(-0.04 -0.12)" style="fill:#4756df;fill-rule:evenodd"/><path d="M245.48,227.6a2.64,2.64,0,0,1-2.47-2.12c-.35-1.41.71-2.46,2.12-2.82a14.19,14.19,0,0,0,7.05-3.17c1.41-1.06,3.17-2.47,3.53-4.59.35-2.47-1.41-4.93-3.18-7.4l-7.4-10.23c-.71-1.06-.71-2.82.35-3.53a2.66,2.66,0,0,1,3.53.71l7.4,10.23c2.47,3.17,4.59,6.7,3.88,10.93a11.85,11.85,0,0,1-4.94,7.76,18.92,18.92,0,0,1-9.52,3.88Z" transform="translate(-0.04 -0.12)" style="fill:#4756df;fill-rule:evenodd"/><path d="M251.48,242.41a2.11,2.11,0,0,0-1.42.36,16.26,16.26,0,0,0-12.69,9.52c-.71,1.76-1.06,4.58,0,5.64,1.06,1.41,3.52,1.06,5.29.71h0c4.58-1.41,8.11-4.94,10.58-9.88,1.06-2.82,1.06-4.94.35-5.64A3.79,3.79,0,0,0,251.48,242.41Zm-8.12,18.34Zm-3.17,3.18a9.41,9.41,0,0,1-6.35-2.47c-2.47-2.82-2.47-6.7-.71-10.93a21.4,21.4,0,0,1,16.23-12.7c4.58-.71,7.05,1.06,8.11,2.47,1.76,2.47,1.76,6.35,0,10.58-2.82,6-7.41,10.58-13.4,12.34h0A14.71,14.71,0,0,1,240.19,263.93Z" transform="translate(-0.04 -0.12)" style="fill:#4756df;fill-rule:evenodd"/><path d="M309.32,301.67A13,13,0,0,1,298,294.61a14.44,14.44,0,0,1-1.41-8.46,4.5,4.5,0,0,1-2.12.35,8.3,8.3,0,0,1-7.4-3.88,9.21,9.21,0,0,1-.71-8.11,19.1,19.1,0,0,1,2.47-3.17l-19.4-7.41a2.15,2.15,0,0,1-1.41-3.18,2.67,2.67,0,0,1,3.18-1.41l22.92,8.82a2.37,2.37,0,0,1,1.41,2.12,2.5,2.5,0,0,1-1.06,2.11c-1.41,1.41-3.17,3.18-3.52,4.24-.71,1.05-.36,2.46,0,3.52a5.34,5.34,0,0,0,3.52,1.41,32.05,32.05,0,0,0,5.65-1.05,2.36,2.36,0,0,1,2.82,1.05,2.79,2.79,0,0,1-.35,2.83c-2.12,2.11-1.41,5.64-.36,8.11a7.67,7.67,0,0,0,7.41,4.23,8.08,8.08,0,0,0,6.7-5.29c0-.71.71-1.41,1.77-1.76a3.79,3.79,0,0,1,2.11.7c2.12,2.47,7.76,2.82,10.58.71a7,7,0,0,0,1.77-8.82,2.53,2.53,0,0,1,2.47-3.88c3.87-2.47,6.7-6.35,7.05-10.58.35-4.59-2.12-9.17-6-10.94-4.23-1.76-10.58-1.05-12.34,2.12a2.48,2.48,0,0,1-3.18,1.41,2.41,2.41,0,0,1-1.41-2.82c.71-2.12-1.05-4.59-3.17-5.29-2.12-1.06-4.94-.35-7,1.06-2.83,2.11-4.94,4.58-5.65,7-.35.71-.7,1.41-1.41,1.41a2.2,2.2,0,0,1-2.11,0c-7.41-3.52-14.82-7.05-22.58-10.23-1.06-.7-1.76-2.11-1.06-3.17.36-1.41,1.77-1.76,3.18-1.41,6.7,2.82,13.75,6,20.46,9.52a22.74,22.74,0,0,1,6-7c3.88-2.47,8.47-3.18,12-1.77a10.43,10.43,0,0,1,5.65,5.29,16,16,0,0,1,14.46-.7c6,2.47,9.87,9.52,9.17,16.22-.71,5.65-4.24,10.58-9.17,14.11,1.05,4.23-.36,9.88-4.24,12.7s-9.87,2.82-14.1.7a12.93,12.93,0,0,1-9.53,5.65Z" transform="translate(-0.04 -0.12)" style="fill:#4756df;fill-rule:evenodd"/><path d="M151.31,408.18a26.54,26.54,0,0,1,0-10.58c.7-5.64,3.88-10.93,6.7-15.87l9.52-16.93c1.06-1.76,2.12-3.88,4.24-4.23,2.46-.71,4.93,1.41,6,3.53a17.31,17.31,0,0,1,.35,7.4c-.7,5.29-1.05,10.23-1.76,15.17,3.88-10.94,9.88-20.46,15.52-30.69,1.41-2.11,2.82-4.23,4.94-5.29,2.47-1.06,5.64,0,6,2.47.71-3.88,6.35-6,9.88-4.58,2.82,1.05,3.53,4.23,2.47,9.52a4.85,4.85,0,0,1,5.64,1.76c1.06,2.12,0,6-1.06,9.17,1.06,4.59,3.88,8.12,3.53,12.7a84.67,84.67,0,0,1-15.17,38.44A426.38,426.38,0,0,1,151.31,408.18Z" transform="translate(-0.04 -0.12)" style="fill:#fefefe;fill-rule:evenodd"/><path d="M205.27,419.47a77.59,77.59,0,0,0,15.52-37.74c.35-2.47-.71-4.58-1.76-7.41-.36-1.41-1.06-2.82-1.41-4.58-.36-.71-.36-1.06,0-1.41,1.41-5.65,1-7.06,1-7.41-.35-.7-1.76-.7-2.82-.7a2.14,2.14,0,0,1-2.11-.36,2.18,2.18,0,0,1-.71-2.47c.35-2.11.71-6-1.06-6.7a8.07,8.07,0,0,0-4.93.71c-1.06.7-1.77,1.41-1.77,2.11a2.64,2.64,0,0,1-2.47,2.12,2.58,2.58,0,0,1-2.47-2.12.34.34,0,0,0-.35-.35,4.5,4.5,0,0,0-2.12-.35c-1.76.7-2.82,2.82-3.87,4.58l-1.77,2.83c-5.29,9.17-10.23,17.63-13.4,27.51a2.41,2.41,0,0,1-2.82,1.41c-1.06-.36-2.12-1.41-1.77-2.47l1.41-15.17a12.32,12.32,0,0,0-.35-6.35,3.34,3.34,0,0,0-2.82-2.47c-1.06.36-2.12,2.12-2.82,3.53l-9.52,16.58c-2.83,4.94-5.65,9.87-6.71,15.16a37.9,37.9,0,0,0,.36,10.94c-1.77-.35-3.53-1.06-4.94-1.41a24.83,24.83,0,0,1,0-10.23c1.06-6.35,4.23-12,7-16.93l9.53-16.58c1.05-1.76,2.47-4.93,6-5.64s7.06,2.12,8.47,5.29a16.18,16.18,0,0,1,.7,8.11c2.12-4.58,4.94-9.17,7.41-13.75l1.76-2.82c1.41-2.47,3.18-4.94,6-6.35a6.71,6.71,0,0,1,6.35.35h.35a4.47,4.47,0,0,1,2.12-1.41c2.82-1.76,6.34-2.47,8.81-1.41s5.29,3.17,4.59,9.52a6.86,6.86,0,0,1,4.94,3.18c1.41,2.46.7,6.34-.71,10.22a37,37,0,0,0,1.41,3.53c1.06,3.17,2.47,6,2.12,9.52a85,85,0,0,1-15.17,38.45Z" transform="translate(-0.04 -0.12)" style="fill:#4756df;fill-rule:evenodd"/><path d="M194.69,384.2c-.35,0-.7,0-.7-.35-1.42-.36-1.77-1.77-1.42-3.18a88.44,88.44,0,0,0,8.12-28.57,2.25,2.25,0,0,1,2.82-2.11c1.06,0,2.11,1.41,2.11,2.47a110.68,110.68,0,0,1-8.46,30.33A2.66,2.66,0,0,1,194.69,384.2Z" transform="translate(-0.04 -0.12)" style="fill:#4756df;fill-rule:evenodd"/><path d="M204.21,391.61c-.35,0-1.05-.36-1.41-.36a2.28,2.28,0,0,1-.7-3.17,125,125,0,0,0,11.28-33.51,2.07,2.07,0,0,1,2.47-1.76,2.26,2.26,0,0,1,2.12,2.82,121.5,121.5,0,0,1-11.64,34.57C205.62,390.9,204.92,391.61,204.21,391.61Z" transform="translate(-0.04 -0.12)" style="fill:#4756df;fill-rule:evenodd"/><path d="M211.27,393.37h-1.06a2.45,2.45,0,0,1-1.06-3.53,117.33,117.33,0,0,0,9.17-25c.35-1.06,1.76-1.76,3.18-1.76a3.31,3.31,0,0,1,1.76,3.17,145.94,145.94,0,0,1-9.88,26.1A2.5,2.5,0,0,1,211.27,393.37Z" transform="translate(-0.04 -0.12)" style="fill:#4756df;fill-rule:evenodd"/><path d="M335.77,261.81c-4.58-5.64-10.58-2.47-14.81,2.12-1.41-3.53-3.88-6.35-8.11-6.35-4.94-.35-8.47,4.23-8.82,8.82-6.35-2.82-12.35-6-19-8.47a.5.5,0,0,0,0,.71c4.94,3.17,10.58,6,15.87,8.82-1.76,1.05-2.82,3.52-1.76,6.34s3.53,3.53,6,3.18c-.36,4.23.7,8.82,5.64,10.23a5.87,5.87,0,0,0,7-2.47c4.94,2.82,12-1.41,10.23-7.76C334.71,274.86,341.41,268.51,335.77,261.81Z" transform="translate(-0.04 -0.12)" style="fill:#fefefe;fill-rule:evenodd"/></g></g></svg>