<svg xmlns="http://www.w3.org/2000/svg" xmlns:xlink="http://www.w3.org/1999/xlink" viewBox="0 0 98.43 98.43"><defs><linearGradient id="New_Gradient_Swatch_1" x1="11.37" y1="-60.76" x2="11.37" y2="100.71" gradientTransform="translate(24.66 55.61) rotate(20.04)" gradientUnits="userSpaceOnUse"><stop offset="0" stop-color="#17a7bf"/><stop offset="0.99" stop-color="#007aa4"/></linearGradient><linearGradient id="New_Gradient_Swatch_1-2" x1="50.66" y1="-139.59" x2="50.66" y2="28.96" xlink:href="#New_Gradient_Swatch_1"/><linearGradient id="New_Gradient_Swatch_1-3" x1="34.82" y1="-60.76" x2="34.82" y2="100.71" xlink:href="#New_Gradient_Swatch_1"/><linearGradient id="New_Gradient_Swatch_1-4" x1="5.21" y1="-192.09" x2="5.21" y2="50.59" xlink:href="#New_Gradient_Swatch_1"/><linearGradient id="New_Gradient_Swatch_1-5" x1="23.85" y1="-192.09" x2="23.85" y2="50.6" xlink:href="#New_Gradient_Swatch_1"/><linearGradient id="New_Gradient_Swatch_1-6" x1="29.03" y1="-192.09" x2="29.03" y2="50.59" xlink:href="#New_Gradient_Swatch_1"/><linearGradient id="New_Gradient_Swatch_1-7" x1="12.37" y1="-192.09" x2="12.37" y2="50.59" xlink:href="#New_Gradient_Swatch_1"/><linearGradient id="New_Gradient_Swatch_1-8" x1="11.26" y1="-192.09" x2="11.26" y2="50.6" xlink:href="#New_Gradient_Swatch_1"/><linearGradient id="New_Gradient_Swatch_1-9" x1="-1.21" y1="-192.09" x2="-1.21" y2="50.59" xlink:href="#New_Gradient_Swatch_1"/><linearGradient id="New_Gradient_Swatch_1-10" x1="15.52" y1="-192.09" x2="15.52" y2="50.59" xlink:href="#New_Gradient_Swatch_1"/><linearGradient id="New_Gradient_Swatch_1-11" x1="37.61" y1="-192.09" x2="37.61" y2="50.6" xlink:href="#New_Gradient_Swatch_1"/><linearGradient id="New_Gradient_Swatch_1-12" x1="43.04" y1="-192.09" x2="43.04" y2="50.6" xlink:href="#New_Gradient_Swatch_1"/><linearGradient id="New_Gradient_Swatch_1-13" x1="34.02" y1="-192.09" x2="34.02" y2="50.6" xlink:href="#New_Gradient_Swatch_1"/></defs><title>_coughAsset 1</title><g id="Layer_2" data-name="Layer 2"><g id="OBJECTS"><path d="M72.44,62.93C89.39,36.3,72,23.44,72,23.44a33.8,33.8,0,0,0-6.07-4.3l.17-.33a2.85,2.85,0,0,0,1.35-5.14,2.78,2.78,0,0,0-1.79-.53,2.85,2.85,0,0,0-2.22,4.55l-.08.16A34,34,0,0,0,53.3,15.06a1.83,1.83,0,0,1-1.61-1.87l.14-4.5a1.81,1.81,0,0,1,.84-1.49,3.91,3.91,0,0,0-.85-7,4,4,0,0,0-1.7-.2,3.93,3.93,0,0,0-3.45,3.27,3.87,3.87,0,0,0,1.55,3.76A1.83,1.83,0,0,1,49,8.59l-.14,4.53a1.82,1.82,0,0,1-1.7,1.77,34.11,34.11,0,0,0-7.4,1.29L39.67,16a.38.38,0,0,1,.06-.34A2.85,2.85,0,1,0,37,16.87l.07.2a34.19,34.19,0,0,0-9.65,5.65A1,1,0,0,1,26,22.63l-4-4.26a1,1,0,0,1-.23-1,3.88,3.88,0,0,0-1.06-4,3.91,3.91,0,0,0-5.5,5.54A3.88,3.88,0,0,0,19,20a1,1,0,0,1,.94.29l4,4.28a1,1,0,0,1,0,1.35,34.28,34.28,0,0,0-4.7,6.5.19.19,0,0,1-.25.08l-.17-.09a.18.18,0,0,1-.11-.14A2.83,2.83,0,0,0,16.91,30a2.85,2.85,0,0,0-2.22,5.24,2.83,2.83,0,0,0,3-.27l.29.15a34.13,34.13,0,0,0-2.85,11,.78.78,0,0,1-.81.73l-6.21-.19a.77.77,0,0,1-.69-.45A3.9,3.9,0,0,0,4,44a4,4,0,0,0-4,3.6,3.9,3.9,0,0,0,7.28,2.25A.84.84,0,0,1,8,49.46l6.24.19a.8.8,0,0,1,.76.77,34.71,34.71,0,0,0,1.23,7.94.36.36,0,0,1-.22.43h0a.37.37,0,0,1-.32-.06,2.84,2.84,0,0,0-4.42,2.9,2.85,2.85,0,0,0,5.57,0,.35.35,0,0,1,.24-.27l.15,0a34.41,34.41,0,0,0,5.3,9.23,1.4,1.4,0,0,1-.13,1.9l-3.85,3.62a1.44,1.44,0,0,1-1.35.33,3.89,3.89,0,0,0-3.82,1.12,3.91,3.91,0,1,0,6.69,1.94,1.45,1.45,0,0,1,.41-1.33l3.85-3.62a1.39,1.39,0,0,1,1.91,0,34.48,34.48,0,0,0,6.05,4.39.37.37,0,0,1,.15.48l-.18.36A.4.4,0,0,1,32,80a2.85,2.85,0,1,0,2.82,1.42.36.36,0,0,1,0-.35l.18-.36a.36.36,0,0,1,.47-.16A34.06,34.06,0,0,0,46,83.27a.77.77,0,0,1,.7.8l0,.81q1.44-.43,2.91-1a.77.77,0,0,1,.69-.47l.57,0C58.76,80.08,65.6,73.67,72.44,62.93Z" style="fill:url(#New_Gradient_Swatch_1)"/><path d="M49.56,83.89l1.26-.5-.57,0A.77.77,0,0,0,49.56,83.89Z" style="fill:none"/><path d="M85,51.81l4.8.15a1.63,1.63,0,0,1,1.36.76,3.9,3.9,0,0,0,7.23-2.08A3.93,3.93,0,0,0,94.9,46.8a3.88,3.88,0,0,0-3.57,1.65,1.68,1.68,0,0,1-1.4.69L85.16,49a1.68,1.68,0,0,1-1.62-1.6,34.11,34.11,0,0,0-1.11-7.12.46.46,0,0,1,.29-.54l.12,0a.49.49,0,0,1,.42.08,2.83,2.83,0,0,0,2.87.34,2.85,2.85,0,0,0-2-5.31,2.81,2.81,0,0,0-1.83,1.9A.48.48,0,0,1,82,37l-.1,0a.45.45,0,0,1-.56-.26,34,34,0,0,0-5-8.78,1.91,1.91,0,0,1,.2-2.57l2.78-2.61A3.18,3.18,0,0,1,81.82,22a3.53,3.53,0,0,0,.65,0,3.84,3.84,0,0,0,2.74-1.34,3.93,3.93,0,1,0-6.91-2.26,2.76,2.76,0,0,1-.85,2.23l-3,2.77a1.84,1.84,0,0,1-2.49.05s11.15,5.87.9,34c-4.36,12-14.15,22.67-22.09,26a33.86,33.86,0,0,0,7.43-1.14.32.32,0,0,1,.38.21l.15.44a.35.35,0,0,1-.06.31,2.83,2.83,0,0,0-.37,2.92,2.84,2.84,0,1,0,3.34-3.9.33.33,0,0,1-.23-.21l-.14-.43a.31.31,0,0,1,.19-.4,34.21,34.21,0,0,0,9.19-5.27,1.28,1.28,0,0,1,1.72.12l3.73,4a1.31,1.31,0,0,1,.3,1.23,3.9,3.9,0,0,0,1.1,3.89,3.91,3.91,0,0,0,5.51-5.54,3.9,3.9,0,0,0-3.65-1.14,1.27,1.27,0,0,1-1.2-.37L74.5,74.13a1.28,1.28,0,0,1,0-1.74,34.69,34.69,0,0,0,4.5-6.1.41.41,0,0,1,.54-.16l.2.1a.42.42,0,0,1,.22.3,2.85,2.85,0,1,0,1.44-2.83.41.41,0,0,1-.4,0l-.17-.08a.41.41,0,0,1-.19-.54,34.07,34.07,0,0,0,2.7-9.78A1.68,1.68,0,0,1,85,51.81Z" style="fill:url(#New_Gradient_Swatch_1-2)"/><path d="M46.48,90.35A.79.79,0,0,1,46,91a3.91,3.91,0,0,0-2.18,3.38,4,4,0,0,0,3.6,4,3.9,3.9,0,0,0,2.24-7.28.79.79,0,0,1-.4-.7l.19-6.27a.89.89,0,0,1,.07-.28q-1.47.56-2.91,1Z" style="fill:url(#New_Gradient_Swatch_1-3)"/><path d="M38.12,52.64a6.41,6.41,0,1,1-3.82-8.23A6.41,6.41,0,0,1,38.12,52.64Z" style="fill:url(#New_Gradient_Swatch_1-4)"/><path d="M58.78,43.23a4,4,0,1,1-2.36-5.09A4,4,0,0,1,58.78,43.23Z" style="fill:url(#New_Gradient_Swatch_1-5)"/><path d="M57,59.54A2.74,2.74,0,1,1,55.41,56,2.74,2.74,0,0,1,57,59.54Z" style="fill:url(#New_Gradient_Swatch_1-6)"/><path d="M50.06,27.3A1.79,1.79,0,1,1,49,25,1.78,1.78,0,0,1,50.06,27.3Z" style="fill:url(#New_Gradient_Swatch_1-7)"/><path d="M43.56,41.89a1.79,1.79,0,1,1-1.07-2.3A1.79,1.79,0,0,1,43.56,41.89Z" style="fill:url(#New_Gradient_Swatch_1-8)"/><path d="M33.46,33.21a1.79,1.79,0,1,1-1.07-2.3A1.79,1.79,0,0,1,33.46,33.21Z" style="fill:url(#New_Gradient_Swatch_1-9)"/><path d="M38.7,67.64a1.79,1.79,0,1,1-1.07-2.3A1.79,1.79,0,0,1,38.7,67.64Z" style="fill:url(#New_Gradient_Swatch_1-10)"/><path d="M59.65,74.68a1.79,1.79,0,1,1-1.07-2.3A1.8,1.8,0,0,1,59.65,74.68Z" style="fill:url(#New_Gradient_Swatch_1-11)"/><path d="M72.8,54.47a1.79,1.79,0,1,1-1.07-2.3A1.79,1.79,0,0,1,72.8,54.47Z" style="fill:url(#New_Gradient_Swatch_1-12)"/><path d="M70,36a1.79,1.79,0,1,1-1.07-2.3A1.79,1.79,0,0,1,70,36Z" style="fill:url(#New_Gradient_Swatch_1-13)"/></g></g></svg>