<svg id="Layer_1" data-name="Layer 1" xmlns="http://www.w3.org/2000/svg" viewBox="0 0 390.65 394.65"><title>cough</title><g id="Layer_1-2" data-name="Layer_1"><g id="_2201833287664" data-name=" 2201833287664"><path d="M81.92,18.75C64.43,30.91,51,49.92,48.72,71.21c-3.55,29.9,13.69,61.07,3,89.19C42.39,185.49,14,198.92,3.87,223.75c-5.83,14.45-4.31,31.17,0,46.38C18.31,319.79,61.65,357.29,110,375.79S211.66,396.07,263.35,394c21.79-.76,43.84-2.54,64.11-10.64a107.08,107.08,0,0,0,49.92-42.32c5.07-8.62,9.12-18.25,9.63-28.13.76-18-9.63-34-14.19-51.19-13.68-49.66,20.27-100.6,17.74-152a108.31,108.31,0,0,0-11.15-42.57c-6.34-12.42-15.2-23.82-26.86-31.42C320.37,15,279.32,27.62,243.84,19.51,225.85,15.46,210.39,3.8,192.4,1,177.2-1,160,.76,144.76.76,122.71,1.27,100.42,6.08,81.92,18.75Z" transform="translate(-0.05 -0.04)" style="fill:#d7dbfa;fill-rule:evenodd"/><path d="M348.49,365.66c-7.6-41.05-37-92.49-42.31-87.93-4.82,4.3-12.17,9.12-16.47,13.93-4.06,4.31-8.11,9.13-9.38,15.71-1,4.31-.51,9.13.25,13.69,2.79,23.56,5.58,46.88,8.62,70.44v.76c13.18-1.52,26.1-4.05,38.26-8.86a107.11,107.11,0,0,0,21.8-12.17C349,369.46,348.75,367.68,348.49,365.66Z" transform="translate(-0.05 -0.04)" style="fill:#fefefe;fill-rule:evenodd"/><path d="M307.19,280.26a48.21,48.21,0,0,1-5.32,4.06,135.57,135.57,0,0,0-10.39,8.86c-3.55,4.06-7.6,8.62-8.87,14.7-.76,4.06-.25,8.62.25,12.93,3,23.56,5.83,46.87,8.62,70.44l.25.76a34.71,34.71,0,0,1-5.06.51v-.76c-3.05-23.32-5.83-46.88-8.62-70.45-.51-4.56-1.27-9.63-.25-14.44,1.26-7.1,5.57-12.42,10.13-17,3-3.29,7.1-6.33,10.9-9.38,2-1.77,4.05-3.29,5.57-4.56a3.46,3.46,0,0,1,4.06-.5c9.63,3.29,35.47,52.2,42.57,89.95h0a22.55,22.55,0,0,1,.51,4.06,50.11,50.11,0,0,1-4.57,3.29c-.25-2-.5-4.31-1-6.59h0C339.12,328.91,314,283.56,307.19,280.26Z" transform="translate(-0.05 -0.04)" style="fill:#4756df;fill-rule:evenodd"/><path d="M267.41,373.51a54.69,54.69,0,0,0-4.82-7.85c-26.35-37.25-60.31-53.72-93.76-59.81-18-3.29-36-3.8-54-3.29s-40.54-2-53,18c-4.56,7.1-6.08,15.71-5.83,24.58a203.49,203.49,0,0,0,54,30.66c48.4,18.5,101.62,20.28,153.31,18.25,2.79,0,5.58-.26,8.36-.26A41.25,41.25,0,0,0,267.41,373.51Z" transform="translate(-0.05 -0.04)" style="fill:#fefefe;fill-rule:evenodd"/><path d="M125.76,305.09H108.27c-16.72.26-34.21.26-44.34,16.73-4.06,6.59-5.83,15.46-5.07,25.34-1.78-1.27-3.55-2.79-5.32-4.06.25-9.12,2-17.48,6.08-23.82,11.65-19,32.18-19,48.65-19a58.08,58.08,0,0,0,6.59-.25c21.79-.51,38.52.5,54.48,3.54,39.78,7.1,71.71,27.62,95.28,60.82a53.58,53.58,0,0,1,5.07,8.11h0a49,49,0,0,1,4.56,21c-1.78,0-3.3.25-5.07.25a39.44,39.44,0,0,0-4.05-19.25,82.84,82.84,0,0,0-4.57-7.35c-22.8-32.18-53.72-51.95-92.23-58.79C155.66,306.11,142.23,305.09,125.76,305.09Z" transform="translate(-0.05 -0.04)" style="fill:#4756df;fill-rule:evenodd"/><path d="M149.32,263.54A178.77,178.77,0,0,1,122,174.85c-11.91-15.71-19.76-35.48-19.25-55,.76-19.51,14.19-39.53,33.45-42.32,8.61-1.52,17.23.51,25.84,0,12.67-.76,24.08-7.09,35-13.68,10.64-6.59,21.54-13.43,34-16,12.41-2.28,26.86,1,33.7,11.41,3.29,4.81,4.56,10.64,7.6,15.45,4.31,6.59,11.15,10.65,18,14.19s13.94,6.85,19.26,12.42,8.36,13.94,5.32,21c-3.55,8.62-15.2,13.69-14.19,23.06,1,7.35,10.14,11.66,10.64,19.26.51,6.08-4.81,10.64-9.88,14.44-26.35,19-52.45,38-78.81,57.27-10.64,7.6-21.53,15.46-33.7,20.78C176.44,262.27,161.74,267.59,149.32,263.54Z" transform="translate(-0.05 -0.04)" style="fill:#4756df;stroke:#4756df;stroke-width:0.8522199988365173px;fill-rule:evenodd"/><path d="M150.84,261.51c11.66,3.29,25.09-1.77,37-6.84,11.91-4.82,22.8-12.67,33.19-20.27l78.81-57.27c4.56-3.55,9.38-7.61,9.12-12.42-.25-2.79-2.53-5.57-4.81-8.11-2.79-3.29-5.32-6.59-6.08-10.89-.76-6.59,3.8-11.41,8.11-16,2.53-2.53,5.06-5.32,6.33-8.36,2.79-6.34-.5-13.68-4.81-18.25-4.56-4.56-10.65-7.85-16.47-10.89l-2.28-1c-7.1-3.8-14.19-8.1-18.76-15a47.59,47.59,0,0,1-3.8-8.11,65.91,65.91,0,0,0-3.8-7.34C256,50.68,242.32,48.4,231.42,50.43c-11.15,2-21.28,8.36-31.16,14.19l-2,1.26c-10.9,6.59-22.81,13.18-36,14.19a88,88,0,0,1-11.66-.25,85.31,85.31,0,0,0-13.94,0c-19,2.79-30.91,22.55-31.42,40-.51,17.74,6.34,37,18.75,53.47l.26.5.25.76A176.15,176.15,0,0,0,150.84,261.51Zm7.86,6.08a34,34,0,0,1-10.14-1.52l-1-.25-.51-1a181.78,181.78,0,0,1-27.62-89.19c-12.67-17-19.76-37.25-19.26-55.75.76-19.51,14.19-41.81,35.73-44.85a74.3,74.3,0,0,1,15-.26A81.42,81.42,0,0,0,162,75c11.91-.76,23.31-7.1,33.7-13.43l2-1.27c10.14-6.08,20.78-12.42,32.69-15,12.42-2.28,28.38.76,36.49,12.67,1.77,2.53,2.79,5.57,4.05,8.11a33.37,33.37,0,0,0,3.55,7.35c3.8,6.08,10.64,10.13,17,13.17l2,1.27c6.33,3,12.67,6.59,17.73,11.66,5.58,5.82,9.63,15.45,5.83,23.82-1.52,3.8-4.56,6.84-7.35,9.88-3.8,4.05-7.09,7.6-6.58,11.91.25,2.79,2.53,5.32,4.81,8.11,2.79,3.29,5.58,6.59,5.83,11.15.51,7.09-5.32,12.41-10.9,16.72l-78.8,57.27c-10.65,7.6-21.8,15.71-34.47,21C180,263.54,169.09,267.59,158.7,267.59Z" transform="translate(-0.05 -0.04)" style="fill:#4756df;fill-rule:evenodd"/><path d="M271.71,179.15c1.78,21.8,2.54,44.6.76,66.4-1.26,14.69-7.09,30.15-19,39.53-14.95,11.91-34.21,8.36-51.69,7.09-2,0-13.94,48.91-15.21,54.23-12.67,5.57-28.38,4.05-40.29-3a44.62,44.62,0,0,1-21-33.45c7.6-16.47,23.82-46.88,25.59-66.9-8.61,0-17.48-4.81-23.31-11.4-3.8-4.56-5.32-10.64-3.29-16.22,3-8.36,11.4-9.88,18.49-8.11a50.55,50.55,0,0,1,12.93,6.08c-.51-24.07,2.53-30.66,12.67-52.45,3-6.59,1.77-14.44.5-22.3a8.8,8.8,0,0,1,7.86-10.14c18.5-1.52,38-3.8,56-5.06,11.15-.76,23.82-1,31.93,6.84,3.8,3.55,4.05,20.78,4.81,26.35C270.19,164,271.21,171.55,271.71,179.15Z" transform="translate(-0.05 -0.04)" style="fill:#fefefe;fill-rule:evenodd"/><path d="M127.78,310.16a42,42,0,0,0,19.77,31.17c11.15,6.59,25.59,7.86,36.74,3.29l.51-1.52c13.17-53.46,14.44-53.46,17-53.46a54,54,0,0,1,6.58.5c15.46,1.27,31.43,2.79,43.59-6.84,10.14-8.11,16.72-22,18-38,1.52-19.26,1.27-40.8-.76-65.88-.51-7.35-1.27-14.95-2.28-22.56-.25-1.26-.25-3.29-.51-5.32-.25-5.82-1.26-17.48-3.54-19.51-7.1-7.09-18.76-6.84-29.91-6.08-10.39.76-21.79,1.77-32.68,2.79-7.86.76-15.72,1.77-23.32,2.28a5.92,5.92,0,0,0-4.31,2.53,5.47,5.47,0,0,0-1.26,4.82c1.26,7.6,2.53,16.21-.76,23.56-10.14,21.8-12.93,27.62-12.42,51.44v4.56l-3.8-2.28c-4-2.53-8.11-4.81-12.42-5.82-5.82-1.52-12.67-.51-15.45,6.58-1.52,4.31-.26,9.63,3,13.43,5.57,6.59,13.68,10.65,21,10.65h3l-.25,2.78c-1.52,18-14.19,43.59-22.56,60.82C129.56,306.36,128.54,308.39,127.78,310.16Zm42.07,42.07A51.33,51.33,0,0,1,145,345.64a47.24,47.24,0,0,1-22.3-35.73v-.51l.26-.76c1-2,2-4.31,3.29-6.84,7.86-16,19.51-39.53,21.79-56.51-7.85-.76-16.47-5.32-22.29-12.16-4.57-5.32-6.09-12.42-3.81-18.5,3.55-10.39,13.69-11.66,21.29-9.88a42.74,42.74,0,0,1,9.88,4.31c0-21.54,3.55-29.15,12.93-49.42,2.78-5.83,1.52-13.17.25-20.52a11.5,11.5,0,0,1,2.28-8.62,12.55,12.55,0,0,1,8.11-4.56c7.6-.51,15.46-1.27,23.31-2,10.64-1,22.05-2.28,32.44-3,11.91-.76,25.08-1,33.95,7.35,3.3,3.29,4.31,12.42,5.07,22.81,0,2.28.25,4.05.25,5.32,1,7.6,1.78,15.2,2.54,22.55h0c2,25.59,2.28,47.39.76,66.9-1.52,17.23-8.62,32.43-20,41.3-13.68,10.9-31.42,9.38-47.13,8.11a31.54,31.54,0,0,0-4.82-.51c-1.26,3.05-4.56,13.94-13.43,49.67l-1,3.8-1,.51A46.23,46.23,0,0,1,169.85,352.23Z" transform="translate(-0.05 -0.04)" style="fill:#4756df;fill-rule:evenodd"/><path d="M151.6,230.59a2.24,2.24,0,0,1-2-1.26,23.45,23.45,0,0,0-13.18-10.9,2.61,2.61,0,0,1-1.78-3,2.54,2.54,0,0,1,3.3-1.52,26.62,26.62,0,0,1,16,13.18,2.23,2.23,0,0,1-1,3.29A2.32,2.32,0,0,1,151.6,230.59Z" transform="translate(-0.05 -0.04)" style="fill:#4756df;fill-rule:evenodd"/><path d="M207.86,192.84c-6.59,0-12.67-3.8-15-9.63a2.52,2.52,0,0,1,1.26-3.3,2.66,2.66,0,0,1,3.3,1.52c1.52,4.06,6.33,6.85,11.15,6.59,4.56-.5,8.87-4.05,9.63-8.11a2.77,2.77,0,0,1,3-2,2.94,2.94,0,0,1,2,3c-1.52,6.33-7.6,11.4-14.44,11.91Z" transform="translate(-0.05 -0.04)" style="fill:#4756df;fill-rule:evenodd"/><path d="M253.47,190.81a15.63,15.63,0,0,1-14.19-9.88c-.25-1.27.25-2.79,1.52-3a2.51,2.51,0,0,1,3.29,1.26,10.44,10.44,0,0,0,10.14,6.59c4-.5,8.11-3.8,8.87-8.11a2.17,2.17,0,0,1,2.79-1.77,2.32,2.32,0,0,1,2,2.79,15.09,15.09,0,0,1-13.43,11.91A1.53,1.53,0,0,1,253.47,190.81Z" transform="translate(-0.05 -0.04)" style="fill:#4756df;fill-rule:evenodd"/><path d="M190.37,158.38h-1a2.72,2.72,0,0,1-2.53-2.54,2.75,2.75,0,0,1,2.78-2.53,29.79,29.79,0,0,0,24.08-11.41,2.67,2.67,0,0,1,3.54-.5,2.46,2.46,0,0,1,.26,3.55A34.61,34.61,0,0,1,190.37,158.38Z" transform="translate(-0.05 -0.04)" style="fill:#4756df;fill-rule:evenodd"/><path d="M257.27,152.8a34.6,34.6,0,0,1-20.78-7.35,2.52,2.52,0,0,1,3.3-3.8,27.65,27.65,0,0,0,20.77,5.83,2.57,2.57,0,0,1,2.79,2.28,2.51,2.51,0,0,1-2,2.79A20.68,20.68,0,0,1,257.27,152.8Z" transform="translate(-0.05 -0.04)" style="fill:#4756df;fill-rule:evenodd"/><path d="M245.11,245.29a2.48,2.48,0,0,1-2.54-2,2.37,2.37,0,0,1,2-2.78,18.51,18.51,0,0,0,7.86-3.55c1.26-1,3-2.53,3.29-4.56.25-2.54-1.52-5.32-3.29-7.86l-7.61-10.64a2.77,2.77,0,0,1,.51-3.55,2.5,2.5,0,0,1,3.55.76l7.6,10.65c2.53,3.29,4.81,7.09,4.05,11.4-.25,2.79-2.28,5.57-5.32,7.85a19.59,19.59,0,0,1-9.63,4.31Z" transform="translate(-0.05 -0.04)" style="fill:#4756df;fill-rule:evenodd"/><path d="M237,255.93a16.93,16.93,0,0,0-11.91,8.62c-1.52,2.79-1.78,5.07-1,5.83.5,1,2.53,1,3.54,1a17.78,17.78,0,0,0,14.19-8.61c1-1.78,1.78-4.31.51-5.83-1-1.27-3.55-1.52-5.32-1Zm-9.88,20.53c-4.31,0-6.34-1.77-7.35-3.55-1.78-2.53-1.27-6.59,1-10.64,3.55-6.08,8.87-10.14,15.2-11.4h0c4.57-.76,8.37.5,10.39,3,2.28,3,2,7.09-.25,11.15-3.55,6.59-10.9,10.89-18.24,11.4Z" transform="translate(-0.05 -0.04)" style="fill:#4756df;fill-rule:evenodd"/><path d="M260.06,302.56c-4.82,1.77-10.39-1.27-12.42-5.83-2.28-4.56-1.77-9.88-.51-15,2.54-11.91,10.39-23.82,22.3-26.35,6.85-1.27,13.94.76,19.77,4.31s10.9,8.36,15.71,13.17c4.81,4.56,8.36,10.14,11.4,15.71s5.07,12.17,4.56,18.5a25.73,25.73,0,0,1-9.12,17,25.28,25.28,0,0,1-18.5,5.07Z" transform="translate(-0.05 -0.04)" style="fill:#fefefe;fill-rule:evenodd"/><path d="M294.27,326.89a22.64,22.64,0,0,0,16-4.82,22.14,22.14,0,0,0,8.11-14.95c.51-5.32-1-11.4-4.31-17.23-2.28-4.31-5.83-10.39-10.89-15.2-4.57-4.56-9.63-9.38-15.21-12.93-6.08-3.54-12.41-4.81-18-3.8-11.4,2.28-18.24,14.7-20.52,24.58-1.27,5.58-1,9.88.5,12.93,1.52,3.54,5.58,6.08,9.12,4.81a3,3,0,0,1,2.54.25Zm2.28,5.06c-1.27,0-2.28-.25-3.55-.25-.51,0-.76-.25-1.27-.51l-32.18-25.84c-5.83,1.26-11.91-2.54-14.19-7.6-2-4.31-2.28-9.63-.76-16.48,2.53-11.4,10.64-25.59,24.33-28.12,6.84-1.27,14.44.25,21.54,4.31,6.08,3.8,11.4,8.86,16.21,13.68,5.33,5.07,9.38,11.91,11.91,16.22,3.55,6.84,5.32,13.68,4.82,20a26.2,26.2,0,0,1-10.14,18.5A25.62,25.62,0,0,1,296.55,332Z" transform="translate(-0.05 -0.04)" style="fill:#4756df;fill-rule:evenodd"/><path d="M273,276.21a46.82,46.82,0,0,0-11.15,21.28c-.76,3-1.27,6.34-.25,9.38s4.05,5.57,7.09,5.07Z" transform="translate(-0.05 -0.04)" style="fill:#fefefe;fill-rule:evenodd"/><path d="M268.17,314.47c-4.31,0-7.61-3.29-8.87-6.84a18.88,18.88,0,0,1,0-10.64A52.34,52.34,0,0,1,271,274.69a2.52,2.52,0,0,1,3.81,3.29,46.58,46.58,0,0,0-10.65,20,17.42,17.42,0,0,0-.25,8.11c.76,1.77,2.53,3.55,4.56,3.55a2.38,2.38,0,0,1,2.79,2c0,1.52-.76,2.79-2.28,2.79Z" transform="translate(-0.05 -0.04)" style="fill:#4756df;fill-rule:evenodd"/><path d="M281.09,287.36a49.62,49.62,0,0,0-11.15,21c-.76,3-1,6.59,0,9.37,1,3.05,3.8,5.58,7.1,5.33Z" transform="translate(-0.05 -0.04)" style="fill:#fefefe;fill-rule:evenodd"/><path d="M276.53,325.62c-4.31,0-7.86-3.29-9.12-6.84-1.27-4.06-.51-7.86.25-10.9a52.48,52.48,0,0,1,11.66-22.3,2.52,2.52,0,0,1,3.8,3.3,44.86,44.86,0,0,0-10.65,20.27c-.5,2.28-1.26,5.32-.25,7.85.76,2,2.54,3.81,4.56,3.55a2.55,2.55,0,0,1,.51,5.07Z" transform="translate(-0.05 -0.04)" style="fill:#4756df;fill-rule:evenodd"/><path d="M289,293.94a49.5,49.5,0,0,0-11.15,21,16.78,16.78,0,0,0,0,9.37c1,3,3.8,5.58,7.09,5.32,5.07-.5,11.15-1.52,15.46-4.56-.51-2.53-1.78-5.57-4.31-6.33-2,.5-4.56.5-6.59,1,5.83-1,11.15-6.33,12.67-11.91Z" transform="translate(-0.05 -0.04)" style="fill:#fefefe;fill-rule:evenodd"/><path d="M284.13,332.21c-4.05,0-7.6-3.55-8.87-7.1-1.26-3.8-.5-7.6.26-10.64a49.84,49.84,0,0,1,11.65-22.3,2.52,2.52,0,1,1,3.8,3.3,44.74,44.74,0,0,0-10.64,20.27c-.76,2.28-1.27,5.32-.25,7.85.76,1.78,2.53,3.8,4.56,3.55,4.56-.51,9.37-1.27,12.92-3.29a6.5,6.5,0,0,0-1.77-2.54c-1,.26-1.78.26-2.79.51a3.25,3.25,0,0,0-1.52.25c-.51,0-1,.26-1.52.26a2.34,2.34,0,0,1-2.79-1.78,2.61,2.61,0,0,1,1.78-3,2.29,2.29,0,0,1,1.26-.25,16,16,0,0,0,9.63-10.14,2.6,2.6,0,0,1,3-1.77,2.75,2.75,0,0,1,1.78,3,19.81,19.81,0,0,1-5.58,9.12,11.85,11.85,0,0,1,3.55,7.35,2.56,2.56,0,0,1-.76,2.28c-4.82,3.29-10.9,4.31-16.73,5.07Z" transform="translate(-0.05 -0.04)" style="fill:#4756df;fill-rule:evenodd"/><polygon points="317.79 252.85 289.15 248.54 289.91 243.48 309.93 246.52 304.61 233.34 336.03 233.34 336.03 238.41 311.96 238.41 317.79 252.85" style="fill:#4756df;fill-rule:evenodd"/><polygon points="243.54 350.16 238.72 326.85 249.87 326.85 243.79 310.12 248.35 308.35 257.22 331.91 244.81 331.91 248.61 349.14 243.54 350.16" style="fill:#4756df;fill-rule:evenodd"/></g></g></svg>