<svg xmlns="http://www.w3.org/2000/svg" viewBox="0 0 282.91 334.41"><title>_coughAsset 1</title><g id="Layer_2" data-name="Layer 2"><g id="OBJECTS"><path d="M52.78,216.18c-17.07,0-33.94-3-43.44-11.86C-6.91,189.1,1.57,168.12,8.42,159l25.41-39.47,7.57,4.88-25.7,39.9c-.6.79-14.68,19.88-.21,33.43,15,14,62.84,10.07,83.07,2.62,18.6-6.86,139.43-63.29,140.65-63.85l3.81,8.15c-5,2.33-122.39,57.16-141.35,64.15C92.41,212.23,72.45,216.18,52.78,216.18Z" style="fill:#1f3860"/><path d="M37.62,122A49.13,49.13,0,0,0,105,105.56L132,61.3a21.47,21.47,0,0,0-7.18-29.48l-2.37-1.45-5.36,8.81,2.37,1.44A11.17,11.17,0,0,1,123.16,56L96.24,100.2A38.77,38.77,0,1,1,30,59.91L56.92,15.66a11.16,11.16,0,0,1,15.33-3.74l3.31,2,5.35-8.8-3.31-2A21.47,21.47,0,0,0,48.12,10.3L21.2,54.56A49.11,49.11,0,0,0,37.62,122Z" style="fill:#003d64"/><path d="M100,23.49h0a9.43,9.43,0,0,0,3.16,13l8.06,4.91a9.44,9.44,0,0,0,13-3.16h0a9.43,9.43,0,0,0-3.16-13l-8.07-4.91A9.43,9.43,0,0,0,100,23.49Z" style="fill:#1f3860"/><path d="M70.52,5.59h0a9.43,9.43,0,0,0,3.16,13l8.07,4.91a9.43,9.43,0,0,0,13-3.16h0a9.43,9.43,0,0,0-3.16-13L83.49,2.43A9.43,9.43,0,0,0,70.52,5.59Z" style="fill:#1f3860"/><path d="M263.6,159.53a99.28,99.28,0,0,1-30.39,50.71l-77.74,69.35L79,210.22a99,99,0,0,1-30.39-50.69c-3.16-13.37-2.12-21.55-1.86-23.12,3.2-35.25,28.15-60.82,59.38-60.82,20.46,0,38.74,11,49.35,29.13a59.06,59.06,0,0,1,50.56-29.13c31.23,0,56.19,25.57,59.38,60.82C265.7,138,266.75,146.18,263.6,159.53Z" style="fill:#db3e67"/><path d="M227.53,292.59h16.58a0,0,0,0,1,0,0v22a0,0,0,0,1,0,0H227.53a5.42,5.42,0,0,1-5.42-5.42V298a5.42,5.42,0,0,1,5.42-5.42Z" transform="translate(-88.08 95.4) rotate(-19.53)" style="fill:#1f3860"/><ellipse cx="259.91" cy="294.13" rx="21.77" ry="33.65" transform="translate(-73.74 87.39) rotate(-16.75)" style="fill:#112644"/><ellipse cx="260.76" cy="293.88" rx="17.78" ry="28.85" transform="matrix(0.96, -0.29, 0.29, 0.96, -73.64, 87.62)" style="fill:#fff"/><rect x="1.31" y="137.29" width="47.11" height="9" transform="translate(-107.81 85.94) rotate(-57.23)" style="fill:#003d64"/><path d="M265.25,121a5.12,5.12,0,0,0-2.83.18,66.93,66.93,0,0,1,2.39,10.06c1.57.55,2.74,1.4,2.91,3.11.26,2.67-1,5.82-1.85,8.29a85.15,85.15,0,0,1-6.9,14.77c-6.33,10.88-15.14,20.11-24.76,28.16-23,19.23-51.3,32.24-79.64,41.36q-12.82,4.14-26,7.18c-4.17,1-8.37,2-12.6,2.65a15.87,15.87,0,0,1-4.61.28l-1.74-.25-8.33-6.28a5.45,5.45,0,0,0-1,1.71c-3,7.94,2.58,14.05,10.42,14.77,8.46.77,17.95-2.54,26.08-4.57a318.19,318.19,0,0,0,55-19.25c29.8-13.65,61.46-33.59,77.32-63.39C275.51,147.67,285.72,125.15,265.25,121Z" style="fill:#1f3860"/><path d="M234.93,297.49c-19.4,7.21-37.05,18.94-57.11,24.32-17.23,4.62-38.48,4.13-50-11.59-4.29-5.86-7-13.41-5.56-20.71,1.47-7.59,7.13-13.17,13.6-16.88,14.16-8.12,31.26-10.39,46.42-16.1,16.43-6.19,31-15.17,43-27.86,8.16-6.94,3.87-14.75,3.87-14.75l-3.5,3.05-1.08,1c-4.84,4.09-17.92,15-23.41,17.83a118,118,0,0,1-27.14,13.08c-16.18,5.52-34.79,8.07-48.65,18.77-14.2,11-17.07,29.41-8.05,44.73,10.1,17.18,29.88,23.66,49,21.65,25.94-2.72,47.34-18,71.25-26.91C243.56,304.92,241,295.25,234.93,297.49Z" style="fill:#1f3860"/></g></g></svg>