<svg xmlns="http://www.w3.org/2000/svg" viewBox="0 0 131.07 144.32"><title>_coughAsset 6</title><g id="Layer_2" data-name="Layer 2"><g id="OBJECTS"><path d="M73.11,0a47.08,47.08,0,0,1,7.55.63A39.34,39.34,0,0,1,93.58,5.17a33.22,33.22,0,0,1,5.58,4,33.61,33.61,0,0,1,4.59,5,39.05,39.05,0,0,1,3.43,5.55c.47.92.93,1.91,1.4,3,.28.67.53,1.35.79,2,.16.45.33.89.5,1.33a21.88,21.88,0,0,0,2.66,4.84,23.57,23.57,0,0,0,4.36,4.24c.9.7,1.82,1.36,2.75,2l1.58,1.14a27.25,27.25,0,0,1,4.89,4.28,11.59,11.59,0,0,1,1.7,2.67,7.82,7.82,0,0,1,.7,3.22,6.84,6.84,0,0,1-.81,3c-.19.39-.4.77-.61,1.14s-.53,1-.75,1.46l0-.13-.07.12h0a7,7,0,0,0-.36,1.26,5.92,5.92,0,0,0,0,1.19,8.09,8.09,0,0,0,.45,1.7,22,22,0,0,0,1.9,3.39,25.39,25.39,0,0,1,1.75,3,14.2,14.2,0,0,1,.75,8.19,27.82,27.82,0,0,1-2.75,8.19,31.61,31.61,0,0,1-4.24,6.34,42.77,42.77,0,0,1-11.89,9.38,81.52,81.52,0,0,1-14,6l-1.68.54a1.33,1.33,0,0,1-.24.12,19,19,0,0,1-3.48.86,36.58,36.58,0,0,1-3.93.4c-1.17.07-2.45.1-4,.1l-2.75,0-1.17,0H80.1l-2.27,0-2.06,0h-.28c-1.2,0-2.39,0-3.58-.06a130.6,130.6,0,0,1-19-2,89.46,89.46,0,0,1-10-2.36,59.24,59.24,0,0,1-9.25-3.59c-6.2-3.08-10.41-7-12.49-11.62a17.19,17.19,0,0,1-1.26-4,19,19,0,0,1-.28-4.49,24.24,24.24,0,0,1,.84-5c.11-.44.25-.89.4-1.32a12.92,12.92,0,0,1,.71-1.62,24.81,24.81,0,0,1,1.73-2.75l.27-.4a21.14,21.14,0,0,0,2.11-3.47,8.26,8.26,0,0,0,.51-1.77,6.84,6.84,0,0,0,0-1.43,8.13,8.13,0,0,0-.34-1.33c-.07-.22-.16-.43-.25-.64l-.11-.26q-.2-.48-.36-1a23.94,23.94,0,0,1-1-3.51A17.13,17.13,0,0,1,23.71,49a14.63,14.63,0,0,1,.39-3.41,18.84,18.84,0,0,1,3.26-6.72c.88-1.22,1.88-2.39,2.84-3.51.72-.83,1.45-1.69,2.14-2.57.54-.71,1-1.39,1.44-2.07A19.41,19.41,0,0,0,35.15,28c.66-1.61,1.16-3.31,1.65-5,.34-1.12.68-2.27,1.07-3.4a26.13,26.13,0,0,1,3.32-6.46,20.78,20.78,0,0,1,5-5.09,13.48,13.48,0,0,1,3.07-1.58,10.38,10.38,0,0,1,3.36-.63h.24a10.67,10.67,0,0,1,2,.22C57.63,3.25,61.6,1.37,66.75.51A38.64,38.64,0,0,1,73.11,0" style="fill:#3a0241"/><path d="M63.72,11.57a44.23,44.23,0,0,1,5.52.35h0a38.68,38.68,0,0,1,5.12,1,44.6,44.6,0,0,1,5,1.74l-.07,0a42,42,0,0,1,4.88,2.46,44.64,44.64,0,0,1,4.61,3.09,43.11,43.11,0,0,1,7.61,7.66,39.87,39.87,0,0,1,5.07,8.52h0c.18.43.36.87.52,1.32s.28.77.39,1.16a16.27,16.27,0,0,1,.41,2.08.06.06,0,0,1,0,0h0c.07.5.12,1,.16,1.51.15,2.28.08,4.57.18,6.85a19,19,0,0,0,1.17,6.37A9.41,9.41,0,0,0,106,58.31a7.94,7.94,0,0,0,1.22,1.17,9.52,9.52,0,0,0,1.45.91A19.83,19.83,0,0,0,112,61.61a35.06,35.06,0,0,1,3.46,1.15l0,0a11.34,11.34,0,0,1,1.16.57,8.48,8.48,0,0,1,.94.62,8.8,8.8,0,0,1,.73.64c.2.22.4.44.59.69a6.3,6.3,0,0,1,.57.88,8.16,8.16,0,0,1,.41.84s0,0,0-.06a10.2,10.2,0,0,1,.62,2.33s0,0,0,0v0a12.63,12.63,0,0,1,.11,1.63,15.26,15.26,0,0,1-.12,1.65s0,0,0-.06a14.93,14.93,0,0,1-.36,1.74,16.07,16.07,0,0,1-.53,1.52s0,0,0-.07a11.72,11.72,0,0,1-.76,1.5,14.76,14.76,0,0,1-.86,1.26,32.09,32.09,0,0,1-4.07,4.09c-.73.65-1.47,1.3-2.18,2a23.55,23.55,0,0,0-2,2.13,14.92,14.92,0,0,0-1.67,2.5,21.12,21.12,0,0,0-1,2.39c-.36,1-.68,1.91-1,2.89s-.52,2.08-.7,3.13-.27,1.82-.33,2.74c-2.15.9-4.48,1.76-7,2.62-.56.18-1.12.37-1.68.54a.8.8,0,0,1-.25.13,19.32,19.32,0,0,1-3.47.86,36.92,36.92,0,0,1-3.94.4c-1.23.07-2.5.1-4,.1l-2,0H77.82l-2.06,0h-.28c-1.19,0-2.39,0-3.58,0a131.11,131.11,0,0,1-19-2,90,90,0,0,1-10-2.37,57.9,57.9,0,0,1-9.25-3.59,33,33,0,0,1-7.56-5,22.82,22.82,0,0,1-.14-2.61A26.16,26.16,0,0,1,26.15,86h0a27.82,27.82,0,0,1,.73-3.52A28.8,28.8,0,0,1,28.09,79l0,.06a30,30,0,0,1,1.6-3.27A26,26,0,0,1,31.53,73h0a0,0,0,0,0,0,0h0s0,0,0,0h0c.61-.77,1.23-1.52,1.85-2.27.77-.92,1.56-1.85,2.28-2.82a22.61,22.61,0,0,0,2-3.07,13.51,13.51,0,0,0,1.21-3.38,23.55,23.55,0,0,0,.46-4.28,79.53,79.53,0,0,0-.62-9c-.14-1.5-.27-3-.31-4.52,0-.78,0-1.55,0-2.33s.1-1.44.2-2.15l0,.07c.15-1.07.35-2.13.59-3.18h0q.19-.66.42-1.32c.44-1.09.87-2.18,1.37-3.24a19.73,19.73,0,0,1,1-1.93,14.87,14.87,0,0,1,1.27-1.79h0l.07-.1a.28.28,0,0,0,.09-.17.27.27,0,0,0-.06-.17l.06-.07a.26.26,0,0,0-.08-.35.2.2,0,0,0-.13,0h0l-.1,0a.26.26,0,0,0-.21.11c-.17.29-.34.57-.5.86s-.49.73-.72,1.11c.09-.19.19-.39.29-.58a.28.28,0,0,0,0-.2.23.23,0,0,0-.11-.15.28.28,0,0,0-.13,0h-.06a.18.18,0,0,0-.09,0c.27-.7.55-1.4.84-2.08l0,.06q.5-1.15,1-2.28c.3-.64.61-1.28.95-1.9a23.25,23.25,0,0,1,2.09-3.27A17.34,17.34,0,0,1,47.88,17a17.15,17.15,0,0,1,1.57-1.39,14.34,14.34,0,0,1,1.62-1.09,15.93,15.93,0,0,1,1.85-.92l-.06,0a16.08,16.08,0,0,1,2-.7A18.07,18.07,0,0,1,57,12.47h0a14.85,14.85,0,0,1,2.11-.12,17.34,17.34,0,0,1,1.91.13h0a18.68,18.68,0,0,1,3.07.68,28.28,28.28,0,0,1,2.84,1h0c4,1.71,7.71,4.1,11.68,5.91a.25.25,0,0,0,.19,0,.23.23,0,0,0,.16-.11.26.26,0,0,0-.09-.34c-2.17-1-4.25-2.15-6.34-3.27a56.29,56.29,0,0,0-6.26-3,24.38,24.38,0,0,0-3.62-1.11A17.31,17.31,0,0,0,59,11.85h-.25a46.69,46.69,0,0,1,4.72-.28ZM61,12.49h0Zm5.9,1.7h0m34.63,22.17s0,0,0,0v0m13.9,26.4h0" style="fill:#2d0133"/><path d="M43.28,27.77Z" style="fill:#2d0133"/><polyline points="60.98 12.48 60.97 12.48 60.98 12.48" style="fill:#2d0133"/><path d="M31.55,73l0,0,0,0" style="fill:#2d0133"/><path d="M102.86,41v0s0,0,0,0" style="fill:#2d0133"/><path d="M79.37,67.31a22,22,0,0,0-2.86.2c-1.81.23-3.62.66-5.38,1.06-.66.16-1.33.32-2,.46a.5.5,0,0,0-.3.25.55.55,0,0,0,0,.4.54.54,0,0,0,.16.24,14.1,14.1,0,0,1,.64,3.19,10.08,10.08,0,0,1-.16,2.53l0-.13a10.43,10.43,0,0,1-.77,2.2l.08-.11a12,12,0,0,1-1.48,2.15,15,15,0,0,1-2.86,2.44,33.93,33.93,0,0,1-6.52,3.21c-1.12.45-2.26.85-3.4,1.25l-.89.31c-1,.35-2,.71-3,1.11a.43.43,0,0,0-.26.31.41.41,0,0,0-.07.28,17,17,0,0,0,.62,2.62A14.23,14.23,0,0,0,52,93.65a15.67,15.67,0,0,0,3.15,4,20.91,20.91,0,0,0,4.29,3,28.23,28.23,0,0,0,5.09,2.12,37.88,37.88,0,0,0,11.13,1.68H76a36.26,36.26,0,0,0,4.91-.33,26.88,26.88,0,0,0,4.72-1.07,21.5,21.5,0,0,0,3.47-1.51A22.48,22.48,0,0,0,92.92,99a19.07,19.07,0,0,0,3.13-3.31,15.72,15.72,0,0,0,1.17-1.89,12.6,12.6,0,0,0,.86-2.1.45.45,0,0,0,.24-.14.52.52,0,0,0,0-.72c-.87-.79-1.8-1.54-2.7-2.27l-.19-.15-1.26-1-1.53-1.24a37.89,37.89,0,0,1-4.72-4.45,16.77,16.77,0,0,1-2.16-3.24A14.78,14.78,0,0,1,84.59,75a18.47,18.47,0,0,1-.17-4.56c0-.61.14-1.23.23-1.84a.52.52,0,0,0-.39-.61h-.1l-.17,0a18.54,18.54,0,0,0-3.81-.57c-.27,0-.54,0-.81,0" style="fill:#ffb39c"/><path d="M76.51,67.49c-1.82.24-3.7.67-5.35,1.06l-.22,0-.29.07L69.12,69a.59.59,0,0,0-.31.27.58.58,0,0,0,0,.41.49.49,0,0,0,.17.24,14.32,14.32,0,0,1,.63,3.18,10.11,10.11,0,0,1-.16,2.53l.08-.12c0,.17-.09.33-.14.49a17.79,17.79,0,0,0,4.27.61h-.07a19.62,19.62,0,0,0,2.77-.12,21.58,21.58,0,0,0,2.53-.44h0A21.73,21.73,0,0,0,84.33,74h0l.15-.09a19.19,19.19,0,0,1,0-3.48c0-.61.14-1.22.23-1.84a.54.54,0,0,0-.4-.63h-.11l-.14,0a19.22,19.22,0,0,0-3.85-.59l-.8,0a22.14,22.14,0,0,0-2.86.21m2.4,8.56h0Z" style="fill:#f3ab95"/><path d="M23.48,65.12l-.12,0a.44.44,0,0,0-.17.07h-.06l-.14,0a35,35,0,0,1-7.31,2c-2.46.4-4.95.64-7.28.85a.6.6,0,0,0-.23.06h0a.52.52,0,0,0-.57.49c0,2.61-.09,5.27-.16,7.84l0,.77c-.1,3.55-.18,6.76-.2,10a134.62,134.62,0,0,0,1.26,21.52,63,63,0,0,0,2.31,10.07,37.54,37.54,0,0,0,4,8.74,27,27,0,0,0,2.78,3.65,23.91,23.91,0,0,0,3.36,3.06,23.14,23.14,0,0,0,8.64,3.93,29.14,29.14,0,0,0,3.27.57,22.84,22.84,0,0,0,2.5.16,15.54,15.54,0,0,0,1.7-.1,12.28,12.28,0,0,0,4.18-1.18A9.17,9.17,0,0,0,43,136.46a8.57,8.57,0,0,0,1.48-1.7.87.87,0,0,0,.07-.17,13.2,13.2,0,0,1,1.34-2.35c.53-.75,1.12-1.48,1.68-2.19l.77-1c.39-.5.77-1,1.13-1.54a17.92,17.92,0,0,0,1.08-1.85,26.22,26.22,0,0,0,2.49-7.82,46.35,46.35,0,0,0,.49-8.31c0-1.44-.1-2.85-.18-4.16,0-.65-.09-1.3-.14-2s-.15-1.41-.25-2.11c-.12-.92-.26-1.83-.4-2.75-.17-1.08-.34-2.15-.48-3.24a26.61,26.61,0,0,1-.22-5.83c.05-.41.1-.82.18-1.23a.54.54,0,0,0-.23-.54.46.46,0,0,0-.05-.41.52.52,0,0,0-.43-.23.43.43,0,0,0-.27.08c-5.62,3.65-12.83,8.68-18.7,15.06C29.75,91.68,27.15,80.34,24,65.51a.52.52,0,0,0-.5-.39" style="fill:#003d64"/><path d="M8.39,68.05a.78.78,0,0,0-.23.08h0a.53.53,0,0,0-.6.5c0,2.45-.08,4.9-.16,7.84l0,.77c-.1,3.89-.17,6.89-.19,10a133.68,133.68,0,0,0,1.26,21.52,61.94,61.94,0,0,0,2.31,10.08,37.65,37.65,0,0,0,4,8.73,28.07,28.07,0,0,0,2.78,3.67,22.92,22.92,0,0,0,12,7,27.62,27.62,0,0,0,3.27.57,20.72,20.72,0,0,0,2.5.16,14,14,0,0,0,1.7-.1,12.15,12.15,0,0,0,4.18-1.18,8.82,8.82,0,0,0,1.84-1.23,7.82,7.82,0,0,0,1.48-1.72.38.38,0,0,0,.08-.18,15,15,0,0,1,1.33-2.34c.53-.75,1.13-1.48,1.69-2.17l.07-.11.69-.86c.4-.5.77-1,1.13-1.55a16.3,16.3,0,0,0,1.09-1.84,26.1,26.1,0,0,0,2.49-7.83,46.35,46.35,0,0,0,.49-8.31c0-1.41-.1-2.83-.18-4.16,0-.65-.09-1.3-.14-2s-.15-1.4-.24-2.11c-.13-.92-.27-1.83-.41-2.75l-.06-.36a81.38,81.38,0,0,0-6,6.87,66.69,66.69,0,0,0-4.25,6.16,28.35,28.35,0,0,0-1.53,3c-1.2,2.67-2.3,5.38-3.64,8a28.35,28.35,0,0,1-2.56,4.18,14.67,14.67,0,0,1-1.42,1.63,7.79,7.79,0,0,1-1.55,1.19,5.43,5.43,0,0,1-1.68.67,5,5,0,0,1-1.8,0,6.49,6.49,0,0,1-1.95-.69,10.93,10.93,0,0,1-2.07-1.5,21,21,0,0,1-2.38-2.61,24.86,24.86,0,0,1-2.1-3.17,41.86,41.86,0,0,1-3.14-7c-.84-2.4-1.52-4.84-2.15-7.31-.36-1.48-.71-3-1-4.46s-.58-3.17-.81-4.77c-.45-3.14-.75-6.3-.92-9.46s-.24-6.43-.22-9.64c0-3.87.14-7.73.3-11.58-1.14.12-2.25.22-3.33.31" style="fill:#003d64"/><path d="M11.87,30.24h0a2,2,0,0,0-.84.21,1.7,1.7,0,0,0-.57.45,2.38,2.38,0,0,0-.45.72,7.18,7.18,0,0,0-.53,2.64,21.54,21.54,0,0,0,.09,3.12c-.12-.41-.28-.82-.44-1.22A17.63,17.63,0,0,0,8,33.87a6.38,6.38,0,0,0-1.24-1.65,2.23,2.23,0,0,0-1.46-.64,2,2,0,0,0-1.56.86,3.45,3.45,0,0,0-.54,1.84,6.68,6.68,0,0,0,0,1.29,12.4,12.4,0,0,0,.25,1.58c.15.75.36,1.54.65,2.49a4.12,4.12,0,0,0-.4-.56,3.24,3.24,0,0,0-1.61-1.17,1.24,1.24,0,0,0-.38,0,1.65,1.65,0,0,0-1.33.69,2.85,2.85,0,0,0-.42,2,11.38,11.38,0,0,0,.58,2.64c.3,1,.67,1.85,1,2.6.24.55.48,1.09.73,1.63.5,1.06,1,2.13,1.43,3.21a40,40,0,0,1,3,10.12v0a22.91,22.91,0,0,1,0,5.73h0a20.93,20.93,0,0,1-1.23,4.69.55.55,0,0,0-.06.5.43.43,0,0,0,.25.26,18.42,18.42,0,0,0,5.63,1.28c.5,0,1,0,1.5,0s1,0,1.5,0a21.58,21.58,0,0,0,3-.44,16.39,16.39,0,0,0,9.88-6,.53.53,0,0,0,.12-.28.53.53,0,0,0-.05-.39c-.65-1.17-1.25-2.42-1.8-3.69,0,0,0-.05,0-.05h0s0,0,0,0a44.88,44.88,0,0,1-3-10.94,22.2,22.2,0,0,1-.17-2.39,15.77,15.77,0,0,1,.13-2.17v-.12h0A19.62,19.62,0,0,1,23.27,43l.15-.42c.13-.37.26-.74.38-1.12a7.91,7.91,0,0,0,.36-1.75,2.78,2.78,0,0,0-1.07-2.51,2.69,2.69,0,0,0-.93-.49,2.35,2.35,0,0,0-.54-.07,3.07,3.07,0,0,0-.53.05,3.28,3.28,0,0,0-.95.36,6.16,6.16,0,0,0-1,.71,10.9,10.9,0,0,0-1.71,2,17.44,17.44,0,0,0-1.16,1.9c0-.87-.12-1.7-.21-2.54a28.15,28.15,0,0,0-1-5.45,7.56,7.56,0,0,0-.94-2.07,3.58,3.58,0,0,0-.6-.7,2.52,2.52,0,0,0-.83-.47,2.63,2.63,0,0,0-.83-.14" style="fill:#04bfbf"/><path d="M21.75,36.61A2.91,2.91,0,0,1,22,37.85a7.91,7.91,0,0,1-.13,1.53,21.18,21.18,0,0,1-.84,3.22c-.1.32-.21.63-.32.95a15.77,15.77,0,0,0-.5,1.75c-.12.52-.22,1.05-.29,1.59h0a19.87,19.87,0,0,0-.18,3,27.89,27.89,0,0,0,.23,3v0a33.06,33.06,0,0,0,1.24,5.47c.53,1.73,1.16,3.43,1.86,5.1l0,0c.63,1.46,1.3,2.9,2,4.31l.48.89a14.29,14.29,0,0,0,1.64-1.84.56.56,0,0,0,.12-.29.62.62,0,0,0-.05-.4,38.28,38.28,0,0,1-1.8-3.69l-.07-.09a44.67,44.67,0,0,1-3-10.93,19.22,19.22,0,0,1-.18-2.39,15.73,15.73,0,0,1,.13-2.18v-.11A19.09,19.09,0,0,1,23.29,43l.14-.41c.14-.37.27-.75.39-1.12a7.55,7.55,0,0,0,.36-1.76A3,3,0,0,0,24,38.23a2.94,2.94,0,0,0-.85-1.07,2.43,2.43,0,0,0-.93-.48,1.84,1.84,0,0,0-.42-.08h0" style="fill:#03afaf"/><path d="M4.25,39.81a.26.26,0,0,0-.18.31,26.37,26.37,0,0,0,2,5.09.28.28,0,0,0,.38.1.28.28,0,0,0,.1-.38,20.46,20.46,0,0,1-1-1.94h0c-.41-1-.75-2-1.09-3a.26.26,0,0,0-.24-.19H4.25m1.41,3.24s0,0,0,0,0,0,0,0" style="fill:#03afaf"/><path d="M9.49,38A18.56,18.56,0,0,0,10,40.71a13.63,13.63,0,0,0,1,2.63.29.29,0,0,0,.4.1.25.25,0,0,0,.13-.17.25.25,0,0,0,0-.22c-.13-.28-.25-.55-.37-.83l0,.07a16.43,16.43,0,0,1-.66-1.9A15.62,15.62,0,0,1,10,38.25h0c0-.1,0-.2,0-.3a.3.3,0,0,0-.08-.18.28.28,0,0,0-.17-.07.24.24,0,0,0-.25.25" style="fill:#03afaf"/><path d="M11.33,48.45c0,.48-.07.95-.07,1.43a12.63,12.63,0,0,0,.12,1.51,7,7,0,0,0,.91,2.82.59.59,0,0,0,.66.27.54.54,0,0,0,.34-.27.51.51,0,0,0,.06-.45c-.19-.48-.42-.95-.62-1.42s-.27-.68-.39-1a7.52,7.52,0,0,1-.26-1.14A8.27,8.27,0,0,1,12,48.45a.35.35,0,0,0-.34-.35.36.36,0,0,0-.36.35" style="fill:#03afaf"/><path d="M51.61,87a.39.39,0,0,0-.2,0,7.84,7.84,0,0,0-1.68,1.31,5.69,5.69,0,0,0-.63.75,6.32,6.32,0,0,0-.54.94A7.38,7.38,0,0,0,47.94,92a11.66,11.66,0,0,0-.17,2.08,27.46,27.46,0,0,0,.41,4.32l.13.89c.19,1.17.37,2.37.47,3.56a.51.51,0,0,0,.06.2A23.21,23.21,0,0,1,47.53,106c-.83,1.53-1.8,3-2.75,4.46-.44.68-.88,1.35-1.3,2a36.38,36.38,0,0,0-1.89,3.35,19.25,19.25,0,0,0-2,8.13,22.89,22.89,0,0,0,.31,4.36,38.93,38.93,0,0,0,2.58,8.43c.57,1.4,1.19,2.78,1.73,4a.51.51,0,0,0,.32.27.44.44,0,0,0,.15.1,50.24,50.24,0,0,0,8.5,2.33,57.08,57.08,0,0,0,8.92.92c.49,0,1,0,1.47,0,2.46,0,4.92-.16,7-.33,3-.24,5.86-.57,8.54-1a75,75,0,0,0,8.46-1.84,50.44,50.44,0,0,0,7.84-2.88c2.24-1.06,4.41-2.22,6.43-3.43a48.54,48.54,0,0,0,6.32-4.43,32.28,32.28,0,0,0,3.26-3.14,21,21,0,0,0,2.56-3.52.54.54,0,0,0,.09-.38.61.61,0,0,0,.06-.25,49.33,49.33,0,0,0-1.38-9.25,65.23,65.23,0,0,0-2-6.47A43.83,43.83,0,0,0,104,94.91a22.79,22.79,0,0,0-7.84-6.46.56.56,0,0,0-.26-.07l-.13,0a.49.49,0,0,0-.24.14.3.3,0,0,0-.08.08,27.77,27.77,0,0,1-3.21,3.73A26.29,26.29,0,0,1,87,96.26a25.17,25.17,0,0,1-5.81,2.34l.13,0a26.49,26.49,0,0,1-6.53.81h-.23l.13,0a27.6,27.6,0,0,1-13.92-4l0,0A29.51,29.51,0,0,1,55,90.72v0h0v0h0a30.26,30.26,0,0,1-2.83-3.44.48.48,0,0,0-.27-.19.69.69,0,0,0-.24-.06" style="fill:#003d64"/><path d="M94,126.38a118.84,118.84,0,0,1,.1,12.52c.46-.2.91-.4,1.35-.61.75-.35,1.48-.72,2.2-1.08-.15-2.42-.38-4.83-.71-7.22l0,.06a86.06,86.06,0,0,0-1.73-9.14,58.76,58.76,0,0,0-2.78-8.51v0q-.24-.57-.51-1.14a99.66,99.66,0,0,1,2,15.1" style="fill:#003d64"/><path d="M99.47,91.92a55.42,55.42,0,0,1,2.91,6.49,68.63,68.63,0,0,1,3.51,14,93.8,93.8,0,0,1,.9,15.62c0,1.2-.07,2.4-.14,3.59.53-.4,1-.81,1.55-1.23a32.21,32.21,0,0,0,3.25-3.14,21.22,21.22,0,0,0,2.57-3.52.6.6,0,0,0,.1-.39.92.92,0,0,0,0-.25,48.63,48.63,0,0,0-1.38-9.26,64.61,64.61,0,0,0-2-6.47A43.92,43.92,0,0,0,104,94.89a24.21,24.21,0,0,0-5.91-5.39c.47.8.93,1.6,1.36,2.42" style="fill:#003d64"/><path d="M40.74,40.29a5.69,5.69,0,0,1,2,.37.78.78,0,0,1,.45.35.73.73,0,0,1,.08.58.84.84,0,0,1-.39.48,38.3,38.3,0,0,1,.83,5.58,62.38,62.38,0,0,1,.16,6.25.38.38,0,0,1,.19,0,.76.76,0,0,1,.2,1.5,7.05,7.05,0,0,1-1.15.25,8.42,8.42,0,0,1-1.17.09,6.38,6.38,0,0,1-2-.34,6.1,6.1,0,0,1-1.73-1A6.42,6.42,0,0,1,36.92,53a7.92,7.92,0,0,1-.86-1.68,9.16,9.16,0,0,1-.49-1.76,11.34,11.34,0,0,1,0-3.94,8.89,8.89,0,0,1,.8-2.43,5.89,5.89,0,0,1,1.46-1.88,4.44,4.44,0,0,1,2.13-1,4.85,4.85,0,0,1,.76-.05" style="fill:#f3ab95"/><path d="M38.69,43.14a8.53,8.53,0,0,1,1.64.79,7.11,7.11,0,0,1,1.37,1.2,8.74,8.74,0,0,1,1.06,1.51,7.79,7.79,0,0,1,.72,1.86.44.44,0,0,1-.85.24,12.15,12.15,0,0,0-.39-1.16c-.13-.3-.28-.6-.43-.89a7.94,7.94,0,0,0-.6-.91,8.27,8.27,0,0,0-.55-.63c-.22-.22-.46-.42-.7-.62a6,6,0,0,0-.59-.39,4.15,4.15,0,0,0-.63-.32l-.21-.08a.32.32,0,0,1-.23-.38.34.34,0,0,1,.31-.24l.08,0m1.21,1.35,0,0,0,0m1.27,1.23,0,0,0,0" style="fill:#bf8675"/><path d="M57.28,10.58a.72.72,0,0,1,.19,0,1.08,1.08,0,0,1,.24.12l3.44.75c4,.87,8.21,1.78,12.26,2.94a53.91,53.91,0,0,1,14.7,6.33A33.56,33.56,0,0,1,93,24.49a32.21,32.21,0,0,1,4.15,4.8,29.09,29.09,0,0,1,3.12,5.59,17.49,17.49,0,0,1,1.41,6c.41,0,.83,0,1.24,0a8.83,8.83,0,0,1,3.86.82,6.45,6.45,0,0,1,2.86,2.75,8.1,8.1,0,0,1,.92,3.87,10.41,10.41,0,0,1-.85,4,8.65,8.65,0,0,1-3.7,4.24,7.15,7.15,0,0,1-2.82.85,4.7,4.7,0,0,1-.53,0,7.83,7.83,0,0,1-2.18-.32,26.85,26.85,0,0,1-2.69,4.75,28.93,28.93,0,0,1-4.52,5A34.58,34.58,0,0,1,81.5,73.44,35.07,35.07,0,0,1,75,75a36.31,36.31,0,0,1-4.93.35c-.56,0-1.13,0-1.7,0a35.76,35.76,0,0,1-6.75-1.08A31.06,31.06,0,0,1,55.52,72a25,25,0,0,1-4.92-3.18,23,23,0,0,1-3.81-4A27.45,27.45,0,0,1,42.23,54.6a47.21,47.21,0,0,1-1.08-12.5,56.23,56.23,0,0,1,2-13.39A34.41,34.41,0,0,1,48.07,18.1a24,24,0,0,1,3.87-4.26,20.75,20.75,0,0,1,4.94-3.16.91.91,0,0,1,.4-.1" style="fill:#ffb39c"/><path d="M57.47,10.59a.64.64,0,0,1,.25.11l2.35.51,1.08.24c4,.87,8.17,1.77,12.26,2.94a54.12,54.12,0,0,1,14.71,6.33A34.51,34.51,0,0,1,93,24.48a32,32,0,0,1,4.14,4.8,28.74,28.74,0,0,1,3.12,5.59,19.07,19.07,0,0,1,1.29,4.52l-.09.15v0a10.08,10.08,0,0,1-1.58,2.09,7,7,0,0,1-1.33,1,6,6,0,0,1-1.31.54h0a6.12,6.12,0,0,1-1.41.18A7.18,7.18,0,0,1,94,43.07l.06,0a9,9,0,0,1-.87-.31,7.33,7.33,0,0,1-.69-.34l.05,0a8,8,0,0,1-1-.66c-.27-.23-.53-.46-.78-.71h0a11.65,11.65,0,0,1-1-1.2,15,15,0,0,1-.86-1.32h0l0,0h0a18.43,18.43,0,0,1-1.62-4s0,0,0,.06c-.06-.23-.12-.47-.17-.72a.27.27,0,0,0-.1-.16.25.25,0,0,0-.15-.05.26.26,0,0,0-.3-.09c-.82.3-1.65.59-2.49.83l.06,0a17.68,17.68,0,0,1-4.22.53,23.5,23.5,0,0,1-5.9-.8h.06a29.28,29.28,0,0,1-7-3l.06,0A29.31,29.31,0,0,1,61,26.48l0,0A23.58,23.58,0,0,1,57.58,22a18.92,18.92,0,0,1-1-2,18.65,18.65,0,0,1-.7-2.07h0c0-.1-.06-.21-.08-.31a.32.32,0,0,0-.09-.16.22.22,0,0,0-.15-.06h0a.21.21,0,0,0-.11,0A11.46,11.46,0,0,0,53,18.62a20,20,0,0,0-2.34,1.78,48.31,48.31,0,0,0-4.09,4.13c-1.18,1.32-2.35,2.66-3.43,4.06A34,34,0,0,1,48.06,18.1a23.4,23.4,0,0,1,3.87-4.28,20.75,20.75,0,0,1,4.94-3.16,1.06,1.06,0,0,1,.41-.11.81.81,0,0,1,.19,0" style="fill:#f3ab95"/><path d="M110.54,48.25a10.33,10.33,0,0,1-.86,4,8.68,8.68,0,0,1-3.7,4.25,7.27,7.27,0,0,1-2.84.86l-.52,0a8,8,0,0,1-2.19-.33,25.12,25.12,0,0,1-2.67,4.74,29.07,29.07,0,0,1-4.52,5A34.3,34.3,0,0,1,81.5,73.46a35.56,35.56,0,0,1-11.44,1.91c-.57,0-1.13,0-1.7-.05h-.23c.58,0,1.15,0,1.72-.1a35.4,35.4,0,0,0,5.61-1,44.78,44.78,0,0,0,5.67-1.87,42.58,42.58,0,0,0,6.06-3.08,35.16,35.16,0,0,0,5.43-4,27.36,27.36,0,0,0,4.25-4.87,22.48,22.48,0,0,0,1.55-2.7,19.73,19.73,0,0,0,1-2.67,6.71,6.71,0,0,0,2.47.37,7.6,7.6,0,0,0,2.54-.55,8.84,8.84,0,0,0,2.23-1.38,9.69,9.69,0,0,0,1.54-1.73,15.9,15.9,0,0,0,1.18-2,12.79,12.79,0,0,0,.84-2.34c0-.21.09-.43.13-.66a8.4,8.4,0,0,1,.14,1.59" style="fill:#f3ab95"/><polyline points="88.9 38.56 88.91 38.57 88.91 38.57 88.9 38.56" style="fill:#f3ab95"/><polyline points="88.91 38.57 88.91 38.57 88.91 38.57 88.91 38.57" style="fill:#f3ab95"/><path d="M103.11,44.7a6.83,6.83,0,0,1,1,4.57,8,8,0,0,1-1.82,4.22.29.29,0,0,1-.41-.41l.24-.3a7.19,7.19,0,0,0,.7-1.24.3.3,0,0,1,0,.08,7.31,7.31,0,0,0,.55-2,8.05,8.05,0,0,0,0-1.9h0a6.18,6.18,0,0,0-.39-1.46,5.59,5.59,0,0,0-.64-1.08.51.51,0,0,1,0-.38.52.52,0,0,1,.23-.3.54.54,0,0,1,.25-.06.52.52,0,0,1,.43.24m-.2,1.62v0" style="fill:#bf8675"/><path d="M106.26,44.57a7.24,7.24,0,0,1,1.2.37.46.46,0,0,1,.22.17.32.32,0,0,1,0,.27.35.35,0,0,1-.43.25q-.3-.12-.6-.21a5.72,5.72,0,0,0-.57-.11,5.79,5.79,0,0,0-1,0,4.42,4.42,0,0,0-.93.25c-.25.11-.5.25-.75.38a.44.44,0,0,1-.54-.69,4.34,4.34,0,0,1,.49-.35,4.23,4.23,0,0,1,.53-.23,4,4,0,0,1,1.18-.2h.19a5.67,5.67,0,0,1,1,.11" style="fill:#bf8675"/><path d="M66.31,39.65c0,1.51.11,3,.16,4.52,0,.76,0,1.52,0,2.27a18.61,18.61,0,0,1-.21,2.11.3.3,0,0,1-.43.17,6.88,6.88,0,0,0-1.4-.85,3.39,3.39,0,0,0-.77-.22,2.79,2.79,0,0,0-.5,0,2.14,2.14,0,0,0-.34.09,1.92,1.92,0,0,0-.31.18,1.6,1.6,0,0,0-.26.26l0-.05,0,.05,0,0,0,0a3.35,3.35,0,0,0-.21.36,3,3,0,0,0-.15.57,3.62,3.62,0,0,0,0,.87,4.52,4.52,0,0,0,.25.89,5.27,5.27,0,0,0,.53.88l-.07-.09a4.65,4.65,0,0,0,.66.67,4.34,4.34,0,0,0,.88.52,6.59,6.59,0,0,0,.67.23.52.52,0,0,1,.36.63.53.53,0,0,1-.64.36,7.89,7.89,0,0,1-.91-.37,6.7,6.7,0,0,1-.83-.56,4.65,4.65,0,0,1-1.64-2.81,3.76,3.76,0,0,1,0-1.53,2.63,2.63,0,0,1,.58-1.14,1.93,1.93,0,0,1,1-.62,2.73,2.73,0,0,1,1.47.11,5.12,5.12,0,0,1,1.49.8l0-.28v.08c.33-2.69,0-5.4,0-8.09a.27.27,0,1,1,.53,0M61.89,49.94v0m.22.84,0,.07,0-.07m1.1,1.5s0,0,0,0l0,0m.06,0,0,0,0,0m-1-4.16Z" style="fill:#bf8675"/><path d="M79.1,45.78c0-2,1-3.63,2.19-3.63s2.19,1.62,2.19,3.63-1,3.64-2.19,3.64-2.19-1.63-2.19-3.64" style="fill:#3a0241"/><path d="M80.84,37.89c-2.35-1-4-2.49-3.59-3.37s2.57-.8,4.91.18,4,2.49,3.59,3.37-2.57.8-4.91-.18" style="fill:#3a0241"/><path d="M55.54,44.53c0-1.9-.93-3.44-2.08-3.44s-2.07,1.54-2.07,3.44S52.32,48,53.46,48s2.08-1.54,2.08-3.45" style="fill:#3a0241"/><path d="M53.89,37c2.23-.92,3.76-2.35,3.41-3.19s-2.44-.76-4.67.17-3.75,2.36-3.4,3.2,2.44.75,4.66-.18" style="fill:#3a0241"/><path d="M101.7,40.57c0,.26,0,.53.08.8a78.1,78.1,0,0,1-7.06,7.93,83.49,83.49,0,0,1-8.8,7.47.52.52,0,0,1-.71-.06.49.49,0,0,1,.06-.7c2.22-1.65,4.37-3.39,6.43-5.25a77,77,0,0,0,5.92-5.93l-.09.09c1.38-1.55,2.7-3.16,4-4.81a.63.63,0,0,1,.12-.11l.09.57" style="fill:#fefefe"/><path d="M100.27,57.45h0v0s0,0,0,0c-.2.47-.41.94-.64,1.4a67.18,67.18,0,0,1-13.44,5.66.49.49,0,0,1-.37-.08.47.47,0,0,1-.21-.32.45.45,0,0,1,.08-.37.5.5,0,0,1,.32-.22c.45-.12.89-.26,1.33-.41a67.44,67.44,0,0,0,13-5.8l-.06.14" style="fill:#fefefe"/><path d="M44.06,45.45h0a84.55,84.55,0,0,0,5.29,9.89.5.5,0,0,1-.85.53,98.11,98.11,0,0,1-7.37-14.62v-.14c0-.4.07-.81.1-1.22s0-.55.07-.83c.88,2.14,1.78,4.28,2.75,6.38" style="fill:#fefefe"/><polyline points="44.06 45.46 44.06 45.45 44.06 45.46" style="fill:#fefefe"/><path d="M49.09,61.41a.51.51,0,0,1,0,.71.48.48,0,0,1-.35.16.59.59,0,0,1-.36-.13,65,65,0,0,1-5.25-4.25c-.12-.42-.24-.85-.39-1.26-.06-.23-.12-.46-.17-.69a53,53,0,0,0,6.49,5.46" style="fill:#fefefe"/><path d="M64.13,46.41c.22,0,.45,0,.67,0h0a8.53,8.53,0,0,1,1.51.27c.38.1.75.22,1.11.35l0,0,.06,0h0A30.43,30.43,0,0,1,72,49.35c1.51.88,3,1.8,4.56,2.6a.22.22,0,0,0,.13.12,26.76,26.76,0,0,0,5.28,2.06,18.07,18.07,0,0,0,2.72.5c.47,0,.93.07,1.39.08h.87a11.83,11.83,0,0,1,.92,1.58,16.14,16.14,0,0,1,1.11,3.6,20.25,20.25,0,0,1,.2,5.16.2.2,0,0,0,0-.07,18.61,18.61,0,0,1-1,4.54c-.17.44-.35.87-.56,1.29A37.06,37.06,0,0,1,75,75a37.47,37.47,0,0,1-4.93.35c-.57,0-1.13,0-1.7,0h-.23l.15,0a34.86,34.86,0,0,1-6.68-1.06A32.2,32.2,0,0,1,55.5,72a24.7,24.7,0,0,1-4.92-3.18,22.47,22.47,0,0,1-3.21-3.25,13.33,13.33,0,0,1-.43-1.65,17,17,0,0,1-.16-4.34.13.13,0,0,1,0,.06,14.48,14.48,0,0,1,.82-3.73l0,.06a8.84,8.84,0,0,1,1-1.93c.64-.09,1.28-.18,1.92-.29s1-.17,1.46-.28a11,11,0,0,0,2.61-.93,11.3,11.3,0,0,0,2.39-1.71c.25-.22.49-.45.73-.68l.65-.67c.41-.42.84-.83,1.29-1.22l0,0a11.81,11.81,0,0,1,1-.74,10,10,0,0,1,1-.57,7.12,7.12,0,0,1,.76-.31,8.34,8.34,0,0,1,.83-.2,8.94,8.94,0,0,1,.89-.09ZM87.8,56.24v0" style="fill:#04bfbf"/><path d="M64.81,46.44h0" style="fill:#04bfbf"/><path d="M64.86,46.44h0" style="fill:#04bfbf"/><path d="M61.49,47h0" style="fill:#04bfbf"/><path d="M64.13,46.39l.65,0a8.37,8.37,0,0,1,1.53.27c.38.1.74.22,1.11.35A30.17,30.17,0,0,1,72,49.33L73,50c1.14.68,2.32,1.37,3.5,2a.37.37,0,0,0,.13.12,28.35,28.35,0,0,0,5.28,2.06,17.75,17.75,0,0,0,2.71.49c.47,0,.93.07,1.39.08h.22c.21,0,.43,0,.64,0a9.34,9.34,0,0,1,.94,1.6A15.26,15.26,0,0,1,89,59.88,21,21,0,0,1,89.16,65a17.91,17.91,0,0,1-1,4.47,11.91,11.91,0,0,1-.55,1.29,36,36,0,0,1-6.09,2.69A36.64,36.64,0,0,1,75,75.06a38.44,38.44,0,0,1-4.93.35c-.57,0-1.13,0-1.7,0h-.23l.15-.07A33.24,33.24,0,0,1,55.5,72a24.77,24.77,0,0,1-4.74-3c.86.48,1.75.92,2.65,1.32a36.14,36.14,0,0,0,7.39,2.29,39.45,39.45,0,0,0,7.51.76c1.26,0,2.53,0,3.78-.13A25.59,25.59,0,0,0,76,72.68a15,15,0,0,0,3.55-1.27,10,10,0,0,0,2.72-2A9,9,0,0,0,83.87,67a9.91,9.91,0,0,0,.81-2.82,9.28,9.28,0,0,0-.11-2.88,8.43,8.43,0,0,0-.44-1.4,6.9,6.9,0,0,0-1.61-2.34,6.6,6.6,0,0,0-1.2-.92,7.9,7.9,0,0,0-1-.49c-.32-.13-.63-.24-1-.34-.6-.19-1.2-.33-1.8-.49h0l0,0h0a11.67,11.67,0,0,1-1.55-.5A15.52,15.52,0,0,1,74.44,54l.06,0a22.18,22.18,0,0,1-2-1.39c-.62-.46-1.21-.93-1.82-1.41-1-.82-2.06-1.7-3.14-2.49a17.9,17.9,0,0,0-1.73-1.15A9.88,9.88,0,0,0,64,46.78a8,8,0,0,0-1-.28l.12,0a8.94,8.94,0,0,1,.89-.09Z" style="fill:#03a5a5"/><path d="M64.78,49.55a6,6,0,0,1,.94.17,7.48,7.48,0,0,1,1,.36,10.13,10.13,0,0,1,1.83,1.06c.59.43,1.16.89,1.73,1.36l1,.8c.35.29.72.57,1.06.87a.34.34,0,0,1,0,.48.34.34,0,0,1-.48,0l-.5-.41-1.23-.92L69,52.41l0,0a13.33,13.33,0,0,0-2.72-1.73,6.49,6.49,0,0,0-.74-.26,4.7,4.7,0,0,0-.83-.17c-.21,0-.43,0-.65-.05a6.14,6.14,0,0,0-1,.06h.1a8.24,8.24,0,0,0-1.1.22,8.43,8.43,0,0,0-1,.34,12.08,12.08,0,0,0-1.68,1c-.57.37-1.1.78-1.64,1.18s-1.09.82-1.66,1.2a10.88,10.88,0,0,1-1.81,1,.25.25,0,0,1-.19,0,.26.26,0,0,1-.15-.12.25.25,0,0,1,.09-.34,10.18,10.18,0,0,0,1.56-.84c.49-.31,1-.66,1.42-1l0,0a24.84,24.84,0,0,1,3.48-2.46,7.77,7.77,0,0,1,2-.75,6.85,6.85,0,0,1,1.56-.18,5.79,5.79,0,0,1,.72,0m-.08.72h0m-3.49.53-.08,0,.08,0m7.7,1.57,0,0,0,0m2.41,1.84v0" style="fill:#03a5a5"/><path d="M51.31,56.63a4.3,4.3,0,0,0,.45.29l.47.28,1.07.59-.08,0a29.22,29.22,0,0,0,7.19,2.56h0a43.43,43.43,0,0,0,11.15.81,45.53,45.53,0,0,0,9.29-1.39.25.25,0,0,1,.29.2.25.25,0,0,1-.2.29,47.59,47.59,0,0,1-6.68,1.24,49.74,49.74,0,0,1-7.32.29,39.94,39.94,0,0,1-7.31-.92,29.17,29.17,0,0,1-3.46-1A21.94,21.94,0,0,1,53,58.41c-.36-.2-.7-.42-1-.64l-.45-.31-.53-.4A.26.26,0,0,1,51,56.7a.26.26,0,0,1,.21-.11.28.28,0,0,1,.15,0m9.08,3.68-.06,0,.06,0" style="fill:#03a5a5"/><path d="M52.74,61.77c.57.37,1.18.7,1.78,1a30.19,30.19,0,0,0,7.31,2.6l-.08,0a37.37,37.37,0,0,0,9.78.82h.06a30.73,30.73,0,0,0,6.53-1,.26.26,0,0,1,.29.2.25.25,0,0,1-.2.29,28.42,28.42,0,0,1-3,.68,32.44,32.44,0,0,1-3.4.38,37.34,37.34,0,0,1-6.85-.19,35,35,0,0,1-6.7-1.47,27.26,27.26,0,0,1-3-1.2c-.46-.22-.92-.45-1.36-.7-.25-.13-.5-.28-.74-.43s-.48-.31-.71-.46a.3.3,0,0,1-.07-.43.31.31,0,0,1,.25-.13.32.32,0,0,1,.18.06m18.83,4.42h0" style="fill:#03a5a5"/><path d="M57.34,67.82A24.78,24.78,0,0,0,60,69a24,24,0,0,0,2.67.77h0a27.51,27.51,0,0,0,4,.56,37.31,37.31,0,0,0,4.23,0h.05l.48,0a.26.26,0,0,1,.19,0,.21.21,0,0,1,.1.16.27.27,0,0,1,0,.19.2.2,0,0,1-.16.1c-1.21.07-2.43.11-3.65.09a30.78,30.78,0,0,1-3.71-.32,24.77,24.77,0,0,1-3.51-.8c-.62-.2-1.24-.42-1.84-.67a17.55,17.55,0,0,1-1.69-.82A.24.24,0,0,1,57,68a.24.24,0,0,1,.13-.15.27.27,0,0,1,.12,0l.09,0m13.59,2.52h0Zm-8.23-.59h0" style="fill:#03a5a5"/><path d="M63.35,7.34h.23a34.3,34.3,0,0,1,7.24.86,53.59,53.59,0,0,1,14.31,5.52,55.86,55.86,0,0,1,11.17,8c.86.8,1.58,1.53,2.22,2.23A26,26,0,0,1,101,27.18a48.66,48.66,0,0,1,3.72,7.07.73.73,0,0,1,.16.14A.85.85,0,0,1,105,35a11,11,0,0,1-1.81,5.84,6.28,6.28,0,0,1-4.91,3h-.16a6.51,6.51,0,0,1-3-.77,8.27,8.27,0,0,1-2.37-1.9,12.32,12.32,0,0,1-1.71-2.6,18.86,18.86,0,0,1-1.2-3,33.41,33.41,0,0,1-1.31-6.12c-.24.13-.49.26-.74.37a15.09,15.09,0,0,1-1.86.63,20.45,20.45,0,0,1-3.5.69c-.71.07-1.45.11-2.19.11a22.59,22.59,0,0,1-4.73-.51,26.32,26.32,0,0,1-12.25-6.51,26.11,26.11,0,0,1-6.55-9.41c-.54.28-1.11.59-1.67.92h0a32.37,32.37,0,0,0-6,4.85A40.58,40.58,0,0,0,42.89,29l-.1.19,0,.1a.88.88,0,0,1-.41.42.77.77,0,0,1-.3.06h-.3a.78.78,0,0,1-.53-.29A.72.72,0,0,1,41,29a29.86,29.86,0,0,1,4.87-12.77,21.74,21.74,0,0,1,4.67-5.08,16.66,16.66,0,0,1,2.86-1.8,15.77,15.77,0,0,1,3.2-1.16,25.34,25.34,0,0,1,6.71-.81" style="fill:#3a0241"/><path d="M58.79,12c.19.32.4.63.6.94h0l0,.06v0A35.8,35.8,0,0,0,62,16.3a30.45,30.45,0,0,0,3,3s0,0,0,0c.51.43,1,.84,1.57,1.24a18.46,18.46,0,0,0,1.64,1.14,32.2,32.2,0,0,0,3.55,1.95,29.47,29.47,0,0,0,3,1.19,24.19,24.19,0,0,0,3.25.83,23.16,23.16,0,0,0,2.64.29c1,.06,1.94,0,2.9,0A.73.73,0,0,1,84,26a.77.77,0,0,1,.33.49.78.78,0,0,1-.1.56.76.76,0,0,1-.48.34,17.28,17.28,0,0,1-3.87.06,21.92,21.92,0,0,1-3.77-.68,24.7,24.7,0,0,1-6.94-3.14c-.52-.33-1-.69-1.51-1.06s-1.07-.82-1.58-1.24a31.43,31.43,0,0,1-2.79-2.62c-.88-.93-1.72-1.89-2.51-2.9s-1.45-2-2.11-3l-.31-.51a.24.24,0,0,1,.11-.33l.11,0a.28.28,0,0,1,.23.14m6.31,7.29,0,0,0,0M59.42,13a.05.05,0,0,1,0,0h0l0,0" style="fill:#2d0133"/><path d="M61.19,10.18a.32.32,0,0,1,.15.13.83.83,0,0,0,.08.12h0a26.12,26.12,0,0,0,4.6,5c.53.44,1.07.87,1.63,1.29s1.27.91,1.93,1.34a.45.45,0,0,1,.13.61.44.44,0,0,1-.6.13,49.07,49.07,0,0,1-4.44-3.69c-.71-.69-1.39-1.42-2-2.18a26.4,26.4,0,0,1-1.74-2.35A.26.26,0,0,1,61,10.2a.23.23,0,0,1,.11,0h.08m.24.27v0" style="fill:#2d0133"/><path d="M86.74,7.84A35.92,35.92,0,0,1,97,16.64a26.91,26.91,0,0,1,1.8,2.57c.63,1,1.22,2.08,1.8,3.13,1.09,2,2.16,4,3.32,5.9.53.89,1.07,1.76,1.66,2.61l-.08-.1c.6.85,1.23,1.68,1.9,2.46a20.85,20.85,0,0,0,2.22,2.19,21.18,21.18,0,0,0,4.74,3h0l.15.08-.11-.06q.9.41,1.83.75a.83.83,0,0,1,.53,1,.85.85,0,0,1-.41.48.78.78,0,0,1-.6,0,29.26,29.26,0,0,1-3.54-1.65,21.62,21.62,0,0,1-2.87-1.95A22.93,22.93,0,0,1,105,32.35c-.63-.88-1.2-1.8-1.75-2.74s-1-1.92-1.55-2.89-1-2-1.54-3-1.11-2.1-1.68-3.13c-.49-.87-1-1.72-1.54-2.54a32.24,32.24,0,0,0-5.54-6h0l-.06-.06s0,0,0,0a39.4,39.4,0,0,0-4-2.94,38.8,38.8,0,0,0-4.47-2.45l.07,0A34.09,34.09,0,0,0,74.67,4h.08a26.81,26.81,0,0,0-6.63-.37h.06a21.91,21.91,0,0,0-5.31,1.1h.05a19.16,19.16,0,0,0-2,.82.25.25,0,0,1-.23-.45A21.63,21.63,0,0,1,70.17,3,33.86,33.86,0,0,1,86.74,7.84m27.69,30.6a.05.05,0,0,1,0,0h0l.05,0M91.37,12h0l0,0,0,0" style="fill:#2d0133"/><path d="M88.77,5.26c.82.4,1.63.8,2.42,1.23s1.53.88,2.27,1.36A37,37,0,0,1,104.54,19a.54.54,0,0,1,0,.43.59.59,0,0,1-.29.33.55.55,0,0,1-.42,0,.59.59,0,0,1-.33-.29c-.36-.56-.73-1.13-1.11-1.69a.35.35,0,0,1,0,.08,39.93,39.93,0,0,0-3-3.92A34.68,34.68,0,0,0,96,10.61a38.61,38.61,0,0,0-7.5-4.93.24.24,0,0,1-.08-.34.23.23,0,0,1,.2-.12.33.33,0,0,1,.14,0" style="fill:#2d0133"/><path d="M51.5,14.66a.26.26,0,0,1-.08.35,22.47,22.47,0,0,0-2.63,1.93l.06,0a28.68,28.68,0,0,0-2.5,2.43,29.52,29.52,0,0,0-2.3,2.92A30,30,0,0,0,42.36,25c-.52,1-1,2-1.39,3a.7.7,0,0,1-.94.3.66.66,0,0,1-.34-.41.68.68,0,0,1,0-.54,20.19,20.19,0,0,1,2-3.59,32.92,32.92,0,0,1,2.78-3.55,29.94,29.94,0,0,1,6.61-5.64.32.32,0,0,1,.14,0,.24.24,0,0,1,.21.11m-7.4,7.51s0,0,0,0,0,0,0,0" style="fill:#2d0133"/><path d="M32.26,38a.26.26,0,0,1,0,.35l-.3.41,0,0a13.68,13.68,0,0,0-1.66,3.11A12.94,12.94,0,0,0,29.67,45v0a.2.2,0,0,1,0,.07v0h0A15.78,15.78,0,0,0,29.87,49l0-.12a25,25,0,0,0,.72,2.83q.22.72.48,1.44c.18.5.38,1,.56,1.5a14.88,14.88,0,0,1,.68,2.86,11.44,11.44,0,0,1,0,2.68,13.39,13.39,0,0,1-1.44,4.65c-.39.78-.82,1.53-1.25,2.28-.52.9-1.05,1.8-1.6,2.68a.87.87,0,0,1-.51.43.82.82,0,0,1-.67-.05.89.89,0,0,1-.38-1.19,58.42,58.42,0,0,0,3.65-6.85,12.28,12.28,0,0,0,.62-2.68,13.84,13.84,0,0,0-.23-3.4c-.15-.8-.36-1.58-.58-2.36s-.43-1.63-.6-2.45a23.19,23.19,0,0,1-.47-4.55,13.31,13.31,0,0,1,.73-4.34,14.68,14.68,0,0,1,.93-2.15A18.32,18.32,0,0,1,31.9,38a.23.23,0,0,1,.18-.08.31.31,0,0,1,.18.07m-.3.78h0m-1.48,17s0,.06,0,.09,0-.06,0-.09M29.66,45h0v0a.13.13,0,0,1,0,.06" style="fill:#2d0133"/></g></g></svg>