<svg id="Layer_1" data-name="Layer 1" xmlns="http://www.w3.org/2000/svg" viewBox="0 0 385.46 389.38"><title>socialDistance</title><g id="Layer_1-2" data-name="Layer_1"><g id="_2201836248080" data-name=" 2201836248080"><path d="M0,196.63C0,90.23,86.33,3.9,192.73,3.9S385.46,90.23,385.46,196.63,299.13,389.36,192.73,389.36,0,303,0,196.63Z" transform="translate(0 0.02)" style="fill:#d7dbfa;fill-rule:evenodd"/><path d="M96.27,195.85a7.29,7.29,0,0,0,2.92,7.41l.78.58a1.45,1.45,0,0,1,.2,1c.19,1.17,0,2.73-1.17,3.31a2.53,2.53,0,0,1-1.17.19c-1.37.59-1.76,2.34-1.76,3.9.2,1.17.39,2.54,1.37,3.12,1.17.78,2.53.2,3.9-.39,3.11-1.56,6.62-3.31,7.79-6.63.78-1.94.58-4.28.39-6.23a68.92,68.92,0,0,0-1.36-9.16Z" transform="translate(0 0.02)" style="fill:#fefefe;fill-rule:evenodd"/><path d="M24.16,195.46c-3.31,2.54-4.09,7.41-2.72,11.31a3.5,3.5,0,0,0,.39,1.36,13.09,13.09,0,0,0,4.67,5.07,9.45,9.45,0,0,0,6,1.56l.59-.2v-.78a21.46,21.46,0,0,0-2.92-6.43c.58.39,1.16,0,1.55-.39a7.79,7.79,0,0,0,.78-2,19.2,19.2,0,0,0-.78-8.77l-1.16.59Z" transform="translate(0 0.02)" style="fill:#fefefe;fill-rule:evenodd"/><path d="M76.39,331.68a2.53,2.53,0,0,0-.19,1.17c-1.37,15-2.34,19.49,4.09,23,6.43,3.7,4.48,9.15,12.28,10.71,7.79,1.37,15.39-1,15.59-4.87.39-3.9-4.88-5.84-9.36-13.64a57.16,57.16,0,0,1-6.23-16.76Z" transform="translate(0 0.02)" style="fill:#fefefe;fill-rule:evenodd"/><path d="M85.16,340.06c0,4.09,2.53,7.6,5.46,10.33,3.12,2.53,6.62,4.68,9.16,7.79.78,1.17,1.75,2.54,1.56,3.9,0,2.53-2.54,4.09-4.68,5.26,2.14-.39,4.29-1,6.43-1.36,1.75-.39,3.9-1,4.68-2.53,1-1.56.39-3.71-.78-5.07a37.79,37.79,0,0,0-3.9-3.9c-2.14-2.34-3.31-5.46-4.48-8.38-1-2.34-2-4.87-2.93-7.21-.58-1.56-1.56-3.31-3.11-3.31Z" transform="translate(0 0.02)" style="fill:#e1e0f1;fill-rule:evenodd"/><path d="M31.76,335.38c.59,9-2.72,19.69-7,24.75-4.29,4.87-7.6,11.11,3.31,13.06s17-5.65,17.15-10.91,7-7.6,6.82-12.87a84.83,84.83,0,0,1,0-10.71Z" transform="translate(0 0.02)" style="fill:#fefefe;fill-rule:evenodd"/><path d="M36.64,342.79c1.17,1.95,4.67,1,6.23,2.73a5,5,0,0,1,.78,2.92,17,17,0,0,1-1.56,4.48c-1.75,4.09-3.5,8.19-6.43,11.5-2.73,3.31-6.82,5.85-11.11,5.85,5.46,2.92,13.26,2.53,17-2.54a30.8,30.8,0,0,0,2.34-4.28c1.95-3.51,4.67-6.63,6.62-10.14,1.76-3.7,2.54-8.18.2-11.69-.2.39-.78.78-1.17.58Z" transform="translate(0 0.02)" style="fill:#e1e0f1;fill-rule:evenodd"/><path d="M19.49,197.41l13.25,1,4.68-13.06c9.54,7.21,40.92,2.92,44.82,2.92S92,185.52,92,185.52l.78,9s12.08,2.73,19.88-4.09c-2.15-17.74-10.72-83.61-13.45-91.79-2.53-8-7.79-17-24.36-20.27-2.92,10.33-16.17,9.36-26.31,2.73-16,4.09-21.82,14.23-24.36,23.58-2.53,9.16-4.09,55.15-4.09,55.15Z" transform="translate(0 0.02)" style="fill:#4756df;fill-rule:evenodd"/><path d="M37.42,110.69c1.94,8.38-6.05,83-7.6,85.36,1.17,1.17,1.94,2.92,3.11,1.75.59-1.36,1.17-3.51,1.76-4.87A50.43,50.43,0,0,0,37,174Z" transform="translate(0 0.02)" style="fill:#343ea3;fill-rule:evenodd"/><path d="M103.09,194.88v-.39c.19-9.36-1.75-19.29-2.53-28.65-.78-6.82-2-13.25-2.54-20.27-.39-7.6-1-15.39-1.36-23-.39-3.51-.59-7-1.17-10.52a74.28,74.28,0,0,0-2.73-11.31,37.15,37.15,0,0,0-4.29-10.91A29.05,29.05,0,0,0,83,84.38c-.59-.58-7.6-5.84-7.21-6.43,0,0-4.29,7.8-11.7,8.38,2.34-.19,3.71,7.21,4.49,8.58,1.56,3.31,3.5,5.65,4.48,9.16a101.3,101.3,0,0,1,3.12,13.25c1.75,9.16,2.33,18.51,2.92,27.67l1.75,22.8c.59,9.55-2.92,13.45-7.4,20.85,5.84.59,12.66-1.56,18.32-2.53l1.17,9S99.78,196.05,103.09,194.88Z" transform="translate(0 0.02)" style="fill:#4756df;fill-rule:evenodd"/><path d="M85.94,46.58c0,3.12-3.12,4.68-6,4.29A1.16,1.16,0,0,0,78.34,52c0,8.38-6.24,13.84-13.84,16.37-.39,0-.58.39-.78,1l.2.58a1,1,0,0,0,.78.39,13.91,13.91,0,0,0,4.09-1l.2-.2a8.61,8.61,0,0,1-.2,1,12.6,12.6,0,0,0,.2,2.73,8.33,8.33,0,0,0,1.94,3.31A8.21,8.21,0,0,0,73.66,78a10.28,10.28,0,0,1-3.5,4.68,16,16,0,0,1-7.41,1.75h-.58a18.28,18.28,0,0,1-11.31-4.09,4.94,4.94,0,0,0,2.54-2.73c.58,0,1.17-.19,1.17-1A17.57,17.57,0,0,0,54,71.13c-.19-1-.39-1.75-.58-2.73h0a12.72,12.72,0,0,0,4.09.78.85.85,0,0,0,1-1.17l-.39-.58-.19-.2c-7.41-1.94-12.47-7.4-12.67-15.2a1.16,1.16,0,0,0-1.56-1.16c-2.73.39-5.84-1.17-5.84-4.29a3.49,3.49,0,0,1,5.65-2.73,1.15,1.15,0,0,0,1.75-1v-1c.39,0,.59-.19.39-.58a14.78,14.78,0,0,0-.39-3.12V25l.2-.59c.19-1,.39-2.14.58-3.12l.2-.78v-.38a57.83,57.83,0,0,0,25.72,3.5,42.33,42.33,0,0,0,4.48-.78,5.67,5.67,0,0,0,2,.39,16.31,16.31,0,0,0,.19,5.26c-.19,4.68-.19,9.55-.19,14.43a1.31,1.31,0,0,0,2,1A3.49,3.49,0,0,1,85.94,46.58Z" transform="translate(0 0.02)" style="fill:#fefefe;fill-rule:evenodd"/><path d="M75.81,78a15.15,15.15,0,0,1-15.2,7.41,2.7,2.7,0,0,0,1.56-1,3.31,3.31,0,0,0,1.16-1.94,9.45,9.45,0,0,0,.59-4.1V70a1,1,0,0,0,.78.39,13.91,13.91,0,0,0,4.09-1v.78A11.71,11.71,0,0,0,75.81,78Z" transform="translate(0 0.02)" style="fill:#e1e0f1;fill-rule:evenodd"/><path d="M85.94,46.58c0,3.12-3.12,4.68-6,4.29A1.16,1.16,0,0,0,78.34,52c0,8.38-6.24,13.84-13.84,16.37-.39,0-.58.39-.78,1A10.07,10.07,0,0,1,58.46,68c-.39,0-.78-.39-1.17-.58h.78a19.84,19.84,0,0,0,11.31-4.87,18.56,18.56,0,0,0,6-11.5c1-7.41-2.54-15-1.76-22.61C70.54,30.4,66.84,30.6,63.33,30a34.83,34.83,0,0,1-10.13-3.7A17.31,17.31,0,0,1,46,21.24l.2-.78v-.38a57.83,57.83,0,0,0,25.72,3.5,42.33,42.33,0,0,0,4.48-.78,5.67,5.67,0,0,0,2,.39,16.31,16.31,0,0,0,.19,5.26c-.19,4.68-.19,9.55-.19,14.43a1.31,1.31,0,0,0,2,1A3.49,3.49,0,0,1,85.94,46.58Z" transform="translate(0 0.02)" style="fill:#e1e0f1;fill-rule:evenodd"/><path d="M55,38.59V38a1.05,1.05,0,0,0-.58-.78,1.47,1.47,0,0,0-1-.19c-.2.19-.59.39-.59.58a4.49,4.49,0,0,0-.39,3.51c0,.39.2.59.59.78.19.2.58.2,1,.2a2.63,2.63,0,0,0,.78-.59c.19-.39.39-.78.19-1.17L54.76,40v-.58l.19-.59V39h0Z" transform="translate(0 0.02)" style="fill:#3f327e;fill-rule:evenodd"/><path d="M70.74,37.61a1.51,1.51,0,0,0-1-.39,1.48,1.48,0,0,0-.78.39c-.39.2-.39.59-.39,1a7.77,7.77,0,0,0-.2,2.14,1.54,1.54,0,0,0,.39,1,1.33,1.33,0,0,0,1,.58,1.66,1.66,0,0,0,1.16-.58,1.49,1.49,0,0,0,.39-1c0-.78-.19-1.36-.19-2.14A1.54,1.54,0,0,0,70.74,37.61Z" transform="translate(0 0.02)" style="fill:#3f327e;fill-rule:evenodd"/><path d="M66.45,56.52A11.7,11.7,0,0,1,62,58.47,7.91,7.91,0,0,1,56.9,57.3a.93.93,0,0,0-1.17.39.71.71,0,0,0,.39,1A8,8,0,0,0,62,60.41a8.89,8.89,0,0,0,6-2.53A1,1,0,0,0,66.45,56.52Z" transform="translate(0 0.02)" style="fill:#3f327e;fill-rule:evenodd"/><path d="M60.22,54.57h1.36a3.7,3.7,0,0,0,1.56-.2c.58-.19,1-.39,1.56-.58.19-.2.39-.78.19-1a1.06,1.06,0,0,0-1-.58,2.17,2.17,0,0,1-1.17.19,4.77,4.77,0,0,0-1.56.39h-.58L60,53a1.47,1.47,0,0,0-1,.19l-.2.59.39.58A2.08,2.08,0,0,1,60.22,54.57Z" transform="translate(0 0.02)" style="fill:#3f327e;fill-rule:evenodd"/><path d="M93.74,337.72a41.84,41.84,0,0,1-17.74.59c-2.53-18.91-4.09-37.81-5.65-56.71-.78-10.14-1.56-20.27-2.53-30.21-.78-8.18-1-16.95-2.93-24.94a14.4,14.4,0,0,0,.2-2.92c0-1.56.19-2.93.19-4.49.2-2.92.2-5.65.2-8.38.19-2.92,0-5.65,0-8.57-.2-2.73,0-5.85-1-8.38h-.39c-1,2.53-.58,5.65-.78,8.38-.19,2.92-.19,5.65-.19,8.57,0,2.73-.2,5.46-.2,8.38a35.5,35.5,0,0,0-.19,4.49,12.23,12.23,0,0,0-.19,2.53c-2,8.18-2.34,16.95-3.12,25.14-1,10.72-1.95,21.43-2.73,32.15-1.76,19.29-3.31,38.78-5.85,58.27a41.88,41.88,0,0,1-17.73-.78c1.95-40.53,2.53-81.26,3.9-121.8.19-10.33.78-20.85.78-31.18a9.91,9.91,0,0,0,3.11,1A95.71,95.71,0,0,0,57.68,191a117.48,117.48,0,0,0,32-2.92c-.19,24.75,1.17,49.69,1.76,74.44C92,287.64,92.57,312.58,93.74,337.72Z" transform="translate(0 0.02)" style="fill:#626dd1;fill-rule:evenodd"/><path d="M63.92,190S51.64,289.59,51.25,300.5c-.39,10.72-9,43.65-7.79,43.65s7.79-2.53,7.79-2.53L64.31,227.81Z" transform="translate(0 0.02)" style="fill:#343ea3;fill-rule:evenodd"/><path d="M99.39,200.92a3.09,3.09,0,0,0,0,1.36,8.58,8.58,0,0,1-2.34-5.84h2.34Zm-8,61.58c.58,25.14,1.17,50.08,2.34,75.22a41.84,41.84,0,0,1-17.74.59c-2.53-18.91-4.09-37.81-5.65-56.71-.78-10.14-1.56-20.27-2.53-30.21-.59-11.11-2.34-20.46-2.54-32.35.2-2.92.2-5.65.2-8.38.19-4.87,1.36-16.56-1.56-19.48.19,3.31-.39,7.21-.59,10.91-.19,2.92-.19,5.65-.19,8.57,0,2.73-.2,5.46-.2,8.38a35.5,35.5,0,0,0-.19,4.49,12.23,12.23,0,0,0-.19,2.53c-2,8.18-2.34,16.95-3.12,25.14-1,10.72-1.95,21.43-2.73,32.15-1.76,19.29-3.31,38.78-5.85,58.27a41.88,41.88,0,0,1-17.73-.78c1.95-40.53,2.53-81.26,3.9-121.8.19-10.33.78-20.85.78-31.18a9.91,9.91,0,0,0,3.11,1A95.71,95.71,0,0,0,57.68,191a117.48,117.48,0,0,0,32-2.92C89.45,212.81,90.81,237.75,91.4,262.5Zm9,90.42a61.73,61.73,0,0,0,4.48,5.65c.78,1,1.76,1.95,2,3.12.39,1.76-1,2.34-2.34,2.73-4.28,1.17-9.74,2.34-13.83.19-4.1-1.94-5.26-6.82-8.58-9.54a25.13,25.13,0,0,0-3.12-1.76,4.13,4.13,0,0,1-2.33-3.7c-.59-2.73-.39-5.65-.59-8.38l.2-.39a42.76,42.76,0,0,0,17.92-.78A49.46,49.46,0,0,0,100.36,352.92Zm-50.28-1c-.78,2.53-2.34,4.09-3.89,6-3.12,3.7-3.32,9-7.6,11.5-4.68,2.72-10.14,1.95-14.82.19-.58-.39-1.16-.39-1.55-1a7.71,7.71,0,0,1,0-2.15,28.14,28.14,0,0,1,1.55-3.5c1.17-2.15,2.54-4.1,3.71-6.44A42,42,0,0,0,32,343.18a45.45,45.45,0,0,0,18.51,1v.78A14.32,14.32,0,0,1,50.08,352ZM70.16,82.44a14.12,14.12,0,0,1-7.41,1.94,17.33,17.33,0,0,1-11.89-4.09,4.94,4.94,0,0,0,2.54-2.73c.58,0,1.17-.19,1.17-1A17.57,17.57,0,0,0,54,71.13c-.19-1-.39-1.75-.58-2.73h0a12.72,12.72,0,0,0,4.09.78c1.17.2,1.36-1.56.39-2-7.41-1.94-12.47-7.4-12.67-15.2a1.16,1.16,0,0,0-1.56-1.16c-2.73.39-5.84-1.17-5.84-4.29a3.49,3.49,0,0,1,5.65-2.73,1.15,1.15,0,0,0,1.75-1v-1c.39,0,.59-.19.39-.58a14.78,14.78,0,0,0-.39-3.12V25l.2-.59c.19-1.36.58-2.53.78-3.9v-.38a57.83,57.83,0,0,0,25.72,3.5,42.33,42.33,0,0,0,4.48-.78,6.82,6.82,0,0,0,2,.39,16.31,16.31,0,0,0,.19,5.26c-.19,4.68-.19,9.55-.19,14.43a1.31,1.31,0,0,0,2,1,3.49,3.49,0,0,1,5.65,2.73c0,3.12-3.12,4.68-6,4.29A1.16,1.16,0,0,0,78.34,52c0,8.38-6.24,13.84-13.84,16.37-1,.2-1,2.15.2,1.95A15.2,15.2,0,0,0,69,69.18a11.55,11.55,0,0,0,0,3.71,8.33,8.33,0,0,0,1.94,3.31A8.21,8.21,0,0,0,73.66,78,8.91,8.91,0,0,1,70.16,82.44Zm-47.55,116a25.39,25.39,0,0,1,4.67.78L26.7,205a4.63,4.63,0,0,0,.39,2.73,3.43,3.43,0,0,0,1.56,1.36h.78l.58.78c.2.39.59,1,1,1.56a11.47,11.47,0,0,1,.77,2.73c-.39-.19-.77-.19-1-.39a9.65,9.65,0,0,1-2.53-1,10.71,10.71,0,0,1-4.1-3.71A13,13,0,0,1,22.61,198.39Zm6.43-.2a9.22,9.22,0,0,0,2.33.2v.19a4.87,4.87,0,0,0,0,2.34c0,1.56.59,3.12.2,4.48a2.07,2.07,0,0,1-1.95,1.76c-.39,0-.58,0-.78-.2-.39-.58-.19-1.56-.39-2.14V199A1,1,0,0,0,29,198.19Zm53-188Zm32,179.09c-4.29-23-7.79-45.8-10.33-69-1-9.74-2-21-7-29.62a24.63,24.63,0,0,0-8.58-8.18C84.77,80.68,80.09,78,76.2,78V76.39a1,1,0,0,0-1.56-.58c-1.76-.78-3.12-1.75-3.71-3.51a7.41,7.41,0,0,1-.19-2.92,9,9,0,0,1,.19-1,19.43,19.43,0,0,0,9.94-15.2c4.1.2,7.8-2.72,7.41-7.21a5.9,5.9,0,0,0-7.41-5.06v-.39l3.51-6.43a21,21,0,0,0,2.73-6.82c.58-2.93-.2-6.24-2.34-8a2.7,2.7,0,0,0,.39-1.17,8,8,0,0,0,1.56-7.41C85.55,6,81.26,3.51,77,2.15A42.09,42.09,0,0,0,62.17.59a28.2,28.2,0,0,0-13.06,3.9,22.27,22.27,0,0,0-4.68,3.89c-1.56,1.56-2.34,3.51-3.7,5.26-.59,1-1.56,1-2.53,1.56a7.41,7.41,0,0,0-1.76,2.54,9.67,9.67,0,0,0,.2,7c1,2.93,2.14,5.65,3.31,8.38a49.07,49.07,0,0,0,2.92,6.63v1.17A6,6,0,0,0,35.27,46c-.39,4.49,3.51,7.41,7.6,7.21a18.21,18.21,0,0,0,8.58,14.23h0a4.72,4.72,0,0,0,.39,1.36,11.76,11.76,0,0,1,.39,2.54c.19,1.36.19,2.92.39,4.28a5,5,0,0,1-4.1,2.93,1.57,1.57,0,0,0-1,1C38,83.41,29.23,88.09,24.94,98c-4.28,10.32-4.67,21.82-5.06,32.93-.39,13.45-1.37,27.09-2.15,40.53-.39,7-.78,14.23-.58,21.24,0,1.56-.2,2.93,1,3.9a10.42,10.42,0,0,0,3.32,1.56,9.63,9.63,0,0,0-1,1.95,22.05,22.05,0,0,0-.39,3.51,13.33,13.33,0,0,0,2.15,6.62,12,12,0,0,0,4.87,4.49c1.56.78,4.67,2.14,6.23,1v-.19a1.49,1.49,0,0,0,.39-1,12.49,12.49,0,0,0-1.56-3.7L31,209.1l-.39-.19a2.9,2.9,0,0,0,1.75-1.17c1.17-1.36,1.17-3.31,1-4.87L32.74,200v-1.56a1.61,1.61,0,0,0,.19-1.37l-.39-.39-.39-.19a9.6,9.6,0,0,0-3.31-.39c-.78,0-1.56-.2-2.34-.2l-2.92-.58a5.63,5.63,0,0,0-1.95-.39c-1.56,0-1.95-.78-1.56-2.15-.78-2.33,0-6,0-8.37,0-6.05.39-11.89.59-17.93.78-11.7,1.36-23.19,1.75-34.89.2-10.32.59-20.85,3.9-30.59C30,90.23,38.59,85.36,48.52,81.07a19.76,19.76,0,0,0,15.4,6.24,14.93,14.93,0,0,0,9-2.93,9.45,9.45,0,0,0,2.73-3.5,4.39,4.39,0,0,0,.59-1.95c3.31,2.34,8,3.12,11.49,5.45a22.82,22.82,0,0,1,9.36,12.67c3.31,10.13,4.29,20.85,5.26,31.18,2,20.85,5.65,41.31,9.55,61.78a31.5,31.5,0,0,1-15,4.48l-.39-.39a.7.7,0,0,0-1,.39H94.12c-.38-2.53-.58-5.07-.77-7.6a1.49,1.49,0,0,0-.2-1.95,1.78,1.78,0,0,1-.19-1c-.78-12.87-1.37-25.53-2.15-38.4-.39-6.62-.78-13.25-1-20.07-.39-6.43-.39-13-2-19.29,0-.39-.59-.19-.59,0-.78,7,0,14,.39,20.85.2,6.43.59,12.86,1,19.29.58,12.87,1.17,25.73,2,38.59a112,112,0,0,1-30,3.7,114.62,114.62,0,0,1-16.37-1.56c-1.17-.19-3.12-.19-4.1-.78-1.75-1-1.75-1.94-1.94-3.89-.39-2.54,0-5.46,0-8,0-10.72.19-21.63.19-32.35,0-10.92.78-22.22-.58-32.94-.2-.19-.59-.39-.59,0-1.75,11.89-1,24.56-1.17,36.64,0,12.47-.39,24.94-.19,37.42a6.12,6.12,0,0,0,.78,3.7c-2,19.68-2,39.36-2.73,59.05-.59,21-1.17,42.28-1.95,63.33-.39,10.91-1,21.83-1.36,32.54v.59A57,57,0,0,1,24.36,358c-1.36,2.34-3.12,4.48-3.9,7-.78,2.15-1.17,4.88,1,6.24A25.52,25.52,0,0,0,30,373.58a18,18,0,0,0,7.8-1,15,15,0,0,0,5.65-4.28c1.75-2.34,2.14-5.46,3.7-7.8,2-2.53,4.09-4.28,5.07-7.4a15,15,0,0,0,.78-8.77v-.2c2.72-19.87,4.48-39.75,6.23-59.63C60,273.8,61,263.08,62,252.37c.39-5.07,1.17-10.53,1.75-15.79.39,5.26,1.17,10.33,1.56,15.4,1,10.13,1.76,20.65,2.54,31,1.75,19.29,3.31,38.59,5.84,57.88a1.25,1.25,0,0,0,1.17,1,32.79,32.79,0,0,0-.19,7.6A7,7,0,0,0,78,355.26a18.59,18.59,0,0,1,3.31,1.95,20.74,20.74,0,0,1,2.54,3.31A16.3,16.3,0,0,0,88.67,366c4.48,2.92,10.13,1.95,14.81.78,2.34-.39,4.87-1,5.46-3.51s-1-4.48-2.54-6.24a51.52,51.52,0,0,1-6.23-8.37,78.24,78.24,0,0,1-4.1-9.16,1.45,1.45,0,0,0,.2-.78c-1.37-25.34-2-50.67-2.53-76.2-.78-24.75-.59-49.89-3.12-74.64l.78-.19c.19,2.73.39,5.45.58,8.38.2,1.17,2.14,1.36,2.14,0a2.53,2.53,0,0,0,1.17.19,9,9,0,0,0,.39,3.9,14.22,14.22,0,0,0,1.37,2.34,6.87,6.87,0,0,0,2,2.14h.39v1.95a.84.84,0,0,0,.78.78,5.06,5.06,0,0,0,4.87-6c0-.39-.39-.39-.78-.39s-.59.39-.59.78a3.76,3.76,0,0,1-2.72,4.09v-4.87c0-1.36-.2-2.92-.2-4.48a17.47,17.47,0,0,0,3.31-.39c1.37-.39,2.54-.78,3.71-1.17,0,3.31.19,6.43.39,9.74.19,2.93.19,5.65-2.34,7.6A20.64,20.64,0,0,1,99,215c-1.37.2-2.34,0-2.54-1.56a19.53,19.53,0,0,1,.2-3.31c.19-.39-.59-.78-.78-.2-1.17,2-2.14,5.27.39,6.63,1.56.78,3.31.19,4.87-.2a15.31,15.31,0,0,0,4.09-1.75c2.93-1.56,4.87-3.9,4.87-7.21,0-2.14-.19-4.09-.39-6.24s-.38-4.48-.58-6.62c1.17-.59,2.53-1.17,3.9-2a1.22,1.22,0,0,0,1.17-.78h.19A1.45,1.45,0,0,0,114,189.23Z" transform="translate(0 0.02)" style="fill:#343ea3;fill-rule:evenodd"/><path d="M331.48,307.32l2.34,28.84s-3.12-2-3.9,5.65c-1,7.6-1.17,11.31,3.32,13.45,4.48,2.34,8.18,9,9.74,9.55s4.87,4.68,12.86,2.73c8.19-2,7.41-4.09,5.65-7.41-1.75-3.51-9.74-9.74-10.91-16.37s-6.24-8.38-6.24-8.38l1.37-30.2Z" transform="translate(0 0.02)" style="fill:#fefefe;fill-rule:evenodd"/><path d="M338.5,307.91l1.75,28.25s1.17.39,4.09,2.93c2.93,2.72,6.44,13.64,7.61,16.17s6.43,4.29,3.11,7.41c-3.31,2.92-12.08,2.14-12.08,2.14s2.73,4.29,12.86,2.73c10.14-1.37,8.38-3.9,5.65-7.41-2.72-3.7-8.77-11.3-10.91-16.37-2.34-5.06-2.53-6.62-6.24-8.38,1.17-17.93,1-29,1-29Z" transform="translate(0 0.02)" style="fill:#e1e0f1;fill-rule:evenodd"/><path d="M293.68,306.74c-1.17,1.56-1.95,26.11-1.95,26.11s-4.48-.58-6.63,7.41c-2.34,7.79-4.09,16.17-8.57,21.82-4.48,5.46-1,10.52,5.65,10.52C289,372.6,295,373,298,364c2.73-9,6.63-5.65,7.41-13.45,1.56-12.66-2.14-10.71-2.14-10.71l3.89-32.16Z" transform="translate(0 0.02)" style="fill:#fefefe;fill-rule:evenodd"/><path d="M274.58,367.54a16.08,16.08,0,0,0,8,1.36,7.42,7.42,0,0,0,2.92-1,9.17,9.17,0,0,0,1.37-2.34A132.1,132.1,0,0,1,299.33,344a3.48,3.48,0,0,0,.78-1.95c-.39-1.56-2.73-1.36-3.51-2.53-1-1.37,0-4.68.2-6.24a132.85,132.85,0,0,1,1.94-15,80.14,80.14,0,0,1,1.95-9.35c1.95,0,4.29-.78,6.24-.78-3.7,8.77-1.37,19.1-3.12,28.65-.19,1.17-.58,2.34-.78,3.31.78-.58,2,1.36,2,2.34.19,3.12.19,6.24.19,9.35a17.15,17.15,0,0,1-.19,3.12,14.48,14.48,0,0,1-2.53,3.51,31.09,31.09,0,0,0-4.1,5.85,26.34,26.34,0,0,1-2.33,3.89,12.22,12.22,0,0,1-8.77,3.9,29.37,29.37,0,0,1-9.94-1.56Z" transform="translate(0 0.02)" style="fill:#e1e0f1;fill-rule:evenodd"/><path d="M352.72,195.66a6.57,6.57,0,0,0,4.1,6.82,15.46,15.46,0,0,1,.39,3.12,4.1,4.1,0,0,1-1.37,2.53,9.71,9.71,0,0,0-1.36.58c-1.56,1-2,2.93-2,4.88a2.34,2.34,0,0,0,.39,1.56,3.37,3.37,0,0,0,1.36.19,37.24,37.24,0,0,0,8-2.34c6.43-2.92,5.27-14.61,1.56-19.29C362.66,194.29,352.72,195.07,352.72,195.66Z" transform="translate(0 0.02)" style="fill:#fefefe;fill-rule:evenodd"/><path d="M279.06,196.24c-1.36.59-1.75,2.34-1.56,3.9,0,3.31.39,6.82,2.15,9.55a13.09,13.09,0,0,0,10.13,5.85,9.73,9.73,0,0,0-2.73-6.83,3.6,3.6,0,0,0,2.34-1.75,7.55,7.55,0,0,0,.39-2.92,22.44,22.44,0,0,0-.58-6.24,16.76,16.76,0,0,0-5.85-1.75Z" transform="translate(0 0.02)" style="fill:#fefefe;fill-rule:evenodd"/><path d="M294.07,184.94c-.78-.58-2.34,122.19-2.34,122.19s12.86,3.11,19.68.58c5.26-56.9,10.33-81.65,10.33-81.65L327,306.54s6.24,5.07,18.71-1.36c.58-23.78,1.56-118.29,1.56-118.29S306.93,196.44,294.07,184.94Z" transform="translate(0 0.02)" style="fill:#6b74b5;fill-rule:evenodd"/><path d="M320.38,190.59l3.89,18.12S333.82,228.2,334.6,238s5.07,21,2.53,22c-2.53,1.17-8.76,2.53-5.26,4.09,3.32,1.36,4.68,1.95,4.68,1.95l.58,42.29,9.36-.59,1-121S329.92,194.29,320.38,190.59Z" transform="translate(0 0.02)" style="fill:#5a61a8;fill-rule:evenodd"/><path d="M301.86,307.91S306,271.85,306,268.15s-4.09-4.68-6-7.21,5.07,1,6.63-1.75c1.75-2.73,7.79-30.6,9.35-39.76a103.73,103.73,0,0,1,5.26-19.1l1.17,30-10.91,77.36Z" transform="translate(0 0.02)" style="fill:#5a61a8;fill-rule:evenodd"/><path d="M275.16,195.66a46.82,46.82,0,0,0,17.74,1.17l1.17-11.89s8,5.65,25.33,5.46c17.34-.39,29.43-5.07,29.43-5.07l2.34,10.72s8.38.78,18.7-5.26c-2.53-18.13-8.57-57.3-9.55-64.7-.77-7.21-2.14-21.83-5.65-31.57C351.36,84.77,333.24,78,333.24,78s-5.46,28.26-7.6,35.86c-2.34,7.6-4.29,17.15-4.29,17.15s-9.35-27.87-11.5-34.3a38,38,0,0,1-1.36-12.86l-3.9-4.29s-16,6-21.63,19.68c-5.46,13.84-6.43,56.13-6.43,56.13Z" transform="translate(0 0.02)" style="fill:#4d4795;fill-rule:evenodd"/><path d="M343,46.58c0,3.12-3.12,4.68-5.85,4.29A1.15,1.15,0,0,0,335.58,52c-.2,3.71-3.12,7.22-5.27,10.14-2.33,2.73-4.87,5.26-6.62,8.38-.59,1,.78,2.14,1.56,1.17l.58-.78c0,.78.2,1.36.2,2a8.24,8.24,0,0,0,2,3.31A6,6,0,0,0,330.7,78a9.06,9.06,0,0,1-3.5,4.68,16,16,0,0,1-7.41,1.75,17.33,17.33,0,0,1-11.89-4.09,4.94,4.94,0,0,0,2.54-2.73c.58,0,1.17-.19,1.17-1a17,17,0,0,0-.39-5.46c-.2-.78-.39-1.56-.59-2.14a3.87,3.87,0,0,1,.78,1c.78,1,2.14-.39,1.56-1.36-2.92-5.46-10.33-9.74-10.52-16.57a1.49,1.49,0,0,0-1.56-1.36c-2.93.59-6-1-6-4.09a3.44,3.44,0,0,1,5.65-2.73,1.31,1.31,0,0,0,1.95-1v-.59a1.3,1.3,0,0,0,.78-1.17,91.47,91.47,0,0,1-.2-19.29,35.2,35.2,0,0,0,3.7,2.14,25.56,25.56,0,0,0,4.68,2.34c2.14.78,4.68.78,6-1.17a6.33,6.33,0,0,0,.78-2.73c4.87,3.71,11.5,7.21,17.35,5.46,0,5.07-.2,9.94,0,15a1.15,1.15,0,0,0,1.75,1A3.49,3.49,0,0,1,343,46.58Z" transform="translate(0 0.02)" style="fill:#fefefe;fill-rule:evenodd"/><path d="M307.32,20.27c-1-.58-1.17,1.17-.59,2.14a16.31,16.31,0,0,0,5.46,6c2.53,1.37,6,1,7.41-1.55a25.38,25.38,0,0,0,10.13,6.62c.58,7.21,1,14.62-1.17,21.44S321,68,313.94,69a6.21,6.21,0,0,0,6.24,2.14A21.1,21.1,0,0,1,320.76,85a12.8,12.8,0,0,0,12.67-8.58,8.05,8.05,0,0,1-6.82-7,33.36,33.36,0,0,0,10.52-17.54c3.12,1.17,7-1.56,6.83-4.87a5.16,5.16,0,0,0-7-4.48l.58-15.2a11.5,11.5,0,0,0-.58-4.49,9,9,0,0,0-2.73-2.72c-3.9-2.73-8.18-4.88-12.86-5.07-4.68-.39-9.55,1.17-12.47,4.68Z" transform="translate(0 0.02)" style="fill:#e1e0f1;fill-rule:evenodd"/><path d="M312.19,38.59V38a2.76,2.76,0,0,0-.58-.78,2.18,2.18,0,0,0-1-.19,2.76,2.76,0,0,0-.78.58,4.49,4.49,0,0,0-.39,3.51c0,.39.39.59.59.78a2.42,2.42,0,0,0,1.17.2c.19-.2.58-.39.78-.59,0-.39.19-.78,0-1.17v-1l.19-.59L312,39h0Z" transform="translate(0 0.02)" style="fill:#3f327e;fill-rule:evenodd"/><path d="M328,37.61a3.4,3.4,0,0,0-1-.39,1.33,1.33,0,0,0-1.36,1.37,7.77,7.77,0,0,1-.2,2.14,1.09,1.09,0,0,0,.59,1,1.06,1.06,0,0,0,1,.58,1.08,1.08,0,0,0,1-.58,1.54,1.54,0,0,0,.39-1,7.77,7.77,0,0,0-.2-2.14A1.52,1.52,0,0,0,328,37.61Z" transform="translate(0 0.02)" style="fill:#3f327e;fill-rule:evenodd"/><path d="M319.21,60.41a8.43,8.43,0,0,0,5.84-2.53c1-1-.58-2.34-1.56-1.36A11.7,11.7,0,0,1,319,58.47a7.91,7.91,0,0,1-5.07-1.17.7.7,0,0,0-1,.39.56.56,0,0,0,.19,1A8.53,8.53,0,0,0,319.21,60.41Z" transform="translate(0 0.02)" style="fill:#3f327e;fill-rule:evenodd"/><path d="M317.26,54.57h1.36a3.7,3.7,0,0,0,1.56-.2c.58-.19,1-.39,1.56-.58.39-.2.39-.78.39-1a1.08,1.08,0,0,0-1-.58,3.35,3.35,0,0,1-1.36.19,6.29,6.29,0,0,0-1.56.39h-.39l-.78.2c-.39,0-.58,0-.78.19l-.39.59.59.58A1.16,1.16,0,0,1,317.26,54.57Z" transform="translate(0 0.02)" style="fill:#3f327e;fill-rule:evenodd"/><path d="M353.89,194.49l-.58-.39c-.39-.2-.78.19-1,.58-.38,0-1-.19-1.36-.19-.19-2.53-.58-5.07-.78-7.6a1.32,1.32,0,0,0-.19-1.95v-1c-.78-12.67-1.37-25.53-2.15-38.2-.39-6.82-.78-13.45-1.17-20.07-.19-6.43-.19-13.25-1.75-19.49,0-.19-.59-.19-.59.19-.77,6.83,0,13.84.39,20.66.2,6.43.59,12.86.78,19.29.78,12.87,1.37,25.92,1.95,38.78a104.72,104.72,0,0,1-25.92,3.32c.2-13.64.39-27.29.2-40.93l.19-.19a175.94,175.94,0,0,0,11.5-32.74c2.73-10.91,4.87-22,4.68-33.32a34.18,34.18,0,0,1,6.62,3.11c4.88,3.12,7.6,7.41,9.36,12.67,3.31,10.13,4.29,20.85,5.26,31.38,1.95,20.65,5.65,41.31,9.35,61.77A32,32,0,0,1,353.89,194.49Zm2.34,6.62v1.17a9.2,9.2,0,0,1-2.34-5.84,9.64,9.64,0,0,0,2.34,0ZM345.9,246.33c-.78,19.68-1,39.36-.19,58.85a41,41,0,0,1-17.54.78c-1.56-13.64-2.53-27.29-3.12-40.93-.39-6.43-.58-12.86-1-19.29-.59-6.24-.59-13.45-2.34-19.68a10.54,10.54,0,0,0,.19-2.53,33.74,33.74,0,0,0,.2-4.49c.19-2.92.19-5.65.39-8.38,0-2.92,0-5.65-.2-8.57,0-2.73.2-5.85-1-8.38H321c-1,2.53-.58,5.65-.78,8.38,0,2.92-.19,5.65-.19,8.57,0,2.73-.2,5.46-.2,8.38,0,1.56-.19,2.93-.19,4.49,0,.77-.2,1.55-.2,2.14-1.75,6.23-1.95,13.45-2.53,19.68-.78,6.63-1.37,13.25-2.15,19.88-1.17,13.83-2.72,27.67-4.48,41.31a40.84,40.84,0,0,1-17.54-.78c1-19.68,1.17-39.36,1.17-59.24.2-19.49,1.17-39.17.78-58.66a10,10,0,0,0,3.12,1,100.25,100.25,0,0,0,17,2.14,108.55,108.55,0,0,0,31.77-2.92C346.1,207.55,346.49,227,345.9,246.33Zm-42.09,79.31c-.39,2.73-.78,5.26-1,7.79-.2,1.56-.39,2.93-.59,4.49,0,.58-.19,1.36-.19,2.14a10.27,10.27,0,0,0-.78,1.56l-.2.39v.19l-.19.2-.39-.2a1.2,1.2,0,0,0-.2-1.17,11.15,11.15,0,0,0-5.45-3.11,7.46,7.46,0,0,0-2.93-.2c.2-1,.2-2,.39-3.12a36,36,0,0,1,.39-4.28l.59-7.6c.19-2.54.39-4.88.39-7.41a25.48,25.48,0,0,0,.19-3.9,15.14,15.14,0,0,0-.19-2.92,39.89,39.89,0,0,0,12.66,1C305.56,314.92,304.59,320.38,303.81,325.64Zm.39,17.54v1.95a8.29,8.29,0,0,0-.19,1,3.13,3.13,0,0,0,.39,1,12,12,0,0,1-1,5.84c-1.17,2.73-3.31,4.48-4.87,6.82-1.36,2.15-1.75,4.87-3.31,7a11.71,11.71,0,0,1-6.63,4.29,17.75,17.75,0,0,1-9-.78,11.28,11.28,0,0,1-2.34-.78c-1.17-.39-1.56-1.37-1.37-2.73a15.7,15.7,0,0,1,1.95-4.09c2.73-4.88,5.65-9.75,7.21-15.2a24.27,24.27,0,0,0,1-7.41c.19-2.92,1.17-4.87,3.89-6l.2-.2v.39a13.12,13.12,0,0,0-.2,3.9h-.19c-.78-.19-1.56.2-1.56,1-.58,3.11-1.36,6.23-2,9.35-.78,2.73-1.75,5.26-2.53,8l-.39.19c-.39,0-.59.39-.59.78.2.2.39.59.78.59h1.76c.39,0,.58.19.78.19a1.7,1.7,0,0,1,1,.2,7.25,7.25,0,0,1,2.92,1.75,1.1,1.1,0,1,0,1.56-1.56l-.58-.39a41.87,41.87,0,0,0,2.73-3.31,28,28,0,0,0,2.73-3.9c.78-1.17,1.75-2.33,2.53-3.7a12.56,12.56,0,0,1,1.36-1.95v-.19c1.37,0,2.15-1.17,2.73-2.15a8.41,8.41,0,0,1,1-1.36v.19h0v.39C304,342.59,304.2,342.79,304.2,343.18Zm-13.64-3.51h1.17c.78.2,1.75.2,2.53.39a8.69,8.69,0,0,1,4.29,2.53l.39.2-.59,1.17c-.39.58-.78,1.36-1.16,2a26,26,0,0,1-2.54,3.89c-.78,1.37-1.56,2.54-2.34,3.9a24.78,24.78,0,0,0-2.14,3.9,5.93,5.93,0,0,0-2.53-1.17,8.24,8.24,0,0,0-2.15-.19h-.19a53.57,53.57,0,0,0,2.92-7A57.31,57.31,0,0,0,290.56,339.67Zm29-196c-5.27-8.58-8.19-18.71-11.31-28.07-1.75-5.26-3.12-10.52-4.48-15.78s-2.34-10.91-4.09-16c1.75-1,3.7-1.75,5.84-2.73a4.48,4.48,0,0,0,1.37,1.37c1,17.14,8.18,33.12,11.89,49.69a1.07,1.07,0,0,0,1.17.78C319.79,136.61,319.6,140.12,319.6,143.63Zm-9.16-66.07c.58,0,1.17-.19,1.17-1a17,17,0,0,0-.39-5.46c-.2-.78-.39-1.56-.59-2.14a3.87,3.87,0,0,1,.78,1c.78,1,2.14-.39,1.56-1.36-2.92-5.46-10.33-9.74-10.52-16.57a1.49,1.49,0,0,0-1.56-1.36c-2.93.59-6-1-6-4.09a3.44,3.44,0,0,1,5.65-2.73,1.31,1.31,0,0,0,1.95-1v-.59a1.3,1.3,0,0,0,.78-1.17,91.47,91.47,0,0,1-.2-19.29,35.2,35.2,0,0,0,3.7,2.14c.59.39,1.17.59,1.76,1a10.29,10.29,0,0,0,2.92,1.36c2.14.78,4.68.78,6-1.17a6.33,6.33,0,0,0,.78-2.73c4.87,3.71,11.5,7.21,17.35,5.46,0,5.07-.2,9.94,0,15a1.15,1.15,0,0,0,1.75,1A3.49,3.49,0,0,1,343,46.58c0,3.12-3.12,4.68-5.85,4.29A1.15,1.15,0,0,0,335.58,52c-.2,3.71-3.12,7.22-5.27,10.14-2.33,2.73-4.87,5.26-6.62,8.38-.59,1,.78,2.14,1.56,1.17l.58-.78c0,.78.2,1.36.2,2a8.24,8.24,0,0,0,2,3.31A6,6,0,0,0,330.7,78a9.06,9.06,0,0,1-3.5,4.68A17.6,17.6,0,0,1,321,84.38h-1.17a17.33,17.33,0,0,1-11.89-4.09A4.94,4.94,0,0,0,310.44,77.56ZM321,87.31a13.72,13.72,0,0,0,9-2.93l.2-.19c-1.37,6.82-2.92,13.64-4.48,20.46-1.76,7.41-3.71,14.42-5.65,21.63-3.71-14.22-9-28.06-11.5-42.48A21.63,21.63,0,0,0,321,87.31Zm12.28-8.38c1.36.78,2.73,1.36,4.09,2.14-1.36,11.11-2.73,22-5.46,32.94a174.51,174.51,0,0,1-10.13,29.42c-.2-4.29-.2-8.38-.39-12.47a4.43,4.43,0,0,0,.58-1,214,214,0,0,0,6.24-25.13,218.74,218.74,0,0,0,3.7-22.61,4.74,4.74,0,0,0,.78-1.36A4.39,4.39,0,0,0,333.24,78.93ZM279.45,198.39a31.05,31.05,0,0,1,4.87.78c-.19,1.75-.39,3.7-.58,5.65a5,5,0,0,0,.19,2.92,2.89,2.89,0,0,0,1.76,1.17l.58.19.59.78a11.18,11.18,0,0,1,1,1.56,12.34,12.34,0,0,1,.78,2.54,1.7,1.7,0,0,1-1-.2,11.61,11.61,0,0,1-2.34-1A13.16,13.16,0,0,1,281,209.1C278.87,206,278.67,201.89,279.45,198.39Zm6.63-.2c.78,0,1.36.2,2.14.2v.19a4.87,4.87,0,0,0,0,2.34c.2,1.56.59,2.92.2,4.48-.2,1-.78,1.76-1.76,1.76-.39,0-.78,0-1-.2-.39-.58-.2-1.56-.2-2.14V199C285.69,198.78,285.88,198.39,286.08,198.19Zm84.77-9c-4.29-23-7.6-45.8-10.14-69-1.16-9.74-1.94-21-7-29.62a24.11,24.11,0,0,0-8.58-8c-3.11-1.95-8-4.68-11.88-4.68V76.39h0c-.2-.78-1-.78-1.56-.58-1.56-.78-3.12-1.75-3.7-3.51a7.41,7.41,0,0,1-.2-2.92c0-.39.2-.59.39-1a78.65,78.65,0,0,0,5.07-6.23c2.14-2.73,4.09-5.65,4.67-8.77,4.1,0,8-2.73,7.6-7.41a6,6,0,0,0-7.6-5.06V39.17a30.86,30.86,0,0,0,1.95-14.61h0a8.54,8.54,0,0,0,1.37-4.1c.39-4.09-1.76-7.6-4.29-10.32A29.12,29.12,0,0,0,318.23.2c-6.62-.78-15,.39-19.29,5.84A9.75,9.75,0,0,0,298.16,17l.58.78h-.19c-2.53,3.11-2.92,7.6-2.34,11.49a42,42,0,0,0,3.7,11.5c-3.5-.78-7.21,1.56-7.4,5.26-.59,4.49,3.51,7.41,7.6,7.21.78,5.07,4.87,9.55,8.38,13.45v.78c.19.39.19.78.39,1.36a11.76,11.76,0,0,1,.39,2.54,32.57,32.57,0,0,1,.39,4.28,4.68,4.68,0,0,1-3.9,2.93c-.59,0-1,.58-1.17,1-9.35,3.9-18.32,8.38-22.61,18.32-4.28,10.33-4.67,22-5.06,32.93-.39,13.65-1.56,27.09-2.15,40.73-.58,7-.78,14.23-.78,21.24.2,1.37,0,2.93,1.17,3.9a7.4,7.4,0,0,0,3.32,1.37,9.27,9.27,0,0,0-1.37,5.65,13.11,13.11,0,0,0,1.95,6.62,11.37,11.37,0,0,0,5.07,4.49c1.56.78,4.48,2.14,6,.78h0c.19-.39.39-.59.39-1a9.77,9.77,0,0,0-1.56-3.9,11.1,11.1,0,0,0-1.17-1.56l-.19-.19a3.58,3.58,0,0,0,1.75-1.17c1.17-1.36,1.17-3.31.78-5.07,0-1-.39-1.75-.39-2.72a4.09,4.09,0,0,1,0-1.56c0-.39.19-1,.19-1.37l-.58-.39-.39-.19a8.56,8.56,0,0,0-3.12-.39,11.63,11.63,0,0,0-2.53-.2c-1-.19-1.75-.39-2.73-.58-.78-.2-1.36-.39-1.95-.59-1.56,0-2.14-.58-1.75-2-.59-2.33,0-6,0-8.57.19-5.85.39-11.89.78-17.73q1.17-17.55,1.75-35.08c.2-10.13.59-20.66,3.9-30.4,2.92-8.38,8.77-13.25,16-17,.19,5.27,1.75,10.53,2.92,15.59,1.37,5.85,3.12,11.7,4.87,17.54,1.76,5.65,3.71,11.11,5.85,16.76a46.83,46.83,0,0,0,6.43,12.86c-.19,14,.2,27.87.2,41.9h-2.15a114.9,114.9,0,0,1-16.37-1.56,14.78,14.78,0,0,1-4.09-.78c-1.56-1-1.56-1.94-1.95-3.89-.19-2.54.2-5.46.2-8,0-10.72,0-21.63.19-32.35,0-10.92.78-22.22-.58-32.94-.2-.39-.59-.39-.59-.19-1.75,12.08-1,24.75-1.17,36.83-.19,12.47-.39,24.94-.39,37.42a6,6,0,0,0,1,3.7c-2.34,19.68-1.76,40-1.95,59.63-.2,20.07-.39,40.14-1.56,60.22a1.09,1.09,0,0,0,1,1.17c.39.19,1,.19,1.37.39-.78,1.94-.59,4.48-.59,6.62-.19,2.34-.58,4.87-.78,7.21l-.58,7.6c-.2,1.17-.2,2.34-.39,3.51,0-.39-.39-.58-.78-.39a6.74,6.74,0,0,0-4.48,4.09c-.78,2.54-.78,5.26-1.37,7.6a43.18,43.18,0,0,1-4.09,10.92c-1.56,2.92-3.9,5.65-5.07,9-1,2.53-1.55,5.65,1.37,7a25.38,25.38,0,0,0,9.94,2.14,14.36,14.36,0,0,0,8.57-2.53,12.84,12.84,0,0,0,4.87-7,20.38,20.38,0,0,1,3.51-5.46,15.35,15.35,0,0,0,2.92-4.09,17.09,17.09,0,0,0,1.17-10.33h0v-1a24.73,24.73,0,0,0-.78-4.09,1.2,1.2,0,0,0-1.55-1l-.39.2c.19-1.56.39-3.12.58-4.49.39-2.92.78-5.65,1.36-8.57q1.17-7.89,1.76-15.78c1.17-.2,2.53-.39,3.9-.59h.19l.2-.19.19-.2h.2l.19-.39v-.19h0q2.63-20.76,4.68-41.51c.78-6.43,1.36-12.86,1.95-19.3.39-3.5.78-7,1.17-10.71a7.48,7.48,0,0,1,.19-1.95v1.36c.19,3.51.58,7,.78,10.53.58,6.62.78,13.25,1.17,19.68.58,13.83,1.56,27.48,3.31,41.31h.2v.39l.19.2.2.19h.19l.2.2c1.56.19,3.11.39,4.48.58,0,8.77,2.14,17.34,2.34,26.11a1,1,0,0,0,1.95,0c-.39-8.77-2.15-17.34-3.32-26.11a45.33,45.33,0,0,0,11.5-.58,252.36,252.36,0,0,1,.58,27.08l.39.59v.19a4.12,4.12,0,0,0-3.11-.58c-1.17.19-3.51,1-4.29,2.53a.38.38,0,0,0-.59.2,6.77,6.77,0,0,0-.19,1.95l-.2-.2-.38-.39h0v-.19l-.2-.2h-.19l-.39-.78c-.2-.19-.2-.39-.2-.78a1.48,1.48,0,0,1-.39-.78l-.39-.58-.39-.2h-.39l-.19.39v1.76a5.65,5.65,0,0,0,.58,1.95A3.63,3.63,0,0,0,335,342c.2.19.59.39.78.58a3.5,3.5,0,0,0,1.36.39,12.27,12.27,0,0,1,1,2.34c1.17,2.34,2.14,4.87,3.31,7.21,1,1.76,2.15,3.71,4.09,4.29,1.37.39,4.88,0,4.49-1.95-.2-.39-.39-.78-.78-.78-.78,0-1.17.78-1.76.78a2.25,2.25,0,0,1-1.95-.39c-1.55-1-2.14-2.92-2.92-4.48-1-1.75-1.75-3.7-2.73-5.65-.39-1-1-2-1.36-2.93-.2-.58-.39-1.36-.59-1.94-.19-1.17,1.56-1.76,2.34-2.15a3.82,3.82,0,0,1,2.54,0c.78.2,1.17,1,1.55,1.76a30.92,30.92,0,0,1,1,3.31,56.26,56.26,0,0,0,2.73,6,20.73,20.73,0,0,0,1.56,2.92,10.27,10.27,0,0,0,.78,1.56c.39.59.78,1,.19,1.56-.58.39-.58,1,0,1.17,1.37.59,2.14-1,1.95-2.14a10.73,10.73,0,0,0-1-2.15,9.14,9.14,0,0,1-1-1.95c-1.56-3.11-2.73-6.23-3.9-9.15-.39-1.37-.58-2.93-1.56-3.71h.2c1.36.39,1.56,1.76,1.95,2.93s1,2.53,1.36,3.7a62.64,62.64,0,0,0,4.29,8A55.76,55.76,0,0,0,358,358c1.17,1.56,5.45,5.46,1.94,7-2.14,1.17-5.45,1.56-8,1.76a12.35,12.35,0,0,1-7.41-1.37c-2.34-1.16-3.51-3.5-5.07-5.65a13,13,0,0,0-4.87-4.87c-1.56-.78-2.92-1.56-3.31-3.31-.59-1.56-.39-3.31-.59-4.87v-4.88c0-.78.78-6.23,2.15-5.84.39,0,.78-.59.39-.78-5.07-2.34-4.49,14-4.29,16.17a7,7,0,0,0,2.14,3.9c1.17,1.17,2.73,1.56,4.1,2.53,2.53,2.15,3.7,5.27,5.84,7.6,4.68,4.88,11.89,3.71,17.74,2.34a6.77,6.77,0,0,0,3.89-2,5,5,0,0,0,.59-4.09,10.19,10.19,0,0,0-2.34-3.51c-1.17-1.36-2.53-2.92-3.7-4.48a56.27,56.27,0,0,1-6.43-11.11c-1.17-2.53-1.76-7.6-5.07-8a174.87,174.87,0,0,0-.2-26.69c.59-.2,1.17-.2,1.76-.39a1.45,1.45,0,0,0,1-1.17c-1-20.08-.58-40-.19-60,.58-19.3,1.75-39.17-.39-58.47l.58-.19c.2,2.73.59,5.65.78,8.38a1.08,1.08,0,0,0,2.15,0,1.47,1.47,0,0,0,1,.19,12.55,12.55,0,0,0,.58,3.9,7.56,7.56,0,0,0,1.17,2.53,10.23,10.23,0,0,0,2.15,2h.19v1.95a.84.84,0,0,0,.78.78,5.23,5.23,0,0,0,5.07-5.85,1.08,1.08,0,0,0-1-.58.71.71,0,0,0-.39,1,3.76,3.76,0,0,1-2.92,3.9,36.54,36.54,0,0,0,0-4.68v-4.67a22.22,22.22,0,0,0,3.31-.39,24.22,24.22,0,0,0,3.51-1c.2,3.12.2,6.24.39,9.55.2,2.93.2,5.65-2.34,7.6a20.64,20.64,0,0,1-6.82,2.73c-1.36.39-2.14,0-2.34-1.36a9.26,9.26,0,0,1,.2-3.32c0-.58-.59-1-1-.39-1.16,2-1.94,5.27.39,6.63,1.56,1,3.51.19,4.88-.2a28,28,0,0,0,4.28-1.55,8.7,8.7,0,0,0,4.88-7.41c0-2.14-.39-4.09-.59-6.24s-.39-4.28-.58-6.62a24.79,24.79,0,0,0,3.89-2,1.12,1.12,0,0,0,1.37-.78h0A1.41,1.41,0,0,0,370.85,189.23Z" transform="translate(0 0.02)" style="fill:#3f327e;fill-rule:evenodd"/><path d="M308.49,83.8a241.92,241.92,0,0,0,6.62,25.92c2.15-7.41,4.49-14.62,5.27-22.41A21.24,21.24,0,0,1,308.49,83.8Z" transform="translate(0 0.02)" style="fill:#e1e0f1;fill-rule:evenodd"/><path d="M329.92,84.38a13.72,13.72,0,0,1-9,2.93h-.58c-.78,7.79-3.12,15-5.27,22.41,1.76,5.45,3.32,11.11,4.88,16.56,1.94-7.21,3.89-14.22,5.65-21.63,1.56-6.82,3.11-13.64,4.48-20.46Z" transform="translate(0 0.02)" style="fill:#b6b5db;fill-rule:evenodd"/><path d="M320.76,70.55l-.77.19h-.59l-.58.2h-.39a10.07,10.07,0,0,1-2.54-.2,1.55,1.55,0,0,0-.78.39.87.87,0,0,0,.2,1,8.15,8.15,0,0,0,3.12.78,3.25,3.25,0,0,0,1.36,0,4.75,4.75,0,0,0,1.56-.2c.39-.19,1-.78.78-1.36A1.11,1.11,0,0,0,320.76,70.55Z" transform="translate(0 0.02)" style="fill:#3f327e;fill-rule:evenodd"/><path d="M307.51,166a31.28,31.28,0,0,0,6-.2c.39,0,1-.19,1-.78v-.39a1,1,0,0,0-1-1c-1.94.19-4.09,0-6,.19h-6a.79.79,0,1,0,0,1.56C303.42,165.84,305.56,165.84,307.51,166Z" transform="translate(0 0.02)" style="fill:#3f327e;fill-rule:evenodd"/><path d="M340.25,162.33a7.37,7.37,0,0,0-1.95.59c-1,.19-2.14.58-3.11.78a19.25,19.25,0,0,1-3.32.58,5.24,5.24,0,0,0-1.75.2c-.59,0-1.17.19-1.75.19-.78.2-1,1-.2,1.37a11,11,0,0,0,3.51.58,20.55,20.55,0,0,0,3.31-.19,11,11,0,0,0,3.51-.59,6.73,6.73,0,0,0,1.75-.78c.78-.19,1.37-.58,1.37-1.36A1.47,1.47,0,0,0,340.25,162.33Z" transform="translate(0 0.02)" style="fill:#3f327e;fill-rule:evenodd"/><polygon points="171.88 340.67 129.4 340.67 129.4 337.74 171.88 337.74 171.88 340.67" style="fill:#3f327e;fill-rule:evenodd"/><polygon points="133.1 346.71 133.1 333.26 117.51 339.89 133.1 346.71" style="fill:#3f327e;fill-rule:evenodd"/><polygon points="263.47 340.67 224.11 340.67 224.11 337.74 263.47 337.74 263.47 340.67" style="fill:#3f327e;fill-rule:evenodd"/><polygon points="259.77 346.71 259.77 333.26 275.55 339.89 259.77 346.71" style="fill:#3f327e;fill-rule:evenodd"/><text transform="translate(175.39 351.19)" style="isolation:isolate;font-size:41.273643493652344px;fill:#3f327e;font-family:MyriadPro-Regular, Myriad Pro">6<tspan x="21.17" y="0" style="letter-spacing:0.01097855584447465em">f</tspan><tspan x="33.68" y="0">t</tspan></text></g></g></svg>