<svg xmlns="http://www.w3.org/2000/svg" viewBox="0 0 156.12 153.12"><title>_coughAsset 5</title><g id="Layer_2" data-name="Layer 2"><g id="OBJECTS"><path d="M73.72.21A54.61,54.61,0,0,0,65,.14,44.75,44.75,0,0,0,49.78,4a37.79,37.79,0,0,0-12.57,9.22,44.75,44.75,0,0,0-4.51,6c-.64,1-1.27,2.08-1.92,3.3-.39.74-.75,1.48-1.12,2.23q-.35.73-.72,1.47a24.92,24.92,0,0,1-3.55,5.24A26.89,26.89,0,0,1,20,35.79c-1.1.7-2.23,1.36-3.35,2L14.67,39a31.27,31.27,0,0,0-6,4.36A13.16,13.16,0,0,0,6.41,46.2a9,9,0,0,0-1.14,3.6,7.75,7.75,0,0,0,.61,3.55c.17.46.37.91.57,1.36s.51,1.15.71,1.74l0-.15.06.15h0a7.75,7.75,0,0,1,.27,1.48,7,7,0,0,1-.12,1.36,9.11,9.11,0,0,1-.7,1.89A24.58,24.58,0,0,1,4.1,64.85a29.59,29.59,0,0,0-2.32,3.3A16.35,16.35,0,0,0,.05,77.43a31.71,31.71,0,0,0,2.28,9.65,36,36,0,0,0,4.17,7.7,49.27,49.27,0,0,0,12.6,12,92.71,92.71,0,0,0,15.41,8.37c.61.27,1.24.53,1.86.79a1,1,0,0,0,.27.17,21.19,21.19,0,0,0,3.87,1.35,42.44,42.44,0,0,0,4.46.88c1.33.19,2.78.36,4.57.53l3.14.27,1.34.11.61,0,2.6.26,2.35.25.33,0c1.36.12,2.73.22,4.1.31A149.8,149.8,0,0,0,86,119.89a107.38,107.38,0,0,0,11.66-1.64,67.43,67.43,0,0,0,10.95-3.13c7.42-2.87,12.64-6.89,15.51-12A20.11,20.11,0,0,0,126,98.71a21.89,21.89,0,0,0,.78-5.11,27.59,27.59,0,0,0-.42-5.77c-.09-.53-.19-1-.32-1.57a16.13,16.13,0,0,0-.65-1.92A28,28,0,0,0,123.67,81l-.28-.48a26.08,26.08,0,0,1-2-4.18,9.52,9.52,0,0,1-.39-2.08,7.51,7.51,0,0,1,.16-1.63,8.84,8.84,0,0,1,.52-1.49c.11-.24.24-.47.36-.71l.15-.29c.18-.34.35-.7.52-1.06a27.76,27.76,0,0,0,1.54-3.89,20.31,20.31,0,0,0,.78-3.81,16.81,16.81,0,0,0-.08-3.93,21.56,21.56,0,0,0-3-8C121,47.94,120,46.51,119,45.12c-.73-1-1.48-2.09-2.17-3.17-.54-.86-1-1.68-1.43-2.52a21.78,21.78,0,0,1-1.28-3.17,59.73,59.73,0,0,1-1.37-5.85c-.26-1.31-.53-2.67-.86-4a30.21,30.21,0,0,0-3.1-7.73,23.83,23.83,0,0,0-5.2-6.35,15.84,15.84,0,0,0-3.34-2.13,12.14,12.14,0,0,0-3.78-1.08l-.27,0a11,11,0,0,0-2.36,0C91.07,5.57,86.72,3,80.93,1.47A45.56,45.56,0,0,0,73.72.21" style="fill:#3a0241"/><path d="M81.46,13.9h.07a53,53,0,0,0-6.89.42,53.68,53.68,0,0,0-6.78,1.29h0a53.05,53.05,0,0,0-6.61,2.14,52.13,52.13,0,0,0-6,2.84l.07,0a45.9,45.9,0,0,0-5,3.18,49.76,49.76,0,0,0-4.7,4h0a41.41,41.41,0,0,0-7,8.7h0a53.35,53.35,0,0,0-4,8.49c-1.17,3.17-2.12,6.42-3,9.67,0,0,0,0,0,.06s0,0,0-.06a.64.64,0,0,1,0,.07h0l-.51,1.8c-.13.5-.27,1-.43,1.48a24.12,24.12,0,0,1-1.3,3.16,37.42,37.42,0,0,1-3.42,5.53c-1.29,1.77-2.68,3.47-4,5.2a56.13,56.13,0,0,0-3.79,5.39.25.25,0,0,0,0-.07,30,30,0,0,0-1.63,3.13,26.2,26.2,0,0,0-1.17,3.21,19.75,19.75,0,0,0-.54,2.65,22.58,22.58,0,0,0-.18,2.61v0A22.11,22.11,0,0,0,15,91.63a27,27,0,0,0,.58,2.84h0a35.35,35.35,0,0,0,1.19,3.65c1.33,3.41,3.05,6.63,4.68,9.89l.21.41a99.22,99.22,0,0,0,12.88,6.7l1.86.8a1.62,1.62,0,0,0,.27.17,22.6,22.6,0,0,0,3.88,1.36c1.26.32,2.72.61,4.45.87,1.4.2,2.86.37,4.58.53l2.34.2.8.07,1.34.11.61.05,1.95.2.65.07,2.36.24.31,0c1.37.13,2.74.23,4.11.31A149.69,149.69,0,0,0,86,119.91a103.9,103.9,0,0,0,11.66-1.65,67.28,67.28,0,0,0,11-3.12,42.11,42.11,0,0,0,5.64-2.64c.5-1.38,1-2.78,1.35-4.21h0a52,52,0,0,0,1.33-6.19c.16-1.08.29-2.17.37-3.27s.12-2,.13-3v.08a40.46,40.46,0,0,0-.28-5.16c-.11-.86-.23-1.71-.4-2.57s-.35-1.71-.57-2.56a.64.64,0,0,0,0,.07,37.9,37.9,0,0,0-1.71-5.08q-.52-1.27-1.14-2.52c-.39-.8-.78-1.6-1.15-2.42-.67-1.49-1.3-3-1.83-4.57-.46-1.35-.87-2.72-1.2-4.11s-.65-3-.86-4.59-.38-3.19-.48-4.79c-.12-1.83-.19-3.65-.19-5.48s0-3.46,0-5.18V47c0-1.16,0-2.32,0-3.48-.16-.66-.32-1.32-.49-2a.64.64,0,0,1,0,.07c-.63-2.37-1.35-4.71-2.13-7a.28.28,0,0,1,.16-.37.2.2,0,0,1,.13,0,.27.27,0,0,1,.24.18.76.76,0,0,1,0,.11.27.27,0,0,1,.22.18c.25.58.48,1.18.69,1.78l-.21-1.2a.27.27,0,0,1,.18-.3.28.28,0,0,1,.19-.12h0c-.06-.27-.12-.53-.19-.8a0,0,0,0,0,0,0,34.79,34.79,0,0,0-1.26-3.86,30.81,30.81,0,0,0-1.68-3.53,25.17,25.17,0,0,0-3.86-5.24h0a20.83,20.83,0,0,0-2.09-1.9,19.1,19.1,0,0,0-4.67-2.8,20.22,20.22,0,0,0-2.51-.89,21.45,21.45,0,0,0-2.65-.54A24.31,24.31,0,0,0,85,15.11H85a25.84,25.84,0,0,0-3.17.22,27.53,27.53,0,0,0-3.08.62h0c-.47.12-.94.26-1.41.41a.33.33,0,0,1-.22,0A.25.25,0,0,1,77,16.2a.29.29,0,0,1,.15-.38,29.41,29.41,0,0,1,4-1q1-.16,2-.24c.59,0,1.18-.07,1.76-.06a20.15,20.15,0,0,1,2.06.09l.67.07-1.11-.51-.92-.09c-1.39-.13-2.79-.2-4.19-.21" style="fill:#2d0133"/><polyline points="15.54 94.49 15.54 94.48 15.54 94.48 15.54 94.48 15.54 94.49" style="fill:#2d0133"/><path d="M72.47,77.14a.59.59,0,0,0-.71.43,30,30,0,0,0-.8,3,12.46,12.46,0,0,0-5.8-3.1l-1-.28a51.44,51.44,0,0,0-6.14-1c.08-.63.14-1.27.18-1.91a.58.58,0,0,0-.46-.55l-.15,0a.59.59,0,0,0-.4.18.62.62,0,0,0-.16.42c0,.49-.08,1-.13,1.46v0a26.79,26.79,0,0,1-1.53,6.58A20.25,20.25,0,0,1,52.81,87l.1-.11a23.84,23.84,0,0,1-4,4.1A41,41,0,0,1,40.29,96h0a.57.57,0,0,0-.46.08.6.6,0,0,0-.26.4.57.57,0,0,0,.09.41L41,98.73c1.35,1.87,2.75,3.8,4.27,5.59a36.41,36.41,0,0,0,3.13,3.26,27.2,27.2,0,0,0,3.76,2.84,28.26,28.26,0,0,0,8.31,3.45l.16,0a29.21,29.21,0,0,0,8.78.76,27.24,27.24,0,0,0,6.32-1.16,24.56,24.56,0,0,0,6.07-2.83,27.12,27.12,0,0,0,5-4.2,36,36,0,0,0,4.07-5.27.56.56,0,0,0,.26-.16.61.61,0,0,0,.16-.42.58.58,0,0,0-.18-.41,24.7,24.7,0,0,0-3.89-2.84A46.58,46.58,0,0,0,83,95.18l-1.48-.69c-.87-.4-1.73-.79-2.59-1.22a23.1,23.1,0,0,1-3.51-2.07,11.82,11.82,0,0,1-1.8-1.69,8.84,8.84,0,0,1-1.09-1.77,9.19,9.19,0,0,1-.6-2.06v.15a14,14,0,0,1,0-3.37h0a24.94,24.94,0,0,1,1-4.62.52.52,0,0,0-.05-.42.61.61,0,0,0-.38-.29" style="fill:#ffb39c"/><path d="M71.73,77.56a30.72,30.72,0,0,0-.79,3,12.14,12.14,0,0,0-5.78-3.13l-1-.28a52.2,52.2,0,0,0-6.14-1c.09-.53.15-1.15.2-1.87a.62.62,0,0,0-.48-.59l-.15,0a.63.63,0,0,0-.6.63c0,.48-.07,1-.12,1.45a29.28,29.28,0,0,1-.77,4.2c.55.42,1.1.83,1.68,1.21a24.89,24.89,0,0,0,2.75,1.56h0a20.51,20.51,0,0,0,2.62,1.06,19.32,19.32,0,0,0,2.72.68h-.08a19.55,19.55,0,0,0,2.41.28,21.14,21.14,0,0,0,2.39,0c.42,0,.83-.09,1.25-.16a16.37,16.37,0,0,1,.08-2.09,24.58,24.58,0,0,1,1.05-4.62.56.56,0,0,0-.06-.43.65.65,0,0,0-.4-.31.63.63,0,0,0-.74.45" style="fill:#eda791"/><path d="M106.35,49.5a6.16,6.16,0,0,0-2.17.09.83.83,0,0,0-.53.29.79.79,0,0,0-.17.61.81.81,0,0,0,.34.56,43.24,43.24,0,0,0-1.75,5.78c-.44,1.9-.78,3.94-1.13,6.59a.36.36,0,0,0-.19-.07.85.85,0,0,0-.86.48.83.83,0,0,0,.42,1.08,7.52,7.52,0,0,0,1.18.44,8,8,0,0,0,1.22.27,6.57,6.57,0,0,0,2.22,0,6.27,6.27,0,0,0,2-.76,6.74,6.74,0,0,0,1.52-1.24,8.59,8.59,0,0,0,1.18-1.65,9.27,9.27,0,0,0,.78-1.79A12.14,12.14,0,0,0,111,56a9.58,9.58,0,0,0-.48-2.69,6.26,6.26,0,0,0-1.25-2.22,4.65,4.65,0,0,0-2.1-1.38,5.45,5.45,0,0,0-.8-.18" style="fill:#f3ab95"/><path d="M108.08,52.83a9.73,9.73,0,0,0-1.85.59,7.43,7.43,0,0,0-1.64,1.06,9.21,9.21,0,0,0-1.35,1.44,8,8,0,0,0-1,1.85.47.47,0,0,0,.86.38c.18-.39.38-.78.59-1.16s.39-.59.6-.87a8.09,8.09,0,0,1,.77-.88c.22-.2.44-.4.68-.58a7.48,7.48,0,0,1,.84-.54,7.13,7.13,0,0,1,.68-.33,5.53,5.53,0,0,1,.72-.24l.23,0a.34.34,0,0,0,.3-.37.36.36,0,0,0-.29-.3h-.09m-1.49,1.25h0m-1.53,1.11s0,0,0,0Z" style="fill:#bf8675"/><path d="M93.43,15.51h-.2a.9.9,0,0,0-.28.08l-3.75.27c-4.41.3-9,.61-13.43,1.22a57.59,57.59,0,0,0-16.53,4.43,36.52,36.52,0,0,0-5.72,3.23,34.67,34.67,0,0,0-5.12,4.43,31.6,31.6,0,0,0-4.17,5.44,18.78,18.78,0,0,0-2.42,6.11c-.42-.08-.86-.17-1.3-.24a9.43,9.43,0,0,0-4.21.27,6.9,6.9,0,0,0-3.45,2.47,8.78,8.78,0,0,0-1.57,4,11,11,0,0,0,.28,4.41,9.26,9.26,0,0,0,3.26,5.05A7.58,7.58,0,0,0,37.68,58l.55.1a8.87,8.87,0,0,0,2.36,0,27.75,27.75,0,0,0,2.12,5.44,31.3,31.3,0,0,0,4,5.94,36.81,36.81,0,0,0,11.39,8.86A38.7,38.7,0,0,0,64.76,81a36.49,36.49,0,0,0,5.16,1.13c.6.09,1.2.16,1.81.22A38.32,38.32,0,0,0,79,82.2a33.41,33.41,0,0,0,6.79-1.42,26.5,26.5,0,0,0,5.69-2.6,25.25,25.25,0,0,0,4.66-3.68,29.44,29.44,0,0,0,6.39-10.08,49.8,49.8,0,0,0,3.07-13.07,60.22,60.22,0,0,0-.06-14.47,36.7,36.7,0,0,0-3.57-12,25.39,25.39,0,0,0-3.44-5.11,22.06,22.06,0,0,0-4.74-4.1,1,1,0,0,0-.4-.17" style="fill:#ffb39c"/><path d="M93.23,15.49a.62.62,0,0,0-.28.09l-2.57.17-1.18.09c-4.39.3-8.92.61-13.43,1.22a57.84,57.84,0,0,0-16.54,4.43,37.57,37.57,0,0,0-5.72,3.23,34.47,34.47,0,0,0-5.13,4.44,31.39,31.39,0,0,0-4.16,5.44,19.68,19.68,0,0,0-2.06,4.58c0,.06.05.12.07.17v0a11.4,11.4,0,0,0,1.35,2.44,7.64,7.64,0,0,0,1.25,1.29,6.17,6.17,0,0,0,1.31.77h0a6.36,6.36,0,0,0,1.46.41,7.8,7.8,0,0,0,2,0H49.5a6.4,6.4,0,0,0,1-.19,7.13,7.13,0,0,0,.78-.26l0,0a10,10,0,0,0,1.14-.55c.32-.2.64-.4.94-.63h0a13.21,13.21,0,0,0,1.25-1.11,16.68,16.68,0,0,0,1.12-1.27h0l0,0h0a19.48,19.48,0,0,0,2.33-4l0,.06c.11-.24.2-.49.3-.73a.29.29,0,0,1,.12-.16.25.25,0,0,1,.17,0,.27.27,0,0,1,.33-.05c.83.44,1.65.88,2.51,1.26l-.06,0a18.94,18.94,0,0,0,4.39,1.22,25.07,25.07,0,0,0,6.36,0H72a31.42,31.42,0,0,0,7.92-2l-.07,0a31.29,31.29,0,0,0,7.13-4l0,0a24.54,24.54,0,0,0,4.4-4.3,18.56,18.56,0,0,0,1.34-1.94,20.17,20.17,0,0,0,1.06-2.07h0l.13-.31A.33.33,0,0,1,94,23a.33.33,0,0,1,.17,0h0a.41.41,0,0,1,.11.07,11.91,11.91,0,0,1,2.36,1.62,21.25,21.25,0,0,1,2.21,2.24,50.48,50.48,0,0,1,3.69,5c1,1.57,2.08,3.17,3,4.82A36.38,36.38,0,0,0,102,24.89a25.33,25.33,0,0,0-3.44-5.12,22.07,22.07,0,0,0-4.74-4.11,1,1,0,0,0-.42-.17h-.2" style="fill:#f3ab95"/><path d="M31.26,47.17a11.21,11.21,0,0,0,.28,4.41,9.34,9.34,0,0,0,3.27,5.07A7.49,7.49,0,0,0,37.68,58l.55.11a9,9,0,0,0,2.37,0,26.62,26.62,0,0,0,2.09,5.43,31.58,31.58,0,0,0,4,5.95A36.9,36.9,0,0,0,58.1,78.33,39.5,39.5,0,0,0,64.76,81a40.23,40.23,0,0,0,5.16,1.13c.6.09,1.2.16,1.81.22l.24,0c-.61-.11-1.21-.23-1.81-.38a38.06,38.06,0,0,1-5.79-1.9,46.62,46.62,0,0,1-5.7-2.85A44.77,44.77,0,0,1,52.73,73a37,37,0,0,1-5.12-5.13,28.69,28.69,0,0,1-3.75-5.81A24.19,24.19,0,0,1,42.64,59a20.62,20.62,0,0,1-.71-3,7.26,7.26,0,0,1-2.67,0,7.89,7.89,0,0,1-2.6-1,8.84,8.84,0,0,1-2.15-1.8,10.14,10.14,0,0,1-1.36-2.07,15.09,15.09,0,0,1-.93-2.33,12.9,12.9,0,0,1-.53-2.6c0-.24,0-.48,0-.72a8.82,8.82,0,0,0-.39,1.65" style="fill:#f3ab95"/><polyline points="55.65 40.25 55.64 40.26 55.64 40.26 55.65 40.25" style="fill:#f3ab95"/><polyline points="55.64 40.26 55.64 40.26 55.64 40.26 55.64 40.26" style="fill:#f3ab95"/><path d="M39.67,44.56A7.28,7.28,0,0,0,38,49.25,8.34,8.34,0,0,0,39.24,54a.31.31,0,0,0,.43.07.33.33,0,0,0,.06-.44,4,4,0,0,1-.2-.35A7.14,7.14,0,0,1,39,51.86l0,.08a7.35,7.35,0,0,1-.2-1,7.66,7.66,0,0,1-.07-1.17,8.56,8.56,0,0,1,.29-2h0a7,7,0,0,1,.64-1.49,5.91,5.91,0,0,1,.84-1,.54.54,0,0,0,.11-.4.49.49,0,0,0-.2-.35.48.48,0,0,0-.24-.11.56.56,0,0,0-.5.19m0,1.75,0,0,0,0" style="fill:#bf8675"/><path d="M36.36,43.94a6.13,6.13,0,0,0-1.34.21.38.38,0,0,0-.25.14.4.4,0,0,0-.08.28.38.38,0,0,0,.43.33l.66-.12a4.3,4.3,0,0,1,.62,0,5.63,5.63,0,0,1,1.08.16,5.21,5.21,0,0,1,.94.4c.26.17.5.35.74.53a.47.47,0,0,0,.67-.65,2.67,2.67,0,0,0-.45-.44,3.71,3.71,0,0,0-.54-.33,4.65,4.65,0,0,0-1.21-.4l-.2,0a4.8,4.8,0,0,0-1.07,0" style="fill:#bf8675"/><path d="M87.76,10.58l-.25,0a38.47,38.47,0,0,0-7.94-.33A58.73,58.73,0,0,0,63.2,13.7a61,61,0,0,0-13.4,6.69c-1.07.72-2,1.38-2.78,2a27.79,27.79,0,0,0-3.21,3.06,52.32,52.32,0,0,0-5.23,7,.75.75,0,0,0-.45.7,12,12,0,0,0,.95,6.6,6.86,6.86,0,0,0,4.76,4.12l.17,0a7,7,0,0,0,3.34-.32,9.33,9.33,0,0,0,2.88-1.63,14.06,14.06,0,0,0,2.3-2.51,22.66,22.66,0,0,0,1.8-3,36.48,36.48,0,0,0,2.46-6.37,6.53,6.53,0,0,0,.74.52,15.7,15.7,0,0,0,1.89,1,23.72,23.72,0,0,0,3.65,1.34c.76.2,1.54.37,2.34.5a24.1,24.1,0,0,0,5.19.26,29.41,29.41,0,0,0,23-13.9c.54.39,1.1.82,1.64,1.28h0a34.49,34.49,0,0,1,5.58,6.25,43.7,43.7,0,0,1,5.26,10.15l.08.22,0,.12a.82.82,0,0,0,.68.64H107l.16,0a.83.83,0,0,0,.61-.23.72.72,0,0,0,.26-.55,32.53,32.53,0,0,0-3-14.59,24,24,0,0,0-4.16-6.28,19.19,19.19,0,0,0-2.77-2.44,18.22,18.22,0,0,0-3.24-1.79,27.85,27.85,0,0,0-7.09-2" style="fill:#3a0241"/><path d="M89.69,18.25A37,37,0,0,1,82,23.33l.08,0a32.33,32.33,0,0,1-8,2.62h0a33.66,33.66,0,0,1-3.88.46,32.34,32.34,0,0,1-4.06,0,29,29,0,0,1-5.56-.94.7.7,0,0,0-.56.12.72.72,0,0,0-.33.47.77.77,0,0,0,.6.89c1.35.22,2.7.43,4.07.55a33.36,33.36,0,0,0,4.12.13,31.8,31.8,0,0,0,7.69-1.22,30,30,0,0,0,3.6-1.25,36.34,36.34,0,0,0,3.55-1.73A39.78,39.78,0,0,0,90,18.71a.28.28,0,0,0,.08-.38.3.3,0,0,0-.2-.12.22.22,0,0,0-.18,0M74.08,25.91h0" style="fill:#2d0133"/><path d="M87.72,15.25a.28.28,0,0,0-.19.09l-.25.23,0-.05A31,31,0,0,1,80.77,20l.09,0c-.71.34-1.43.64-2.17.91a14.67,14.67,0,0,1-2.23.59l.11,0c-.4.07-.81.12-1.21.16a.47.47,0,0,0-.29.83.45.45,0,0,0,.34.12c.56-.1,1.11-.21,1.66-.36a16.48,16.48,0,0,0,1.68-.55A24,24,0,0,0,82.11,20a34.19,34.19,0,0,0,5.83-4.31.27.27,0,0,0,0-.39.35.35,0,0,0-.14-.06h-.06" style="fill:#2d0133"/><path d="M78,4.81a37,37,0,0,0-7.8.27c-1.32.17-2.62.41-3.92.71s-2.6.68-3.88,1.1A42.85,42.85,0,0,0,55,10.08c-1.15.64-2.26,1.34-3.34,2.08a36,36,0,0,0-3,2.33A31.43,31.43,0,0,0,46,17.08c-.72.79-1.41,1.61-2.08,2.44-3,3.62-5.58,7.53-8.86,10.88-.45.44-.9.88-1.38,1.3a19.81,19.81,0,0,1-4.11,2.81,18.77,18.77,0,0,1-3.73,1.24l-.16,0a1.1,1.1,0,0,0-.75.37,1.08,1.08,0,0,0-.26.76,1.07,1.07,0,0,0,1.13,1l.81-.07c.27,0,.53-.07.79-.12a13,13,0,0,0,1.84-.46,16.8,16.8,0,0,0,3.15-1.49,21.14,21.14,0,0,0,2.71-2,31.67,31.67,0,0,0,2.64-2.54c3.2-3.42,5.65-7.43,8.43-11.16a31.85,31.85,0,0,1,2.15-2.62,35.71,35.71,0,0,1,2.92-2.85,1.29,1.29,0,0,0-.17.16,37.56,37.56,0,0,1,8.35-5.35h0A40.37,40.37,0,0,1,69.24,6.2a36.44,36.44,0,0,1,9.15-.54A28.72,28.72,0,0,1,85.27,7a.36.36,0,0,0,.44-.29.39.39,0,0,0-.29-.44,28.76,28.76,0,0,0-4.74-1.16A26.47,26.47,0,0,0,78,4.81M59.51,9.36l-.11.05.11-.05" style="fill:#2d0133"/><path d="M61.83,4.48c-.74.17-1.47.35-2.2.56s-1.47.45-2.2.72a35.23,35.23,0,0,0-4.39,2,30.9,30.9,0,0,0-4,2.53c-.61.45-1.19.93-1.76,1.44a20.3,20.3,0,0,0-1.76,1.71.6.6,0,0,0,.06.84.61.61,0,0,0,.84-.06c.39-.43.77-.87,1.18-1.28s.82-.8,1.25-1.18A31.62,31.62,0,0,1,55.6,7.35l-.09.05A31.4,31.4,0,0,1,62,5a.29.29,0,0,0,0-.57.32.32,0,0,0-.14,0m-13,7.28,0,0,0,0" style="fill:#2d0133"/><path d="M98.84,19.32a.3.3,0,0,0-.07.42c1.27,1.4,2.45,2.86,3.59,4.37.56.75,1.1,1.5,1.61,2.28s1,1.64,1.47,2.47a34.61,34.61,0,0,1,1.64,3.56c.26.66.5,1.33.71,2s.4,1.38.59,2.07a.94.94,0,0,0,1.21.53.89.89,0,0,0,.51-.48c0-.08.05-.16.08-.25a1,1,0,0,0-.05-.48,21.22,21.22,0,0,0-.82-2.36c-.31-.77-.66-1.51-1-2.24a32.14,32.14,0,0,0-2.56-4.15c-.94-1.33-2-2.61-3-3.86s-2.3-2.55-3.46-3.82a.45.45,0,0,0-.21-.12.29.29,0,0,0-.21.06" style="fill:#2d0133"/><path d="M113.85,47.09a.31.31,0,0,0-.18.39,33,33,0,0,1,2.75,6.82s0,0,0-.07a15.5,15.5,0,0,1,.32,1.76,12,12,0,0,1,.08,1.89v-.06a15,15,0,0,1-.17,1.76,16.12,16.12,0,0,1-.47,1.94v0a26,26,0,0,1-1,2.71c-.45,1.07-1,2.11-1.35,3.21a13.09,13.09,0,0,0-.65,2.9,12.46,12.46,0,0,0,0,2.59,18.6,18.6,0,0,0,1.25,4.62c.31.84.62,1.67.92,2.51s.57,1.76.8,2.66a0,0,0,0,0,0,0v0l.06.23,0-.12.12.53a2.86,2.86,0,0,0,.07.28,1.07,1.07,0,0,0,.32.44,1.12,1.12,0,0,0,.82.25,1.14,1.14,0,0,0,.72-.4,1,1,0,0,0,.24-.81q-.33-1.52-.81-3c-.29-.88-.62-1.74-1-2.6a34.48,34.48,0,0,1-1.53-4.27,10.2,10.2,0,0,1-.28-2.52,16.09,16.09,0,0,1,.68-3.7c.3-1,.68-2,1-3,.26-.84.49-1.7.68-2.57a16.16,16.16,0,0,0,.38-4.6,16.94,16.94,0,0,0-1-4.32,46,46,0,0,0-2.37-5.33.35.35,0,0,0-.24-.19.26.26,0,0,0-.15,0m2.31,14.47s0,0,0,.07,0-.05,0-.07m-1,11.51s0,.05,0,.07,0,0,0-.07m1.06,9.76,0-.11v0l0,.13m.64-25v0" style="fill:#2d0133"/><path d="M24.75,52.61C23,55,21.14,57.2,19.31,59.46c-.93,1.13-1.83,2.28-2.69,3.48S15,65.28,14.21,66.5a21.4,21.4,0,0,0-2.94,7.82,18.55,18.55,0,0,0-.17,4.34,15.62,15.62,0,0,0,.34,2.14,21.31,21.31,0,0,0,.72,2.48,14.16,14.16,0,0,0,.63,1.51,1.1,1.1,0,0,0,.54.58A1.06,1.06,0,0,0,14.75,84a26.57,26.57,0,0,1-1.22-3.55A18.87,18.87,0,0,1,13,76a18.83,18.83,0,0,1,.73-4.4A27.05,27.05,0,0,1,15.13,68a35.49,35.49,0,0,1,1.92-3.6l-.08.13c2.52-4,5.59-7.64,8.38-11.46a.39.39,0,0,0-.05-.54.42.42,0,0,0-.18-.08.39.39,0,0,0-.37.13M13.8,71.39l0,.12,0-.12" style="fill:#2d0133"/><path d="M99,79.77a3.88,3.88,0,0,0-1,.13,2.36,2.36,0,0,0-.81.4,2.5,2.5,0,0,0-.67.83,3.09,3.09,0,0,0-.29,1.07,3.46,3.46,0,0,0,.11,1.26,3.87,3.87,0,0,0,.48,1,4.89,4.89,0,0,0,.86,1,7,7,0,0,0,1.59,1,9.89,9.89,0,0,0,2,.69,8.73,8.73,0,0,0,1.94.24h0a5.7,5.7,0,0,0,1-.07.48.48,0,0,0,.27.08.48.48,0,0,0,.36-.16l.07-.09a.62.62,0,0,0,.29-.41,1.59,1.59,0,0,0,.13-.22,2.84,2.84,0,0,0,.28-.8,3.32,3.32,0,0,0,.08-.86,3.42,3.42,0,0,0-.17-1,4,4,0,0,0-1.13-1.68,9.06,9.06,0,0,0-1.94-1.39,8.89,8.89,0,0,0-2.27-.88A5.06,5.06,0,0,0,99,79.77" style="fill:#f3ab95"/><path d="M106.45,71.65a7.37,7.37,0,0,0-1.24.12,6.23,6.23,0,0,0-1.57.56,8.24,8.24,0,0,0-2.54,2,11.23,11.23,0,0,0-1,1.3A10.51,10.51,0,0,0,99.33,77a9.56,9.56,0,0,0-.67,1.78A12.85,12.85,0,0,0,98.21,81a7.49,7.49,0,0,0,0,2.18,3.12,3.12,0,0,0,.24.83,2.49,2.49,0,0,0,.52.82,2.16,2.16,0,0,0,.93.56,2.44,2.44,0,0,0,.47.09l.31,0a3.42,3.42,0,0,0,.45,0,4.07,4.07,0,0,0,1.66-.54,1.08,1.08,0,0,0,0,.19,3.6,3.6,0,0,0,.2,1.26,4.34,4.34,0,0,0,.28.62,4.11,4.11,0,0,0,.39.54,2.54,2.54,0,0,0,2,.93h.14a2.39,2.39,0,0,0,.67-.15,1.85,1.85,0,0,0-.06.42A2.65,2.65,0,0,0,106.6,90a2.27,2.27,0,0,0,.33.52,2.51,2.51,0,0,0,.47.41,2.36,2.36,0,0,0,.59.26,2.94,2.94,0,0,0,.71.09h0a4,4,0,0,0,.82-.11l.09.17a14.71,14.71,0,0,1,.66,2.18,11.28,11.28,0,0,0,.68,2.15,3.9,3.9,0,0,0,.54.87c.12.14.23.27.36.4s.29.22.44.33a3.71,3.71,0,0,0,1.09.45,7.4,7.4,0,0,0,1.51.23h.31a6.48,6.48,0,0,0,4.32-1.67A6.84,6.84,0,0,0,121,94.31a6.39,6.39,0,0,0,.49-1.18h.21a.49.49,0,0,0,.29-.24.51.51,0,0,0,0-.37,42.47,42.47,0,0,0-3.94-11.43A24.58,24.58,0,0,0,114.57,76a14.23,14.23,0,0,0-4.72-3.48,11.54,11.54,0,0,0-1.32-.49,7.65,7.65,0,0,0-1.74-.32h-.34" style="fill:#ffb39c"/><path d="M114.72,87a7.85,7.85,0,0,1-.58,1.07c-.15.2-.3.4-.46.58a5.37,5.37,0,0,1-.58.59h0a7.38,7.38,0,0,1-1.39,1l0,0a6.09,6.09,0,0,1-1.45.51,5.15,5.15,0,0,1-1.3.1,5.74,5.74,0,0,1-1-.19.22.22,0,0,0-.28.18.25.25,0,0,0,.18.29,5.6,5.6,0,0,0,1.14.22,5.05,5.05,0,0,0,1.1,0,6.77,6.77,0,0,0,2.21-.64,6.17,6.17,0,0,0,3.14-3.24.44.44,0,0,0,0-.34.41.41,0,0,0-.21-.24.45.45,0,0,0-.19,0,.43.43,0,0,0-.39.24M109,90.81h0m2.74-.56h0" style="fill:#e8a38e"/><path d="M112.94,89.78a6.14,6.14,0,0,0,.12.86,6.72,6.72,0,0,0,.32.89.45.45,0,0,0,.16.22.39.39,0,0,0,.28,0,.31.31,0,0,0,.21-.16.36.36,0,0,0,0-.36,3.16,3.16,0,0,1-.18-.27l-.12-.23a3.67,3.67,0,0,1-.2-.74.22.22,0,0,1,0,.08c0-.11,0-.21,0-.32a.29.29,0,0,0-.29-.29.28.28,0,0,0-.28.29" style="fill:#e8a38e"/><path d="M111.19,82.44a7.12,7.12,0,0,0-.74.35,6,6,0,0,0-.79.52c-.22.18-.43.36-.64.56a9.4,9.4,0,0,0-.66.74,18.09,18.09,0,0,0-1.89,3.13.24.24,0,0,0,.08.33.24.24,0,0,0,.33-.09c.25-.47.51-.94.78-1.39a14.87,14.87,0,0,1,1-1.43l0,.06a9.19,9.19,0,0,1,.65-.75,6.78,6.78,0,0,1,.69-.62,6.58,6.58,0,0,1,.7-.47,5.48,5.48,0,0,1,.8-.41.32.32,0,0,0,.1-.1.31.31,0,0,0,0-.23.31.31,0,0,0-.13-.17.42.42,0,0,0-.16,0h-.07" style="fill:#e8a38e"/><path d="M106.73,78.7a7.09,7.09,0,0,0-1.41,1.09,10.06,10.06,0,0,0-1.19,1.42,13.51,13.51,0,0,0-1,1.69,14.83,14.83,0,0,0-.7,1.65.24.24,0,0,0,.16.3.24.24,0,0,0,.19,0,.24.24,0,0,0,.11-.15c.08-.22.17-.44.26-.66l0,.06a16.6,16.6,0,0,1,.77-1.59,12.35,12.35,0,0,1,1-1.49c.22-.26.43-.51.66-.75a9.86,9.86,0,0,1,.76-.69l0,0a8,8,0,0,1,.7-.49.24.24,0,0,0,.09-.33.22.22,0,0,0-.21-.12.27.27,0,0,0-.12,0" style="fill:#e8a38e"/><path d="M121.87,90.53a.5.5,0,0,0-.21,0,73.8,73.8,0,0,1-10.32,4.21c-.69.2-1.37.39-2.06.55a.53.53,0,0,0-.31.2.54.54,0,0,0-.06.11.44.44,0,0,0-.15.35c.15,4.71.25,9.5.35,14.13.15,7,.31,14.29.64,21.44C108.94,129,108,126.46,107,124a88.77,88.77,0,0,0-7-13.58A52.75,52.75,0,0,0,90.2,98.67a.45.45,0,0,0-.28-.08.51.51,0,0,0-.4.2.47.47,0,0,0-.09.37.55.55,0,0,0,.2.32l.94.84-.1-.09.79.75h0a.43.43,0,0,0-.38.23c-1.67,3.2-2.86,5.72-3.85,8.17a59.83,59.83,0,0,0-2.58,8.21,43.57,43.57,0,0,0-1.24,7.6,24,24,0,0,0,8.61,20.41,27.85,27.85,0,0,0,6.37,4.32,25.72,25.72,0,0,0,3.53,1.41,23.53,23.53,0,0,0,3.69.8,19.26,19.26,0,0,0,2.44.15,24.47,24.47,0,0,0,3.78-.3,20.86,20.86,0,0,0,4.52-1.19,18,18,0,0,0,3.75-2,17.46,17.46,0,0,0,3-2.75,21.65,21.65,0,0,0,4-7.27,36.34,36.34,0,0,0,1.74-8.95,61.13,61.13,0,0,0,0-9.85,97.52,97.52,0,0,0-1.3-10c-.54-3-1.24-6.18-2.08-9.39-.72-2.74-1.51-5.42-2.36-8-.16-.47-.32-.94-.49-1.42l0-.09a.54.54,0,0,0,0-.22.51.51,0,0,0-.45-.29" style="fill:#003d64"/><path d="M109.28,95.33a.56.56,0,0,0-.33.2l-.06.11a.47.47,0,0,0-.15.36c.15,4.69.26,9.36.35,14.13.13,6.07.27,12.89.56,19.55.54-2.85,1-5.72,1.3-8.59.36-3.1.58-6.21.7-9.32v.07q.18-5,0-9.92c-.09-2.37-.23-4.75-.42-7.11-.65.19-1.3.36-2,.52" style="fill:#003d64"/><path d="M87,109.37a58.59,58.59,0,0,0-2.58,8.22,43.92,43.92,0,0,0-1.24,7.6,24.05,24.05,0,0,0,8.61,20.43,28.3,28.3,0,0,0,6.38,4.31,25,25,0,0,0,3.53,1.41,22.79,22.79,0,0,0,3.7.81,19.48,19.48,0,0,0,2.44.16,26.1,26.1,0,0,0,3.78-.3,21.09,21.09,0,0,0,4.53-1.21A17.35,17.35,0,0,0,122.9,146a22,22,0,0,0,4-7.28,37.28,37.28,0,0,0,1.74-9c.09-1,.15-2.11.17-3.21-.08.5-.18,1-.29,1.5a38.14,38.14,0,0,1-1.4,5,26,26,0,0,1-2.12,4.53,18.92,18.92,0,0,1-2.92,3.74,17.11,17.11,0,0,1-1.78,1.51,14.33,14.33,0,0,1-2,1.23,15.85,15.85,0,0,1-2.3.94,16.88,16.88,0,0,1-2.55.6,11.73,11.73,0,0,1-2.71.11,9.83,9.83,0,0,1-2.4-.48,10.31,10.31,0,0,1-2.12-1,11.59,11.59,0,0,1-1.87-1.48,18.09,18.09,0,0,1-3-4A38.49,38.49,0,0,1,99,134c-.67-1.68-1.27-3.39-1.84-5.11-.52-1.56-1-3.13-1.59-4.68a53.44,53.44,0,0,0-3.12-7h0a52.51,52.51,0,0,0-3.61-5.73c-.57-.79-1.17-1.57-1.79-2.33l-.08.18m5.45,7.83a.05.05,0,0,0,0,0,.05.05,0,0,1,0,0" style="fill:#003d64"/><path d="M41.47,94.8h0a.41.41,0,0,0-.23.06l-.11,0A21.3,21.3,0,0,0,37.86,96a28.36,28.36,0,0,0-3.08,1.66,39.09,39.09,0,0,0-5.87,4.49,57.6,57.6,0,0,0-5.22,5.49,64.82,64.82,0,0,0-4.39,5.89c-.87,1.31-1.71,2.7-2.48,4.11a.5.5,0,0,0-.09.36.46.46,0,0,0,.2.32.37.37,0,0,0,.21.09,56.67,56.67,0,0,0,8.35,11.24,68.53,68.53,0,0,0,11,9.27A80.64,80.64,0,0,0,49.2,146a87.43,87.43,0,0,0,13.65,4.77c1.86.49,3.77.91,5.68,1.27A61.64,61.64,0,0,0,75,153c1.18.09,2.41.14,3.77.14,2.17,0,4.38-.12,6.51-.23,1.27-.07,2.54-.14,3.81-.19a.37.37,0,0,0,.14.07l.14,0a.34.34,0,0,0,.24-.07,19.39,19.39,0,0,0,2.52-2.28A16.89,16.89,0,0,0,94,147.92a17.37,17.37,0,0,0,2.24-5.62,28.1,28.1,0,0,0-.46-12.42,54.8,54.8,0,0,0-2.23-7.16c-.78-2.06-1.72-4.23-2.86-6.63a11.61,11.61,0,0,1,.12-1.43h0c.16-1.12.4-2.25.62-3.35l.19-.9a45.16,45.16,0,0,0,.76-4.84,11.33,11.33,0,0,0-.31-4.3,4.91,4.91,0,0,0-.89-1.68,4.24,4.24,0,0,0-1.47-1.17.58.58,0,0,0-.26-.06.46.46,0,0,0-.32.13.36.36,0,0,0-.17.15,13.41,13.41,0,0,1-1.19,1.56l.1-.08a34.25,34.25,0,0,1-2.73,2.5,27.86,27.86,0,0,1-2.55,1.93h0a26.68,26.68,0,0,1-6,2.92,27.64,27.64,0,0,1-7.05,1.39c-.63,0-1.17,0-1.7,0a30.74,30.74,0,0,1-6.16-.63h-.13a34.12,34.12,0,0,1-7.78-2.78h0a33.25,33.25,0,0,1-6.93-4.72h0A32.23,32.23,0,0,1,41.81,95,.45.45,0,0,0,41.47,94.8Z" style="fill:#003d64"/><path d="M41.47,94.77h0a.55.55,0,0,0-.25.07s0,0-.09,0A21.57,21.57,0,0,0,37.85,96a25.54,25.54,0,0,0-3.08,1.66,37.8,37.8,0,0,0-5.87,4.49,58.94,58.94,0,0,0-5.23,5.49,62.89,62.89,0,0,0-4.38,5.89c-.87,1.31-1.71,2.69-2.49,4.11a.55.55,0,0,0-.09.37.52.52,0,0,0,.2.34.73.73,0,0,0,.22.09,53.55,53.55,0,0,0,3.49,5.42,72.85,72.85,0,0,1,4.7-8.3,74.31,74.31,0,0,1,9.42-11.66,58.63,58.63,0,0,1,8.47-7.09c-.48-.6-1-1.23-1.38-1.87a.5.5,0,0,0-.36-.19Z" style="fill:#003d64"/><path d="M34.61,131.67v0a40.31,40.31,0,0,0-2,4.5c.94.73,1.91,1.46,2.91,2.16.31-1.34.65-2.66,1-4,.71-2.46,1.55-4.88,2.5-7.27.76-1.92,1.59-3.83,2.47-5.7a65.62,65.62,0,0,0-6.92,10.31" style="fill:#003d64"/><path d="M72.67,65.1a3.4,3.4,0,0,0-1,.45,3.91,3.91,0,0,0-.85.72,3.05,3.05,0,0,0-.62,1A3.18,3.18,0,0,0,70,68.49a1.6,1.6,0,0,0,.39,1.07,1.85,1.85,0,0,0,1.86.3,6.07,6.07,0,0,0,1-.39c.39-.17.76-.36,1.13-.56l.8-.45a.5.5,0,0,0,.14-.68.48.48,0,0,0-.47-.22s0-.06,0-.09a3,3,0,0,0,0-.79,2.08,2.08,0,0,0-.38-1,1.62,1.62,0,0,0-.86-.57,1.33,1.33,0,0,0-.4,0,3.68,3.68,0,0,0-.57.06" style="fill:#ff908d"/><path d="M79.94,45q-.59,2.61-1.06,5.24c-.33,1.78-.6,3.58-.86,5.37,0,0,0,0,0-.07a.78.78,0,0,0,0,.16.35.35,0,0,0,.16.42.38.38,0,0,0,.46-.05,7.36,7.36,0,0,1,.79-.69h0a3.48,3.48,0,0,1,.68-.38,2.75,2.75,0,0,1,.49-.14H81l.32.1.29.17a3.2,3.2,0,0,1,.25.27,3.15,3.15,0,0,1,.28.51,3.22,3.22,0,0,1,.15.63,4,4,0,0,1,0,.85,5,5,0,0,1-.28,1,4.73,4.73,0,0,1-.55.89,5.54,5.54,0,0,1-.79.74,6,6,0,0,1-1.2.64,8.21,8.21,0,0,1-1.53.4.59.59,0,0,0-.42.71.59.59,0,0,0,.26.34.57.57,0,0,0,.44.07,7.26,7.26,0,0,0,2.56-.91,5.53,5.53,0,0,0,1.65-1.51A4.64,4.64,0,0,0,83.19,58a4.35,4.35,0,0,0,0-1.76A2.78,2.78,0,0,0,81.42,54a2.46,2.46,0,0,0-1.56.14,3.82,3.82,0,0,0-1,.59c.06-.47.12-.93.19-1.4v0c.41-2.77.93-5.52,1.54-8.24a.35.35,0,0,0-.23-.42h-.12a.32.32,0,0,0-.3.24m1,9.85h0m.6.23.06.05-.06-.05m.33.33,0,0,0,0m.43,1.2v0m0,.84v0m-.23.86,0,0,0,0m-1.28,1.65-.07.06.07-.06m-1.2.68-.1,0,.1,0M78,55.51v0m1-2.08v0" style="fill:#bf8675"/><path d="M62.66,48.69a4.48,4.48,0,0,0-2.89,1.56,1,1,0,0,0-.05,1.19,1,1,0,0,0,1.36.23,6.21,6.21,0,0,1,1.06-.79,5.09,5.09,0,0,1,1-.38,5.86,5.86,0,0,1,1.1-.11,6.62,6.62,0,0,1,1.4.24,6.9,6.9,0,0,1,1.43.67,5.53,5.53,0,0,1,.88.72,4.39,4.39,0,0,1,.51.71,4.27,4.27,0,0,1,.27.63.38.38,0,0,0,.5.22.38.38,0,0,0,.22-.49A6.86,6.86,0,0,0,68,50.7a6.45,6.45,0,0,0-2.39-1.63A6,6,0,0,0,63,48.66a1.43,1.43,0,0,0-.29,0m4.27,2.53.08.05-.08-.05" style="fill:#3a0241"/><path d="M63.88,42.57c2.4-1.19,4-2.88,3.55-3.79s-2.76-.66-5.16.53-4,2.88-3.55,3.78,2.76.67,5.16-.52" style="fill:#3a0241"/><path d="M94.44,51.44a4.27,4.27,0,0,1,2.49,1.87,1,1,0,0,1-.12,1.12,1,1,0,0,1-.65.28.9.9,0,0,1-.66-.26,4.34,4.34,0,0,0-1.74-1.38,5.84,5.84,0,0,0-1-.25,6,6,0,0,0-1.34,0,5.17,5.17,0,0,0-2.36,1,4,4,0,0,0-.57.59,4.53,4.53,0,0,0-.34.55.35.35,0,0,1-.49.14.36.36,0,0,1-.14-.49,6.54,6.54,0,0,1,1.66-2,6.15,6.15,0,0,1,2.46-1.2,5.93,5.93,0,0,1,2.55,0l.27.07m-4.35,1.78-.08,0,.08,0" style="fill:#3a0241"/><path d="M94.14,45.55c-2.08-1.44-3.34-3.25-2.8-4s2.68-.25,4.76,1.2,3.34,3.25,2.8,4-2.67.24-4.76-1.2" style="fill:#3a0241"/><path d="M76.16,63.25a9,9,0,0,0-1.26.09,8.58,8.58,0,0,0-2.44.72,5.74,5.74,0,0,0-1.88,1.34,4.43,4.43,0,0,0-.6.86,4.74,4.74,0,0,0-.5,1.17,3.74,3.74,0,0,0-.11,1.2,2.56,2.56,0,0,0,.1.51,2.91,2.91,0,0,0,.27.56,2.31,2.31,0,0,0,.35.4,2.53,2.53,0,0,0,.48.33,2.43,2.43,0,0,0,1.19.34,4.86,4.86,0,0,0,2.39-.92l.25-.15h0a6.55,6.55,0,0,1,1.33-.65.65.65,0,0,0,.09.16,4.15,4.15,0,0,0,.56.55,3.46,3.46,0,0,0,.61.39,2.7,2.7,0,0,0,1.18.25h.22a2.69,2.69,0,0,0,1.19-.4,2.9,2.9,0,0,0,1-1,3.45,3.45,0,0,0,.37-2.81,4.15,4.15,0,0,0-.49-1.08,3.6,3.6,0,0,0-.81-.87,4.89,4.89,0,0,0-1-.56,6.33,6.33,0,0,0-1.21-.35,6.55,6.55,0,0,0-1.28-.12m-3.81,2h0l.27-.14a.4.4,0,0,0,.18.13,3,3,0,0,1,.45.19,2.8,2.8,0,0,1,.49.36,3.41,3.41,0,0,1,.37.48,4.84,4.84,0,0,1,.28.66,5,5,0,0,1,.13.88,5.65,5.65,0,0,1-.05.71c-.22.11-.45.25-.67.38l-.19.11a6.92,6.92,0,0,1-1.44.72,2.9,2.9,0,0,1-.41.06,1.07,1.07,0,0,1-.25,0,3.28,3.28,0,0,1-.52-.2l-.27-.21a1.57,1.57,0,0,1-.2-.25c-.05-.1-.09-.19-.13-.29a2.19,2.19,0,0,1,0-1,4.67,4.67,0,0,1,.4-1,4.47,4.47,0,0,1,.66-.89,5.59,5.59,0,0,1,.81-.62l0,0Z" style="fill:#3a0241"/><path d="M124.83,66.46h-.09a.28.28,0,0,0-.21.12.24.24,0,0,0,0,.2.23.23,0,0,0,.11.16l.75.36,2.22,1.06,2.39,1.1.43.19h.06c1.66.76,3.32,1.57,5,2.37q1.84.9,3.69,1.77l2,.92.7.29c.64.27,1.3.5,2,.71a10.19,10.19,0,0,0,2.08.45h.34a4,4,0,0,0,.49,0,1.37,1.37,0,0,0,.68-.26,1,1,0,0,0,.35-.5,1.48,1.48,0,0,0,0-.35,2.21,2.21,0,0,0-.07-.48,4.5,4.5,0,0,0-.16-.48,5.6,5.6,0,0,0-.27-.55,4,4,0,0,0-.67-.84,8,8,0,0,0-1.62-1.1,18.44,18.44,0,0,0-2.21-.93,46.32,46.32,0,0,0-5-1.35l-.77-.18-1.2-.27-.88-.23c-.69-.19-1.39-.35-2.08-.51-1.21-.27-2.42-.51-3.63-.76-1.43-.28-2.92-.58-4.37-.92Z" style="fill:#04bfbf"/><path d="M150.28,63.22c-.56,0-1.13,0-1.69.05-1.21.06-2.52.18-4.13.38-1.22.15-2.5.34-4,.6-1.13.19-2.26.4-3.38.61l-1.83.37-.37.08a.26.26,0,0,0-.22.29.28.28,0,0,0,.25.23.31.31,0,0,0,.23.17l1.18.11.89.1.89.1c1.58.17,3.16.34,4.74.48,2.05.18,3.73.3,5.3.37.82,0,1.63,0,2.45,0s1.5,0,2.18-.07a10.47,10.47,0,0,0,1.72-.24,3.73,3.73,0,0,0,1.16-.44,1.09,1.09,0,0,0,.5-.73,1.29,1.29,0,0,0-.07-.53,2,2,0,0,0-.27-.55,2.46,2.46,0,0,0-.43-.42,3.62,3.62,0,0,0-.63-.36,4.41,4.41,0,0,0-.72-.26c-.3-.08-.6-.14-.91-.2a14.83,14.83,0,0,0-2.1-.18h-.71" style="fill:#04bfbf"/><path d="M148.94,52.66c-.23,0-.46,0-.68,0a11.84,11.84,0,0,0-1.91.32,31.4,31.4,0,0,0-4.44,1.5c-1.45.59-3,1.3-4.79,2.22-2.56,1.29-5.16,2.74-7.93,4.43-.56.33-1.12.68-1.66,1l-.15.05a.32.32,0,0,0-.2.1.26.26,0,0,0-.05.2.25.25,0,0,0,.1.17.3.3,0,0,0,.15,0c1.57-.39,3.21-.8,4.83-1.16.74-.16,1.48-.31,2.23-.44l.91-.16,2.72-.48c1.79-.34,3.39-.67,4.9-1a45.51,45.51,0,0,0,4.77-1.39,17.77,17.77,0,0,0,1.95-.84,7.48,7.48,0,0,0,1.41-.91,2.68,2.68,0,0,0,.77-1,1.64,1.64,0,0,0,.09-.56,1.63,1.63,0,0,0-.12-.58,2.43,2.43,0,0,0-.31-.53,2.79,2.79,0,0,0-.46-.44,3.07,3.07,0,0,0-1.23-.47,4.25,4.25,0,0,0-.9-.08" style="fill:#04bfbf"/></g></g></svg>