<svg id="Layer_1" data-name="Layer 1" xmlns="http://www.w3.org/2000/svg" viewBox="0 0 274.86 323.49"><title>touchFace</title><g id="Layer_1-2" data-name="Layer_1"><g id="_2201835456544" data-name=" 2201835456544"><path d="M185.37,12.49C155.81-.83,121.25-3.75,90,5,73,10,56.3,18.74,47.14,34.14c-21.24,37.48,16.65,88.69-3.75,127-7.91,15.41-24.15,25-33.73,39.56-15,22.9-11.24,54.54,4.58,76.61,15.41,22.49,41.64,35.81,67.87,41.64,26.65,5.83,54.13,5,81.61,3.33,25.81-1.25,52.46-2.92,75.36-15.41,22.9-12.07,40.39-37.89,35-63.28-4.17-18.32-18.32-32.48-22.9-50.39-4.58-19.15,2.49-38.72,6.24-57.87C267.81,82.44,232,34.14,185.37,12.49Z" transform="translate(-0.19 -0.01)" style="fill:#d7dbfa;fill-rule:evenodd"/><path d="M235.75,308.53c-14.16-41.64-47.46-63.71-78.28-64.12-32.06,0-62.45,19.15-91.6,37.47a235.88,235.88,0,0,0,21.24,37.89c25,4.58,50.79,3.75,76.61,2.5C188.29,321,213.68,319.35,235.75,308.53Z" transform="translate(-0.19 -0.01)" style="fill:#fefefe;fill-rule:evenodd"/><path d="M69.62,283.13A261,261,0,0,0,90.85,320.6c-2.49-.41-5.41-1.25-7.91-1.66a250.64,250.64,0,0,1-19.15-35.81l-1.25-2.08,2.08-1.25c27.9-17.9,59.13-37.89,92.44-37.89h.41c29.57,0,65.37,20.4,80.78,65.37a45,45,0,0,0-4.58,2.5c-14.57-42.89-48.3-62.46-76.2-62.46h-.41C126.25,247.32,96.27,266.06,69.62,283.13Z" transform="translate(-0.19 -0.01)" style="fill:#4756df;fill-rule:evenodd"/><path d="M109.59,252.74c5-5.42,10-10.83,12.49-17.91,1.67-5.41,1.67-11.24,1.25-16.65,0-6.25,0-12.49-.41-18.74,0-2.08,0-4.58-1.67-5.83-1.67-1.66-5-1.25-6.66.42-2.08,1.66-2.92,3.74-3.75,6.24-2.08,4.58-3.75,9.16-5.83,13.74,1.67-11.24,1.25-22.06.83-33.72,0-2.5,0-5-1.66-6.66-1.67-2.09-5-2.92-6.25-.84,1.25-3.33-2.91-7.91-6.66-8.74-2.91-.42-5,2.5-6.24,7.08-1.67-1.25-4.17-2.08-5.83-.84s-2.5,5-3.33,8.33C73,182,68.79,184,67.12,188.2A79.61,79.61,0,0,0,68,247.74c1.67,4.16-5.82,47.05-7.49,64.12a132.67,132.67,0,0,0,21.65,7.08,217.85,217.85,0,0,0,22.9,3.33C105,299,106.68,255.23,109.59,252.74Z" transform="translate(-0.19 -0.01)" style="fill:#fefefe;fill-rule:evenodd"/><path d="M102.51,321.85c0-8.74,0-19.57.42-27.89,1.67-40,3.75-42.06,4.58-43.31h0c4.58-4.58,9.58-10,12.07-16.65,1.67-5,1.25-10.41,1.25-15.82l-.41-18.74c0-1.25,0-3.33-.84-4.16a3.46,3.46,0,0,0-3.33.83,14.29,14.29,0,0,0-2.91,5l-5.83,13.74a2.48,2.48,0,0,1-3.33,1.66,2.37,2.37,0,0,1-1.67-2.91c1.67-10,1.25-19.57.84-29.57V180.7a10.44,10.44,0,0,0-1.25-5.41,1.67,1.67,0,0,0-1.67-.83H100a3.45,3.45,0,0,1-3.33.83A2.79,2.79,0,0,1,95.43,172a3.54,3.54,0,0,0-.83-2.5,4.78,4.78,0,0,0-3.75-2.5c-1.66-.41-2.91,3.75-3.33,5-.41.83-.83,1.67-2.08,1.67a2.77,2.77,0,0,1-2.5-.42c-.41-.83-1.66-.83-2.08-.83-.41.41-1.25,1.25-2.5,6.66,0,.41-.41.83-.41,1.25A31.44,31.44,0,0,1,74.2,184c-2.08,1.67-3.75,2.92-4.58,5a75.39,75.39,0,0,0,.83,57.88c1.25,2.91,0,12.9-4.16,41.63C65,297.29,63.37,306.86,63,313.11c-1.67-.83-3.75-1.25-5.41-2.08.83-5,1.66-12.49,3.33-22.9C63,273.55,66.29,251.9,65.46,249a81,81,0,0,1-.84-61.62c1.25-3.34,3.75-5.42,5.83-7.5a18,18,0,0,0,2.92-2.5c.83-3.74,2.08-7.49,4.16-9.16,1.67-1.25,3.75-1.25,5.83-.83,2.5-5.41,5.83-6.25,8.33-5.83A11.62,11.62,0,0,1,99.6,167c.41.42.41,1.25.83,2.09h0a6.76,6.76,0,0,1,5.83,2.91c2.08,2.5,2.08,5.41,2.5,8.33v3.33c0,4.58.42,9.16.42,13.74a11.6,11.6,0,0,1,3.74-5.41c2.5-2.5,7.08-3.34,10-.42,2.49,2.08,2.91,5.83,2.91,7.91l.42,18.74c0,5.41.41,11.66-1.67,17.9-2.5,7.5-7.91,12.91-12.91,18.32-2.08,4.58-3.74,46.22-4.16,68.29C105.84,322.27,104.18,322.27,102.51,321.85Z" transform="translate(-0.19 -0.01)" style="fill:#4756df;fill-rule:evenodd"/><path d="M91.69,204h-.42a3.58,3.58,0,0,1-2.5-2.91,104.9,104.9,0,0,1,6.66-30c.42-1.67,2.09-2.08,3.75-1.67,1.25.42,1.67,2.08,1.25,3.33-3.33,9.16-5.83,18.74-6.24,28.73A2.69,2.69,0,0,1,91.69,204Z" transform="translate(-0.19 -0.01)" style="fill:#2e4594;fill-rule:evenodd"/><path d="M80,205.69h0a2.41,2.41,0,0,1-2.5-2.5,112.48,112.48,0,0,1,5.83-35.39,2.48,2.48,0,0,1,3.33-1.67c1.67.42,2.08,1.67,1.67,3.33a102.18,102.18,0,0,0-5.42,33.73C82.94,204.85,81.69,205.69,80,205.69Z" transform="translate(-0.19 -0.01)" style="fill:#4756df;fill-rule:evenodd"/><path d="M73,204.44h0a2.79,2.79,0,0,1-2.5-2.92,98.65,98.65,0,0,1,3.75-27.06c0-1.25,1.67-2.08,2.91-2.08a2.74,2.74,0,0,1,2.09,3.33,112.71,112.71,0,0,0-3.33,26.23A2.79,2.79,0,0,1,73,204.44Z" transform="translate(-0.19 -0.01)" style="fill:#4756df;fill-rule:evenodd"/><path d="M85.86,151.56a76.06,76.06,0,0,1-6.25-45c-7.49-11.66-7.91-27.48-.83-39.14S100,48.72,113.76,50C127.08,51.21,140,60.79,145,73.28c9.58-1.66,20.4-2.91,30,.42,3.75,1.66,7.91,3.74,10.83,7.08S190,89.1,188.7,92.85c2.92-1.25,8.33-.83,11.24.42a35.73,35.73,0,0,1,8.33,5.41c4.16,3.75,8.74,7.91,10.83,13.74,2.91,8.33-.84,18.74-8.75,23.32,7.91,4.58,8.75,15,5.83,23.31S207,174,202,181.54a92.85,92.85,0,0,0-16.66,46.63,125.23,125.23,0,0,1-34.56-22.07Z" transform="translate(-0.19 -0.01)" style="fill:#4756df;fill-rule:evenodd"/><path d="M87.94,149.89,152.48,204a105.9,105.9,0,0,0,30.81,20c1.66-15.83,7.08-31.23,16.65-44.14,1.25-2.08,2.5-3.75,3.75-5.83,4.16-5,7.91-10,10-15.82,2.5-7.49,1.67-16.65-4.58-20l-4.16-2.49,4.16-2.09c6.67-4.16,10-13.32,7.5-20.4-2.08-5-6.25-9.16-10-12.49-2.5-1.66-5-3.75-7.92-5a13.94,13.94,0,0,0-9.16-.41l-5.41,2.5L186.2,92a10.68,10.68,0,0,0-2.5-9.58q-3.12-3.75-10-6.24c-8.33-2.92-18.73-2.09-28.31,0l-2.08.41-.84-2.08c-5-12.07-16.23-20.82-29.14-21.65-12.49-1.25-25.4,5.41-32.06,16.24-6.66,10.41-6.25,25,.41,35.8l.42.84V107A72.28,72.28,0,0,0,87.94,149.89Zm99.93,82-3.33-1.25a111.9,111.9,0,0,1-35.81-22.9L83.78,153.22l-.42-.41A79,79,0,0,1,76.7,107c-7.5-12.49-7.5-28.73,0-40.81,7.49-12.49,22.48-20,37.06-18.73a40.92,40.92,0,0,1,32.89,22.9c9.57-1.67,20-2.5,29.14.83,5.42,2.08,9.16,4.58,12.08,7.91A16.4,16.4,0,0,1,192,89.52a15.52,15.52,0,0,1,8.75,1.25c3.74,1.25,6.66,3.75,9.16,5.83,4.58,3.74,9.16,8.74,11.65,14.57,2.92,8.74.42,18.74-6.66,24.57,6.25,6.24,6.66,16.23,3.75,24.15-2.08,6.66-6.25,12.07-10.41,17.48a62.3,62.3,0,0,1-4.16,5.42,88.87,88.87,0,0,0-15.82,45.38Z" transform="translate(-0.19 -0.01)" style="fill:#4756df;fill-rule:evenodd"/><path d="M84.19,156.14c-1.25,17.07-2.08,35-.83,52,1.25,11.66,5.83,23.74,15,31.23,11.66,9.16,27.06,6.25,40.8,5.41,1.67,0,10.83,38.31,11.66,42.47,10,4.58,22.49,3.34,31.65-2.49a34.27,34.27,0,0,0,16.65-26.24c-6.24-12.49-18.74-36.64-20.4-52.46A24.91,24.91,0,0,0,197,197.36a14.56,14.56,0,0,0,2.91-12.91c-2.49-6.24-9.16-7.49-14.57-6.24a28.11,28.11,0,0,0-10,5c0-19.15-2.08-24.15-10-41.22-2.49-5.41-1.66-11.66-.41-17.49a7.11,7.11,0,0,0-6.25-7.91c-14.57-1.25-30-3.33-44.13-4.16-8.75-.42-18.74-.83-25,5.41-2.92,2.92-2.92,16.24-3.75,20.4C85.44,144.48,84.61,150.31,84.19,156.14Z" transform="translate(-0.19 -0.01)" style="fill:#fefefe;fill-rule:evenodd"/><path d="M153.31,285.21a33,33,0,0,0,27.9-2.5,31.57,31.57,0,0,0,15-23.73,40.43,40.43,0,0,0-2.09-4.58c-6.66-13.32-16.65-33.72-17.9-47.88l-.42-2.92h3.33c5.42,0,11.66-3.33,15.83-7.91a11.51,11.51,0,0,0,2.5-10c-2.5-6.66-10-5.41-11.25-5-3.33.84-6.66,2.92-9.57,4.58l-4.17,2.5V183.2c.42-18.73-1.66-23.31-9.57-40.39-2.92-5.82-1.67-12.9-.84-18.73a3.23,3.23,0,0,0-.83-3.33,3.49,3.49,0,0,0-2.91-1.67c-5.83-.42-12.08-1.25-18.32-1.66-8.33-.84-17.07-1.67-25.4-2.09-8.75-.83-17.49-.83-22.9,4.17-1.67,1.66-2.5,11.24-2.5,15a17.06,17.06,0,0,0-.42,4.16c-.83,5.83-1.66,12.08-2.08,17.49h0c-1.25,20-1.66,36.64-.42,52,.84,12.08,6.25,22.9,13.74,29.15,9.58,7.49,21.66,6.25,33.73,5a20.13,20.13,0,0,0,5-.42h0c2.91,0,4.16.83,14.15,42.89Zm10.83,7.5A32,32,0,0,1,150,289.79l-1.25-.41L147.9,286c-6.66-26.64-9.16-35.8-10.41-38.3h-3.33c-12.49,1.25-26.23,2.5-37.48-6.25-9.16-7.07-14.57-19.15-15.82-32.89-1.25-15.41-.83-32.48.42-52.88h0c.83-5.83,1.25-11.66,2.08-17.49a15.51,15.51,0,0,1,.42-4.16c.41-8.74,1.25-15.41,4.16-18.32,7.08-6.66,17.49-6.66,27.06-5.83,8.33.42,17.08,1.25,25.4,2.08,6.25.84,12.49,1.25,18.32,1.67,2.92.41,5.42,1.66,6.66,3.75a9.92,9.92,0,0,1,2.09,7.49c-.84,5.41-1.67,11.24,0,15.82,7.49,15.41,10.41,21.65,10.41,37.48a42,42,0,0,1,6.66-2.5c7.08-1.67,15,0,17.9,7.91,1.67,5,.42,10.82-3.33,15.4A27.38,27.38,0,0,1,182,208.6c2.08,13.32,10.83,31.23,16.65,43.3,1.25,2.08,2.09,3.75,2.92,5.42l.42.83-.42.83a37.53,37.53,0,0,1-37.47,33.73Z" transform="translate(-0.19 -0.01)" style="fill:#4756df;fill-rule:evenodd"/><path d="M178.29,197.36a1.53,1.53,0,0,1-1.25-.42,3.17,3.17,0,0,1-1.25-3.75,22.4,22.4,0,0,1,13.33-10.4,2.48,2.48,0,0,1,3.33,1.66,2.73,2.73,0,0,1-2.08,3.33,15.3,15.3,0,0,0-9.58,7.91A2.6,2.6,0,0,1,178.29,197.36Z" transform="translate(-0.19 -0.01)" style="fill:#4756df;fill-rule:evenodd"/><path d="M105,208.6h-.41a17,17,0,0,1-7.92-3.33c-2.49-2.08-4.16-4.16-4.58-6.66-.83-4.17,1.67-7.5,3.33-9.58l5.83-8.33c1.25-1.25,2.92-1.66,3.75-.41a2.7,2.7,0,0,1,.83,3.74l-6.24,8.33c-1.25,1.67-2.5,3.75-2.08,5.41,0,1.25,1.25,2.5,2.08,3.34a14.6,14.6,0,0,0,5.83,2.49,2.22,2.22,0,0,1,2.08,2.92A2.33,2.33,0,0,1,105,208.6Z" transform="translate(-0.19 -0.01)" style="fill:#4756df;fill-rule:evenodd"/><path d="M107.51,221.92a11.69,11.69,0,0,1-7.5-2.49,2.67,2.67,0,0,1,3.34-4.17c2.91,2.08,7.49.84,8.74.42,1.25-.83,2.91-1.25,4.16-2.08,2.09-.84,4.17-2.08,6.67-2.5,4.16-1.25,10-1.25,13.32,2.91a2.35,2.35,0,0,1-.42,3.75,2.69,2.69,0,0,1-3.74-.42c-1.67-2.08-5-2.08-7.92-1.24a20.07,20.07,0,0,0-5.41,2.49,25.24,25.24,0,0,0-5,2.09A16.81,16.81,0,0,1,107.51,221.92Z" transform="translate(-0.19 -0.01)" style="fill:#4756df;fill-rule:evenodd"/><path d="M157.47,259.4c5-5.42,10.41-10.83,12.49-17.49,2.09-5.41,1.67-11.24,1.67-17.07,0-6.25-.42-12.49-.42-18.74,0-2.08-.41-4.58-1.66-5.83a5.06,5.06,0,0,0-6.66.42c-2.09,1.66-2.92,4.16-4.17,6.25-1.66,4.58-3.74,9.16-5.41,13.74,1.67-11.25,1.25-22.07.83-33.31,0-2.5-.41-5.42-1.66-7.08-1.67-2.08-5-2.5-6.66-.84,1.24-3.33-2.5-7.91-6.25-8.32-2.91-.84-5,2.08-6.66,6.66a5.09,5.09,0,0,0-5.41-.83c-1.67,1.25-2.92,5-3.34,8.32-3.33,3.33-7.49,5.42-9.16,9.58a82.82,82.82,0,0,0,1.25,60c1.25,3.33-4.58,42.47-7.91,67.87,15,1.24,30.4.83,45.39,0C154.14,299,155.39,261.9,157.47,259.4Z" transform="translate(-0.19 -0.01)" style="fill:#fefefe;fill-rule:evenodd"/><path d="M151.23,323.1c.41-31.64,1.66-62.45,4.58-65.37h0c4.58-5,9.57-10.41,11.66-16.65,1.66-5,1.66-10.83,1.66-16.24l-.41-18.74c-.42-1.66-.42-3.33-1.25-3.75-.42-.83-2.09-.41-2.92.42-1.66,1.25-2.5,3.33-3.33,5l-5.41,14.15a3.78,3.78,0,0,1-3.33,1.67,3.3,3.3,0,0,1-2.08-3.33c1.66-10,1.66-19.57,1.24-29.56l-.41-3.33c0-2.09,0-4.17-.83-5.42a3.21,3.21,0,0,0-1.67-.83h-.42c-.83,1.25-2.49,1.25-3.74.83-.84-.83-1.67-2.08-1.25-3.33.41-.41,0-1.25-.42-2.08-.83-1.67-2.5-2.91-3.75-2.91-1.66-.42-2.91,3.74-3.33,5a5,5,0,0,1-2.08,2.08,3.08,3.08,0,0,1-2.5-.83,2.76,2.76,0,0,0-2.5-.42s-.83.84-2.08,6.67c0,.41-.41.83-.83,1.25a25.49,25.49,0,0,1-3.33,3.33c-2.08,1.66-4.16,3.33-5,5.41a76.28,76.28,0,0,0,1.25,57.46c1.25,2.91-.41,15.4-5.41,52-.83,5.83-1.67,11.66-2.5,17.08a20.17,20.17,0,0,1-5-.42c.42-5,1.25-10.41,2.09-17.49,2.91-19.57,6.66-45.8,5.83-49.13A83,83,0,0,1,112.51,194a22.2,22.2,0,0,1,6.24-7.5,18,18,0,0,0,2.92-2.5c.83-3.74,1.66-7.49,4.16-9.16,1.67-1.24,3.75-1.24,5.83-.83,2.5-5.41,5.83-6.24,8.33-5.83a10.83,10.83,0,0,1,7.49,5.42c.42.83.83,1.24,1.25,2.08h0a8.78,8.78,0,0,1,5.83,2.91c2.08,2.5,2.08,5.83,2.08,8.33l.42,3.33V204a21,21,0,0,1,3.74-5.41c2.92-2.08,7.5-2.92,10.41-.42,2.5,2.5,2.5,5.83,2.5,7.91l.83,18.74c0,5.41,0,12.07-1.66,17.9-2.5,7.5-8.33,13.33-12.91,18.32-1.66,3.75-2.91,31.65-3.33,61.63C154.56,322.69,152.89,323.1,151.23,323.1Z" transform="translate(-0.19 -0.01)" style="fill:#4756df;fill-rule:evenodd"/><path d="M139.57,210.68h0c-1.67,0-2.5-1.25-2.5-2.91a92.54,92.54,0,0,1,6.66-30,2.85,2.85,0,0,1,3.33-1.67,2.92,2.92,0,0,1,1.67,3.75,82.31,82.31,0,0,0-6.25,28.31A2.78,2.78,0,0,1,139.57,210.68Z" transform="translate(-0.19 -0.01)" style="fill:#4756df;fill-rule:evenodd"/><path d="M128.33,212.76h0c-1.67,0-2.5-1.24-2.5-2.91a114.5,114.5,0,0,1,5.83-35.39,2.63,2.63,0,1,1,5,1.66,116.83,116.83,0,0,0-5.83,33.73C130.83,211.52,130,212.76,128.33,212.76Z" transform="translate(-0.19 -0.01)" style="fill:#4756df;fill-rule:evenodd"/><path d="M121.25,211.1h0a2.4,2.4,0,0,1-2.5-2.5,117.51,117.51,0,0,1,3.33-27.06,2.74,2.74,0,0,1,3.33-2.09,2.59,2.59,0,0,1,2.09,3.34,106.56,106.56,0,0,0-3.34,25.81A2.78,2.78,0,0,1,121.25,211.1Z" transform="translate(-0.19 -0.01)" style="fill:#4756df;fill-rule:evenodd"/><path d="M95,159.47h-.83a14.25,14.25,0,0,1-10-5.41c-.83-.84-.41-2.92.42-3.75a3.1,3.1,0,0,1,3.75.42,7.89,7.89,0,0,0,6.24,3.33c2.5.41,4.58-.84,6.25-2.5a3.79,3.79,0,0,1,4.16,0,3.79,3.79,0,0,1,0,4.16A14.89,14.89,0,0,1,95,159.47Z" transform="translate(-0.19 -0.01)" style="fill:#4756df;fill-rule:evenodd"/><path d="M136.24,163.63h-1.67a15.14,15.14,0,0,1-10.82-7.91A3.17,3.17,0,0,1,125,152a3.35,3.35,0,0,1,3.74,1.25,9.19,9.19,0,0,0,6.67,5,8.25,8.25,0,0,0,7.49-2.91,2.7,2.7,0,0,1,3.75-.42,2.35,2.35,0,0,1,.41,3.75A13.41,13.41,0,0,1,136.24,163.63Z" transform="translate(-0.19 -0.01)" style="fill:#4756df;fill-rule:evenodd"/><path d="M105.43,137a1.52,1.52,0,0,1-1.25-.42,17.81,17.81,0,0,0-14.57-.42,2.84,2.84,0,0,1-3.34-1.66c-.41-1.25,0-2.92,1.25-3.33,6.25-2.5,13.33-2.5,19.16.83a3.37,3.37,0,0,1,1.25,3.75A3.63,3.63,0,0,1,105.43,137Z" transform="translate(-0.19 -0.01)" style="fill:#4756df;fill-rule:evenodd"/><path d="M155.39,144.9a2.47,2.47,0,0,1-1.66-.42A26.09,26.09,0,0,0,140,138.65c-5-1.25-10.41-1.25-15.83-1.25a2.69,2.69,0,0,1-2.49-2.5,2.78,2.78,0,0,1,2.49-2.91h0a122.63,122.63,0,0,1,17.08,1.25,36.93,36.93,0,0,1,15.82,7.08,2.62,2.62,0,0,1,.41,3.74C157.06,144.9,156.22,144.9,155.39,144.9Z" transform="translate(-0.19 -0.01)" style="fill:#4756df;fill-rule:evenodd"/></g></g></svg>